<?xml version="1.0" encoding="UTF-8" standalone="no"?><!DOCTYPE svg PUBLIC "-//W3C//DTD SVG 1.1//EN" "http://www.w3.org/Graphics/SVG/1.1/DTD/svg11.dtd"><svg width="100%" height="100%" viewBox="0 0 4200 2550" version="1.1" xmlns="http://www.w3.org/2000/svg" xmlns:xlink="http://www.w3.org/1999/xlink" xml:space="preserve" xmlns:serif="http://www.serif.com/" style="fill-rule:evenodd;clip-rule:evenodd;stroke-linejoin:round;stroke-miterlimit:2;"><g id="ChatGPT-Image-9-dic-2025--02_13_22.png" serif:id="ChatGPT Image 9 dic 2025, 02_13_22.png"><path d="M52.425,717.004c0.651,-13.305 -1.384,-14.303 2.747,-17.728c4.613,-3.826 5.672,-1.827 582.471,-1.94c229,-0.045 229.079,0.293 232.314,1.206c4.372,1.233 4.181,2.16 14.46,2.552c2.273,0.087 18.403,0.703 28.401,1.266c9.692,0.546 13.435,3.216 14.707,3.63c4.317,1.403 4.43,0.709 8.815,2.112c20.27,6.484 21.241,2.05 28.22,5.243c0.615,0.281 0.629,1.378 1.274,1.58c0.874,0.274 1.852,-0.594 2.728,-0.327c1.246,0.38 0.665,2.538 15.514,6.764c7.254,2.065 6.95,2.629 13.841,5.729c12.644,5.687 12.94,4.646 13.995,5.205c3.598,1.907 2.674,3.604 14.905,8.007c3.565,1.283 3.238,1.757 5.748,3.367c7.71,4.946 11.664,6.715 12.732,7.193c8.036,3.595 9.769,6.13 11.053,7.129c1.013,0.788 2.227,1.279 3.316,1.958c2.267,1.411 8.207,6.785 10.345,8.165c7.29,4.708 7.325,4.611 13.573,10.585c2.477,2.368 2.46,2.234 4.898,4.582c1.444,1.391 33.28,30.342 44.137,46.568c3.954,5.909 10.829,11.326 32.848,47.799c12.29,20.357 12.901,22.071 13.647,24.161c3.135,8.788 7.011,12.757 16.086,29.813c2.007,3.773 1.15,4.085 3.268,7.867c9.792,17.486 42.78,83.975 43.336,85.064c1.99,3.902 8.741,12.655 11.814,20.19c1.492,3.659 19.356,38.322 21.066,41.641c2.447,4.748 2.441,4.679 4.862,9.448c20.297,39.988 22.322,43.177 24.588,46.744c0.449,0.708 1.29,1.112 1.731,1.825c0.975,1.576 0.9,1.577 21.142,41.561c8.646,17.078 20.417,36.231 21.597,39.023c1.406,3.324 14.97,28.717 16.847,31.663c0.456,0.715 1.37,1.061 1.819,1.78c2.271,3.638 1.149,4.052 3.204,7.773c0.354,0.641 1.185,0.932 1.528,1.579c0.686,1.294 1.029,2.744 1.499,4.131c4.452,13.146 7.787,11.993 12.967,24.276c2.167,5.137 5.518,9.505 9.658,18.896c2.412,5.472 6.481,11.812 7.114,12.798c0.465,0.725 1.414,1.051 1.873,1.78c2.244,3.568 1.089,4.011 3.214,7.754c0.363,0.64 1.209,0.916 1.556,1.564c0.69,1.287 1.024,2.736 1.492,4.12c3.434,10.158 5.066,9.248 9.907,18.701c1.541,3.009 16.211,31.655 19.853,37.296c0.466,0.722 1.414,1.043 1.878,1.766c2.267,3.538 1.123,4.022 3.25,7.666c0.392,0.672 1.3,0.952 1.655,1.644c1.286,2.508 1.948,5.301 3.203,7.825c0.327,0.658 1.153,0.969 1.494,1.62c2.275,4.344 0.371,5.328 8.797,19.5c16.795,28.248 17.257,32.305 22.572,40.548c0.459,0.712 1.364,1.063 1.815,1.781c2.265,3.599 1.165,4.018 3.261,7.686c0.383,0.67 1.255,0.979 1.607,1.665c0.927,1.813 0.648,1.939 11.228,22.839c3.218,6.357 14.403,26.809 15.062,27.85c0.456,0.72 1.414,1.022 1.871,1.741c2.278,3.587 1.076,4.074 3.222,7.684c0.401,0.675 1.344,0.929 1.704,1.628c1.292,2.504 1.927,5.308 3.178,7.833c0.327,0.659 1.158,0.967 1.502,1.617c0.681,1.286 1.039,2.72 1.522,4.093c1.555,4.426 1.835,4.203 9.877,18.719c5.822,10.509 6.661,9.89 7.151,10.803c1.316,2.449 1.866,5.258 3.159,7.719c0.364,0.692 1.368,0.89 1.73,1.583c1.301,2.492 1.888,5.313 3.175,7.812c0.354,0.688 1.313,0.923 1.674,1.606c1.31,2.478 1.984,5.257 3.27,7.748c0.356,0.69 1.243,1.003 1.602,1.693c1.294,2.489 2.018,5.247 3.303,7.741c0.351,0.681 1.172,1.027 1.557,1.689c0.708,1.218 1.136,2.58 1.681,3.879c1.226,2.926 1.523,2.704 2.981,5.555c1.469,2.87 0.793,4.324 4.062,9.918c7.967,13.634 8.786,13.088 9.386,14.319c1.413,2.903 0.572,3.241 4.378,9.695c5.02,8.512 5.298,8.302 5.709,9.054c1.33,2.432 2.06,5.158 3.367,7.602c0.364,0.68 1.238,0.993 1.593,1.677c1.293,2.493 2.023,5.25 3.297,7.753c0.342,0.671 1.165,1.013 1.506,1.684c1.28,2.516 2.051,5.269 3.315,7.793c0.325,0.65 1.084,1.012 1.417,1.658c1.594,3.092 0.57,3.812 4.069,9.895c20.935,36.394 19.892,36.941 19.901,37.131c0.385,8.019 -9.062,5.276 -46.631,5.288c-201.411,0.064 -201.339,0.222 -204.05,-0.046c-10.893,-1.078 -9.315,-5.536 -21.416,-25.653c-8.351,-13.882 -8.956,-18.049 -13.757,-25.884c-2.807,-4.582 -2.418,-4.688 -5.02,-9.311c-0.424,-0.754 -1.332,-1.136 -1.814,-1.854c-0.742,-1.103 -1.059,-2.457 -1.818,-3.548c-0.485,-0.698 -1.417,-1.018 -1.861,-1.742c-2.177,-3.553 -1.026,-4.039 -3.222,-7.647c-0.408,-0.671 -1.294,-0.974 -1.668,-1.664c-1.329,-2.457 -2.073,-5.199 -3.379,-7.668c-0.361,-0.681 -1.216,-1.011 -1.575,-1.693c-1.307,-2.48 -2.08,-5.216 -3.377,-7.701c-0.35,-0.671 -1.172,-1.013 -1.524,-1.683c-4.616,-8.81 -4.067,-9.025 -9.708,-18.877c-3.691,-6.446 -2.907,-6.777 -6.702,-13.219c-0.598,-1.015 -6.84,-10.098 -8.55,-14.733c-1.86,-5.043 -2.087,-4.844 -4.344,-9.694c-5.054,-10.861 -5.584,-10.521 -13.778,-24.002c-0.011,-0.019 -4.069,-9.558 -10.734,-12.241c-2.804,-1.128 -265.035,-0.456 -478.731,-0.817c-56.178,-0.095 -61.44,2.103 -60.807,-5.294c0.217,-2.535 0.85,-2.197 3.318,-5.212c3.44,-4.202 24.878,-45.67 25.381,-46.485c7.286,-11.791 7.228,-11.715 13.84,-23.981c23.186,-43.009 22.526,-43.279 24.554,-47.005c0.379,-0.697 1.304,-0.968 1.723,-1.642c2.218,-3.569 0.975,-4.044 3.233,-7.622c0.458,-0.726 1.431,-1.011 1.921,-1.717c2.792,-4.02 7.985,-15.233 13.566,-24.116c4.706,-7.49 4.076,-8.739 9.956,-18.588c0.718,-1.202 1.194,-2.534 1.75,-3.818c1.324,-3.057 1.528,-2.842 3.337,-5.564c2.681,-4.034 9.37,-17.376 14.975,-19.048c2.502,-0.747 2.559,-0.597 289.579,-0.721c19.763,-0.009 27.715,1.966 27.833,-3.463c0.08,-3.699 -2.363,-4.888 -2.524,-5.134c-2.551,-3.899 -0.559,-4.863 -9.29,-19.531c-15.795,-26.534 -18.141,-33.272 -22.165,-40.949c-7.81,-14.901 -20.666,-34.976 -22.136,-38.742c-4.39,-11.246 -6.579,-10.081 -9.928,-18.812c-3.883,-10.123 -8.25,-13.671 -8.857,-14.551c-0.786,-1.14 -0.997,-2.608 -1.762,-3.763c-0.437,-0.66 -1.403,-0.88 -1.775,-1.579c-1.322,-2.489 -1.943,-5.305 -3.218,-7.818c-0.329,-0.649 -1.229,-0.892 -1.534,-1.552c-1.219,-2.636 -1.848,-5.512 -2.973,-8.189c-3.277,-7.803 -10.012,-19.046 -10.973,-20.651c-14.85,-24.792 -14.965,-25.097 -15.859,-27.472c-4.128,-10.967 -7.005,-11.125 -9.95,-18.808c-3.804,-9.925 -5.079,-9.215 -9.993,-18.699c-35.528,-68.564 -44.524,-80.339 -46.665,-85.777c-0.428,-1.088 -2.96,-7.518 -6.693,-12.992c-8.853,-12.982 -8.35,-13.28 -9.164,-14.374c-3.148,-4.228 -2.69,-4.451 -5.514,-8.835c-0.521,-0.809 -1.522,-1.203 -2.128,-1.951c-7.142,-8.811 -5.841,-9.763 -14.498,-18.763c-3.543,-3.683 -3.745,-3.346 -7.451,-6.879c-7.431,-7.083 -7.499,-6.889 -15.849,-12.748c-7.205,-5.055 -9.028,-9.014 -19.682,-12.792c-7.127,-2.527 -6.796,-3.042 -13.772,-5.958c-12.113,-5.062 -12.556,-3.03 -19.113,-4.563c-1.962,-0.459 -3.682,-1.651 -5.587,-2.309c-6.392,-2.208 -22.163,-2.488 -22.891,-2.545c-7.926,-0.622 -7.659,-2.552 -19.015,-2.657c-131.153,-1.21 -131.169,1.454 -142.53,0.485c-8.205,-0.7 -11.919,1.74 -18.774,2.431c-4.61,0.465 -171.957,0.504 -180.275,0.346c-10.959,-0.207 -11.116,-2.637 -19.073,-3.059c-4.051,-0.215 -117.753,-0.123 -127.992,-0.115c-46.788,0.038 -48.489,-1.021 -53.987,6.633c-2.823,3.931 -1.872,11.212 -1.736,19.983c0.225,14.503 -0.821,14.6 2.873,28.722c1.148,4.39 2.472,9.45 1.054,56.706c-0.312,10.405 -3.298,10.964 -3.714,19.047c-0.081,1.574 -0.045,165.299 0.005,165.911c0.201,2.434 3.203,10.434 3.421,19.036c0.084,3.335 -0.3,132.322 -0.312,132.837c-0.156,6.834 -1.812,8.441 -2.185,9.86c-1.639,6.236 -0.941,34.627 -1.076,108.754c-0.027,14.567 -2.711,31.984 8.519,36.611c6.014,2.478 26.24,-1.835 28.475,-2.312c6.851,-1.461 6.924,-0.569 13.809,-1.79c3.221,-0.571 25.926,-7.609 36.949,-15.249c5.461,-3.784 5.854,-3.115 10.822,-7.524c1.206,-1.07 11.046,-9.803 14.321,-14.186c2.023,-2.708 2.283,-2.396 4.65,-4.842c2.697,-2.787 9.856,-12.559 12.365,-15.701c13.848,-17.348 11.936,-18.598 19.118,-28.251c0.804,-1.081 8.166,-10.975 9.505,-13.91c1.188,-2.604 1.892,-5.42 3.173,-7.98c0.338,-0.676 1.221,-0.945 1.616,-1.589c2.193,-3.574 0.934,-4.071 3.242,-7.613c0.475,-0.729 1.505,-0.956 2.015,-1.661c0.774,-1.072 1.005,-2.468 1.754,-3.557c1.88,-2.735 2.288,-2.394 3.743,-5.438c2.315,-4.843 2.935,-4.435 5.111,-9.287c4.91,-10.949 8.322,-9.023 14.16,-23.778c2.848,-7.198 5.803,-8.24 9.377,-14.276c0.711,-1.202 1.313,-2.467 2.033,-3.663c5.449,-9.056 4.038,-9.725 9.301,-18.937c0.43,-0.753 1.412,-1.055 1.917,-1.761c1.936,-2.706 1.755,-2.723 3.789,-5.447c6.33,-8.477 4.329,-9.571 10.24,-18.386c2.665,-3.975 12.871,-22.828 16.058,-27.206c15.03,-20.649 11.799,-22.567 19.105,-33.101c1.329,-1.916 1.836,-1.458 4.07,-5.293c4.377,-7.514 3.328,-7.981 8.15,-15.08c5.471,-8.053 5.56,-7.977 6.003,-8.697c10.272,-16.669 9.607,-16.933 10.501,-18.37c13.462,-21.638 12.982,-21.894 14.163,-23.766c6.31,-10.005 6.101,-10.013 12.214,-20.119c13.193,-21.808 13.054,-21.857 14.213,-23.743c20.743,-33.748 19.375,-35.541 24.817,-37.32c7.235,-2.365 163.461,-0.1 170.607,-1.356c6.489,-1.141 6.386,-1.809 19.145,-1.896c14.458,-0.099 14.455,-1.137 28.708,1.11c4.781,0.754 4.803,-0.156 9.575,0.572c7.94,1.21 7.367,5.131 7.259,5.87c-0.086,0.586 -19.795,36.475 -20.968,38.784c-6.184,12.162 -6.034,12.148 -6.678,13.135c-2.359,3.612 -3.261,3.01 -9.221,14.478c-8.826,16.983 -9.411,16.522 -19.101,33.154c-0.685,1.175 -5.467,9.383 -7.951,15.03c-1.365,3.103 -1.754,2.801 -3.586,5.588c-12.73,19.362 -10.52,20.575 -22.95,40.19c-5.405,8.529 -11.261,20.594 -19.047,33.167c-4.311,6.962 -4.531,6.781 -4.862,7.407c-6.755,12.789 -6.385,12.939 -10.407,18.63c-0.761,1.077 -1.225,2.338 -1.907,3.466c-1.853,3.063 -16.909,27.954 -22.471,38.693c-15.853,30.608 -18.342,31.395 -19.514,32.98c-1.48,2.003 -17.574,32.302 -25.989,46.195c-4.048,6.683 -3.754,8.461 -4.377,9.701c-0.366,0.728 -1.337,0.985 -1.795,1.658c-0.755,1.109 -1.033,2.496 -1.786,3.605c-0.484,0.714 -1.443,1.038 -1.873,1.786c-1.361,2.362 -2.111,5.038 -3.431,7.423c-0.413,0.747 -1.266,1.173 -1.725,1.893c-6.812,10.707 -5.726,11.222 -12.386,21.907c-1.891,3.033 -19.671,31.558 -22.411,38.65c-3.165,8.192 -14.311,20.741 -18.939,33.218c-1.166,3.143 -1.459,2.923 -3.328,5.764c-7.567,11.509 -21.117,36.44 -24.602,42.043c-4.527,7.28 -4.755,7.028 -9.468,14.294c-5.799,8.939 -6.118,8.623 -12.374,17.161c-0.62,0.846 -6.993,9.544 -7.701,10.601c-2.467,3.682 -2.932,3.196 -4.582,4.892c-7.029,7.228 -6.941,7.224 -14.026,14.434c-4.995,5.082 -8.701,11.437 -18.997,18.987c-2.522,1.849 -13.447,13.606 -25.135,21.566c-13.203,8.992 -13.127,8.904 -26.72,17.192c-0.649,0.395 -0.988,1.21 -1.663,1.558c-2.506,1.292 -5.266,2.042 -7.783,3.313c-0.658,0.332 -1.004,1.126 -1.663,1.456c-2.53,1.269 -5.288,2.045 -7.824,3.302c-0.656,0.325 -1.027,1.088 -1.684,1.41c-2.547,1.249 -5.309,2.023 -7.857,3.269c-0.645,0.316 -1.003,1.077 -1.652,1.383c-2.58,1.217 -5.392,1.9 -7.956,3.148c-0.656,0.319 -0.905,1.259 -1.593,1.501c-0.796,0.28 -1.731,-0.319 -2.531,-0.049c-0.631,0.213 -0.828,1.114 -1.435,1.388c-0.773,0.349 -0.835,0.139 -10.037,3.416c-28.499,10.148 -29.083,8.059 -31.469,9.145c-0.578,0.263 -0.698,1.159 -1.281,1.41c-6.948,2.998 -7.626,-0.096 -19.446,3.688c-18.283,5.853 -19.289,-0.425 -37.859,4.767c-0.684,0.191 -5.448,1.523 -8.67,1.915c-6.908,0.84 -243.43,0.689 -246.652,0.461c-8.129,-0.577 -9.181,-1.235 -10.654,-9.316c-0.956,-5.239 -0.285,-822.856 -0.506,-1039.236Z" style="fill:url(#_Linear1);"/><path d="M3517.392,701.104c40.266,0.975 40.511,5.732 52.658,9.713c7.21,2.363 8.229,0.176 29.429,13.413c11.916,7.44 13.303,5.266 23.781,14.673c2.009,1.803 19.88,17.847 24.7,22.985c0.77,0.821 15.031,17.605 15.073,17.675c1.385,2.285 2.114,4.929 3.521,7.201c0.485,0.784 1.533,1.084 2.073,1.831c0.773,1.07 1.023,2.46 1.799,3.528c0.512,0.704 1.576,0.924 1.995,1.688c1.34,2.44 1.908,5.247 3.176,7.725c0.347,0.678 1.276,0.939 1.607,1.625c4.025,8.342 6.507,16.477 6.956,17.95c1.553,5.088 2.505,4.64 3.863,9.811c0.381,1.451 0.438,3.011 1.066,4.373c0.271,0.588 1.355,0.589 1.513,1.217c0.263,1.048 -0.6,2.156 -0.399,3.218c0.359,1.903 1.563,3.563 2.033,5.442c0.182,0.728 0.036,5.135 2.677,13.452c2.533,7.974 4.077,18.155 2.473,67.129c-0.472,14.404 -2.586,13.98 -5.746,28.098c-0.34,1.517 -3.273,14.624 -4.871,18.81c-4.91,12.862 -4.65,12.939 -5.103,14.046c-0.262,0.64 -1.225,0.783 -1.524,1.406c-1.232,2.564 -1.741,5.437 -2.993,7.992c-0.347,0.708 -1.303,0.956 -1.719,1.626c-2.223,3.581 -0.96,4.101 -3.203,7.678c-0.457,0.728 -1.444,0.996 -1.942,1.697c-0.758,1.067 -0.991,2.45 -1.756,3.513c-1.457,2.024 -1.976,1.491 -4.263,5.131c-10.339,16.457 -14.686,17.881 -19.021,23.642c-2.063,2.742 -2.341,2.331 -4.758,4.721c-0.796,0.787 -1.13,1.987 -1.986,2.708c-1.795,1.513 -4.038,2.427 -5.861,3.907c-0.821,0.667 -1.18,1.792 -1.991,2.471c-0.943,0.79 -2.229,1.09 -3.186,1.863c-0.746,0.602 -1.086,1.622 -1.85,2.2c-1.059,0.801 -2.434,1.102 -3.521,1.864c-0.71,0.498 -1.084,1.394 -1.808,1.872c-2.231,1.47 -4.755,2.459 -6.988,3.926c-0.72,0.473 -1.057,1.425 -1.807,1.849c-2.407,1.362 -5.108,2.145 -7.549,3.446c-2.903,1.547 -2.603,1.898 -5.743,3.042c-11.927,4.349 -10.892,6.553 -19.117,9.141c-1.48,0.466 -12.903,4.06 -18.332,6.325c-0.595,0.248 -0.776,1.117 -1.371,1.366c-3.003,1.253 -18.77,2.266 -22.586,3.314c-10.317,2.833 -10.352,2.846 -33.642,2.783c-16.788,-0.046 -16.512,-2.239 -33.253,-3.923c-19.67,-1.978 -18.987,-4.563 -37.908,-9.962c-2.329,-0.665 -31.256,-14.739 -45.751,-25.673c-9.958,-7.512 -16.421,-13.825 -17.756,-15.129c-2.498,-2.44 -3.082,-1.595 -5.406,-4.176c-3.886,-4.316 -9.284,-11.948 -10.044,-13.023c-5.719,-8.087 -14.069,-15.809 -29.043,-51.585c-7.074,-16.901 -4.578,-17.531 -9.34,-37.809c-3.56,-15.162 -1.807,-52.088 -1.592,-56.614c0.367,-7.728 -0.41,-16.146 8.47,-43.146c5.353,-16.276 4.268,-16.707 12.764,-31.622c13.41,-23.539 12.355,-24.418 31.398,-43.698c16.843,-17.052 16.817,-17.154 37.091,-29.906c1.491,-0.937 30.352,-21.166 71.463,-28.667c9.623,-1.756 9.602,-0.738 19.45,-0.211c1.894,0.101 1.88,-0.043 23.703,0.058l-43.381,311.904c5.015,1.031 4.852,3.099 43.363,2.67c36.695,-0.409 51.213,-18.571 57.223,-23.209c6,-4.63 14.138,-15.795 17.753,-24.395c1.137,-2.706 1.548,-5.673 2.606,-8.41c0.232,-0.601 0.977,-0.901 1.224,-1.496c2.751,-6.621 11.785,-28.369 6.908,-89.355c-1.258,-15.729 -5.758,-23.747 -9.335,-33.332c-3.756,-10.067 -4.954,-9.387 -10.144,-18.721c-1.45,-2.607 -11.595,-15.353 -23.883,-23.22c-23.439,-15.008 -47.522,-14.932 -51.838,-14.918c-21.837,0.069 -21.686,1.462 -28.873,3.621c-10.449,3.139 -10.768,2.402 -19.952,8.322c-10.545,6.798 -11.592,5.452 -19.73,15.026c-13.621,16.023 -11.991,17.116 -13.632,19.712c-1.746,2.763 -2.084,2.449 -3.347,5.499c-0.542,1.308 -0.883,2.708 -1.569,3.945c-1.593,2.872 -1.936,2.59 -2.97,5.638c-3.166,9.327 -3.786,9.097 -5.005,18.937c-1.5,12.101 -4.05,11.611 -4.601,23.733c-1.647,36.242 0.713,43.234 1.911,46.783c2.452,7.265 2.082,7.308 3.12,14.864c2.447,17.822 16.029,35.733 18.083,38.441c7.974,10.516 7.987,10.568 23.166,20.538c7.703,5.06 15.183,7.676 19.524,9.327l43.381,-311.904Z" style="fill:url(#_Linear2);"/><path d="M1997.18,1028.198c-1.538,1.57 -3.535,2.642 -5.073,4.212c-7.598,7.757 -8.717,13.353 -39.605,32.231c-4.548,2.779 -4.565,2.575 -9.13,5.293c-4.684,2.789 -4.868,2.182 -9.732,4.701c-0.619,0.321 -0.915,1.127 -1.558,1.397c-2.667,1.123 -5.591,1.568 -8.242,2.728c-0.618,0.27 -0.766,1.198 -1.378,1.482c-1.277,0.592 -12.465,2.498 -17.384,4.057c-12.601,3.995 -13.127,1.463 -23.815,4.745c-9.489,2.914 -9.578,2.42 -43.336,2.486c-52.812,0.103 -113.846,0.422 -118.587,-0.003c-5.283,-0.474 -5.178,-1.262 -14.328,-0.517c-1.509,0.123 -3.086,0.601 -4.539,0.174c-0.794,-0.233 -0.875,-1.45 -1.529,-1.958c-1.099,-0.853 -2.876,-0.884 -3.636,-2.05c-0.939,-1.44 -0.757,-1.613 -0.797,-355.933c-0.002,-16.744 -2.595,-28.235 15.324,-28.198c20.23,0.041 20.195,0.013 85.393,-0.077c41.606,-0.058 47.236,0.204 51.758,1.133c14.36,2.95 14.333,2.486 28.899,3.282c14.464,0.79 14.137,2.723 28.503,4.436c13.069,1.558 15.051,5.349 28.615,9.113c13.833,3.839 13.617,5.454 33.79,18.478c20.146,13.007 18.277,15.189 23.705,19.335c1.007,0.769 2.331,1.082 3.276,1.925c0.81,0.723 1.11,1.891 1.87,2.666c0.734,0.748 1.881,1.03 2.55,1.837c0.33,0.398 0.125,0.482 3.69,5.302c5.863,7.927 6.038,7.783 6.485,8.513c1.701,2.776 2.094,2.419 3.941,5.153c0.762,1.127 1.008,2.547 1.744,3.691c1.787,2.777 2.174,2.417 3.688,5.422c0.604,1.2 0.981,2.529 1.753,3.628c0.472,0.671 1.486,0.858 1.899,1.568c0.598,1.029 -0.247,1.363 5.311,13.898c3.271,7.378 2.746,7.537 3.051,8.164c0.277,0.57 1.036,0.838 1.244,1.436c0.63,1.812 4.215,12.129 6.255,23.143c1.738,9.387 3.994,12.142 4.332,18.999c0.513,10.405 0.78,58.992 -0.084,66.361c-1.074,9.153 -12.106,46.031 -14.973,51.67c-0.768,1.51 -1.215,1.175 -10.205,18.552c-5.112,9.882 -17.477,25.424 -19.147,27.523l-46.991,-130.906c-0.017,-0.232 0.491,-6.708 -1.08,-14.779c-0.211,-1.082 -2.622,-13.469 -2.638,-13.528c-0.533,-1.958 -1.726,-3.691 -2.304,-5.636c-3.496,-11.769 -2.83,-11.945 -3.305,-12.898c-0.295,-0.593 -1.176,-0.771 -1.422,-1.386c-1.092,-2.722 -1.572,-5.655 -2.515,-8.433c-1.846,-5.437 -3.756,-5.043 -9.053,-14.377c-4.119,-7.258 -16.469,-16.122 -17.237,-16.724c-16.734,-13.106 -18.847,-10.939 -24.673,-13.243c-0.622,-0.246 -0.814,-1.147 -1.431,-1.406c-2.71,-1.136 -5.605,-1.767 -8.388,-2.709c-5.502,-1.862 -7.445,-3.786 -28.728,-3.873c-53.109,-0.215 -57.207,-0.426 -59.51,1.904c-1.994,2.018 -1.923,15.58 -1.916,16.944c0.942,178.97 -0.301,178.95 -0.154,194.51c0.002,0.227 -0.72,9.172 9.395,9.457c48.487,1.367 57.716,-1.116 62.552,-2.417c11.873,-3.195 19.812,-1.119 45.243,-14.079c9.917,-5.054 25.69,-20.753 28.546,-26.8c2.32,-4.911 1.892,-5.009 4.784,-9.55c5.261,-8.262 4.126,-8.708 6.744,-18.142c5.838,-21.037 6.788,-20.942 7.09,-42.838l46.991,130.906Z" style="fill:url(#_Linear3);"/><path d="M3107.713,1357.441c0.109,-3.022 1.103,-30.534 2.969,-37.686c3.675,-14.087 18.358,-44.527 24.612,-55.984c3.467,-6.351 14.429,-18.272 18.555,-23.719c7.974,-10.527 8.784,-9.664 18.979,-18.192c25.395,-21.245 40.488,-24.973 74.565,-33.734c7.015,-1.803 48.382,-1.866 56.142,-0.096c21.693,4.947 21.87,3.998 23.721,4.551c13.367,3.994 13.342,3.645 14.493,3.995c12.392,3.774 11.736,5.143 24.563,12.462c23.5,13.409 29.543,22.12 34.636,27.717c3.661,4.023 8.206,5.709 22.905,29.832c11.537,18.933 17.073,35.318 18.164,38.548c1.057,3.127 7.766,22.703 8.594,28.662c2.897,20.85 1.776,48.046 1.604,52.222c-1.35,32.754 -3.974,32.963 -4.19,33.702c-3.778,12.913 -6.322,37.795 -32.112,74.161c-12.285,17.323 0.833,18.805 17.541,42.906c5.844,8.429 14.785,14.005 11.679,19.314c-1.862,3.181 -12.038,2.646 -13.105,2.589c-2.306,-0.121 -50.545,-0.007 -52.406,-0.17c-14.128,-1.234 -13.692,-12.754 -23.131,-9.926c-2.037,0.611 -19.63,11.304 -38.337,13.295c-14.426,1.535 -14.087,3.71 -28.5,3.981c-34.996,0.659 -34.821,-1.559 -38.397,-2.416c-3.272,-0.784 -19.79,-1.985 -22.95,-2.984c-29.225,-9.239 -41.355,-18.304 -44.499,-20.654c-14.151,-10.575 -22.966,-15.633 -34.422,-31.872c-7.975,-11.306 -7.494,-11.547 -14.498,-23.417c-8.684,-14.715 -10.526,-22.036 -12.718,-26.785c-5.046,-10.931 -11.785,-33.515 -11.86,-33.982c-4.234,-26.337 -2.812,-61.018 -2.595,-66.324l265.664,23.76c-0.281,-3.12 0.191,-6.277 -0.091,-9.397c-0.869,-9.637 -1.621,-9.43 -2.582,-19.103c-0.701,-7.063 -2.601,-9.389 -2.884,-10.42c-0.769,-2.811 -1.113,-5.722 -1.62,-8.592c-3.622,-20.479 -8.019,-19.339 -15.402,-32.803c-5.647,-10.298 -27.064,-25.521 -42.225,-28.469c-5.298,-1.03 -5.152,-1.186 -10.236,-2.763c-12.49,-3.875 -33.713,-1.828 -36.749,-0.944c-29.379,8.554 -37.578,12.048 -55.193,37.949c-3.494,5.138 -9.866,19.311 -11.451,27.13c-2.883,14.222 -4.73,13.874 -5.122,28.432c-1.074,39.877 1.527,48.948 2.697,53.032c1.536,5.357 3.983,19.002 8.257,27.003c10.473,19.607 22,32.554 51.466,41.411c5.61,1.686 52.237,5.092 51.452,-7.549c-0.226,-3.639 -16.266,-21.892 -21.852,-29.6c-7.879,-10.872 -13.305,-15.54 -15.321,-18.279c-14.914,-20.258 -15.007,-21.078 -15.256,-23.291c-0.813,-7.226 2.654,-5.793 9.858,-5.58c39.41,1.165 39.341,-0.125 57.011,0.356c6.948,0.189 7.353,0.57 17.116,11.599c7.36,8.314 13.164,16.662 14.759,18.504c2.39,2.76 2.768,2.272 5.308,4.884c0.642,0.661 0.579,1.969 1.403,2.382c0.656,0.328 7.116,0.187 7.487,-0.119c0.203,-0.167 5.478,-19.31 5.835,-22.595c1.813,-16.67 2.786,-16.504 3.336,-33.177l-265.664,-23.76Z" style="fill:url(#_Linear4);"/><path d="M2727.841,934.894c-0.001,-0.016 0.696,-6.749 -0.923,-14.345c-5.324,-24.973 -1.799,-89.592 -4.756,-104.36c-2.258,-11.282 -1.78,-11.304 -1.808,-42.248c-0.048,-52.417 -0.097,-52.378 -0.068,-56.933c0.054,-8.583 1.143,-8.371 3.562,-10.762c0.712,-0.704 0.942,-1.913 1.824,-2.385c1.665,-0.891 8.197,-0.939 8.914,-0.944c60.964,-0.45 61.024,-0.533 66.137,0.829c15.119,4.026 14.794,7.127 14.819,22.753c0.026,15.941 0.266,165.74 -0.107,199.259c-0.16,14.353 -2.726,14.097 -2.761,28.462c-0.069,28.564 2.696,28.401 2.621,56.931c-0.177,67.59 0.11,67.653 -0.765,70.874c-0.259,0.954 -1.291,4.752 -9.622,7.756c-7.089,2.556 -30.936,1.782 -36.88,0.917c-9.657,-1.405 -9.579,-0.18 -19.251,0.576c-32.996,2.58 -32.106,-11.737 -40.119,-21.435c-7.704,-9.324 -6.976,-9.759 -13.384,-19.962c-6.309,-10.046 -7.684,-9.005 -13.624,-19.325c-8.567,-14.883 -9.889,-13.925 -19.084,-28.405c-2.362,-3.72 -21.789,-34.312 -29.913,-46.256c-8.895,-13.079 -8.616,-13.246 -9.419,-14.36c-5.78,-8.014 -4.855,-8.514 -10.365,-16.793c-21.064,-31.649 -22.342,-37.06 -27.675,-44.809c-0.525,-0.763 -1.428,-1.218 -1.942,-1.988c-3.422,-5.132 -8.276,-21.116 -10.536,-22.612c-2.025,-1.341 -7.829,-1.99 -8.08,4.139c-0.012,0.29 0.02,0.288 2.067,9.14c1.458,6.305 1.723,7.449 3.487,80.814c0.593,24.663 2.966,25.74 3.062,42.753c0.358,63.246 -0.747,69.548 -1.79,75.499c-2.542,14.501 2.899,25.538 -21.851,23.453c-9.572,-0.806 -9.486,-0.78 -19.075,-0.016c-0.733,0.058 -15.249,0.739 -23.448,-0.408c-18.471,-2.585 -27.592,2.345 -29.795,-8.111c-0.973,-4.618 -0.116,-218.243 -0.465,-275.429c-0.073,-11.942 -2.121,-11.739 -2.188,-23.744c-0.357,-63.542 0.432,-66.25 2.038,-71.765c3.003,-10.307 7.306,-8.537 30.185,-8.549c39.464,-0.021 58.983,-2.622 65.997,9.465c0.947,1.632 1.031,1.777 12.888,19.761c8.684,13.171 8.745,13.068 9.482,14.219c30.735,47.971 30.589,48.001 33.317,52.131c22.722,34.401 21.899,34.896 23.926,37.85c8.165,11.894 7.787,12.088 7.913,12.299c0.626,1.038 18.755,26.836 28.311,42.81c2.756,4.607 16.294,21.307 28.524,47.026c0.822,1.651 1.612,0.922 2.417,2.538c0.84,1.686 0.006,1.826 0.647,3.614c1.256,3.5 2.164,3.397 5.529,1.912c6.335,-2.796 2.682,-4.887 2.03,-11.837Z" style="fill:url(#_Linear5);"/><path d="M2100.686,964.406c4.649,-16.909 10.076,-28.776 15.425,-43.988c18.404,-52.335 16.884,-52.854 19.196,-57.08c4.98,-9.105 4.841,-14.744 11.901,-32.077c4.054,-9.954 1.452,-10.882 6.865,-20.229c4.886,-8.438 3.872,-8.775 6.712,-18.058c0.867,-2.834 4.978,-12.78 5.433,-13.882c4.076,-9.861 2.911,-10.199 6.825,-20.117c1.955,-4.955 2.133,-4.809 4.099,-9.701c3.677,-9.149 1.29,-9.92 6.026,-18.565c6.417,-11.711 3.493,-18.259 14.325,-25.112c4.245,-2.686 10.555,-2.105 19.967,-2.141c73.035,-0.278 76.245,-1.934 81.291,8.432c3.37,6.922 3.056,6.981 5.04,14.409c1.989,7.444 8.251,20.524 12.339,33.773c6.081,19.708 25.942,74.274 28.282,80.703c26.93,73.986 26.536,74.117 28.89,80.545c3.2,8.738 3.772,8.407 4.24,9.675c2.608,7.073 2.243,7.123 4.884,14.142c1.088,2.89 18.411,54.172 21.326,60.73c8.511,19.149 6.19,20.001 14.272,37.931c5.279,11.711 4.57,11.906 8.864,24.071c4.04,11.444 11.369,23.191 -14.915,23.64c-66.75,1.14 -67.696,0.1 -71.202,-4.402c-5.501,-7.064 -7.412,-7.646 -9.086,-14.356c-3.415,-13.691 -16.325,-44.439 -18.117,-47.942c-4.047,-7.911 -4.543,-9.062 -15.455,-9.033c-100.505,0.266 -100.399,-0.34 -109.125,-0.06c-15.659,0.502 -13.746,16.075 -22.464,33.913c-5.465,11.182 -5.911,24.151 -13.317,34.164c-4.326,5.849 -6.412,7.493 -16.401,7.628c-63.333,0.856 -65.203,0.446 -70.731,-0.764c-0.823,-0.18 -6.078,-1.331 -6.536,-8.262c-0.129,-1.954 -0.263,-3.991 7.066,-23.433c7.165,-19.006 5.911,-19.406 13.839,-38.067c3.966,-9.336 13.431,-40.84 20.24,-56.486l164.208,-26.051c17.346,-1.424 18.173,-1.353 19.75,-1.218c2.76,0.236 3.611,1.048 4.347,-1.591c2.565,-9.198 -4.037,-12.31 -29.906,-94.831c-9.267,-29.56 -4.998,-34.984 -13.33,-34.373c-1.244,0.091 -4.755,0.349 -6.092,14.359c-0.251,2.627 0.336,3.23 -5.712,20.521c-5.122,14.643 -24.616,72.397 -25.475,75.198c-2.031,6.627 -6.946,13.162 -3.69,17.812c3.455,4.935 14.223,4.198 60.108,4.124l-164.208,26.051Z" style="fill:url(#_Linear6);"/><path d="M3991.797,1194.539c16.009,0.076 25.919,-2.127 31.135,7.486c1.342,2.473 2.04,5.256 3.324,7.759c0.334,0.65 1.231,0.929 1.483,1.615c1.003,2.727 1.415,5.638 2.21,8.433c0.328,1.154 1.094,0.878 4.91,14.173c0.331,1.154 1.265,0.809 5.135,14.096c1.082,3.716 14.542,41.104 15.058,42.269c0.28,0.634 1.254,0.757 1.553,1.382c0.494,1.031 2.826,12.085 3.049,13.141c2.515,11.922 5.318,10.829 7.71,19.464c5.014,18.104 8.351,23.278 10.109,28.263c0.488,1.383 0.763,2.85 1.395,4.173c0.273,0.572 1.07,0.812 1.274,1.412c0.954,2.813 1.358,5.785 2.139,8.651c0.383,1.404 0.73,2.836 1.351,4.152c0.273,0.579 1.063,0.829 1.282,1.431c1.008,2.783 1.521,5.722 2.34,8.566c0.402,1.396 0.715,2.833 1.324,4.153c0.267,0.578 1.036,0.841 1.255,1.439c1.019,2.774 1.552,5.703 2.407,8.532c1.531,5.064 2.601,4.612 3.863,9.805c0.364,1.5 0.59,3.031 0.919,4.539c2.423,11.122 6.377,11.388 8.318,19.249c1.925,7.798 1.816,7.745 2.237,8.616c0.287,0.594 1.204,0.744 1.437,1.361c1.047,2.771 1.5,5.731 2.319,8.578c0.397,1.38 0.7,2.807 1.328,4.098c0.296,0.609 1.103,0.871 1.388,1.486c0.061,0.131 3.726,16.36 7.3,22.508c1.586,2.727 1.82,2.576 2.693,5.619c2.134,7.443 2.05,7.453 2.534,8.511c1.324,2.894 1.553,2.69 2.526,5.674c0.451,1.384 0.747,2.838 1.417,4.13c0.317,0.61 1.177,0.821 1.474,1.441c0.282,0.588 6.591,20.867 7.156,22.683c1.592,5.118 2.785,4.57 3.948,9.691c0.684,3.013 1.185,6.065 1.806,9.092c1.902,9.266 7.174,14.775 -5.667,16.452c-12.24,1.598 -24.03,5.443 -47.322,0.906c-16.084,-3.133 -30.083,3.475 -36.391,-8.637c-3.75,-7.2 -6.628,-16.366 -7.088,-17.83c-0.879,-2.8 -12.994,-33.563 -13.067,-33.72c-5.126,-11.011 -7.796,-8.613 -19.854,-8.753c-8.333,-0.097 -96.866,-1.13 -104.173,0.562c-7.693,1.781 -7.453,6.031 -19.065,32.385c-4.727,10.73 -9.607,31.559 -18.785,34.159c-2.582,0.731 -2.528,0.386 -33.498,1.74c-2.275,0.099 -2.237,-1.042 -28.448,-0.881c-1.18,0.007 -13.333,0.082 -14.747,-0.278c-13.025,-3.315 -1.621,-18.539 31.098,-114.632c12.539,-36.827 12.993,-36.546 18.755,-52.233c3.663,-9.974 2.575,-10.272 6.806,-20.059c1.997,-4.619 14.508,-41.964 18.766,-52.271c5.732,-13.872 3.827,-14.483 9.702,-28.377c5.849,-13.831 4.033,-14.421 9.979,-28.259c1.28,-2.978 2.628,-6.115 13.716,-38.121c4.212,-12.158 4.148,-12.095 9.509,-23.781c3.271,-7.13 11.767,-5.926 14.738,-6.355c30.752,-4.439 30.82,0.172 61.928,0.312l-33.204,223.126c23.72,0.027 23.635,-1.024 47.337,-0.068c3.466,0.14 3.81,0.745 6.265,-1.738c5.014,-5.072 -1.031,-9.423 -5.696,-20.581c-2.929,-7.007 -3.296,-6.771 -5.151,-14.09c-3.785,-14.937 -13.261,-31.099 -24.755,-85.1c-0.116,-0.543 -1.236,-5.806 -3.162,-6.177c-6.244,-1.204 -6.596,0.307 -8.411,6.397c-2.679,8.984 -0.67,9.526 -10.612,37.685c-2.037,5.771 -2.749,5.468 -27.552,71.37c-2.732,7.258 -1.2,7.809 2.203,10.32c1.973,1.456 1.923,2.096 10.576,2.095c1.517,-0 1.404,-0.008 18.957,-0.112l33.204,-223.126Z" style="fill:url(#_Linear7);"/><path d="M1842.674,1194.543c69.183,-0.013 71.723,-1.244 75.458,6.701c2.245,4.777 3.062,4.32 4.377,9.386c1.928,7.429 1.757,7.41 2.379,8.622c0.31,0.605 1.245,0.725 1.539,1.337c0.321,0.669 2.886,12.281 3.193,12.928c0.286,0.603 1.231,0.703 1.517,1.306c1.181,2.488 1.124,10.809 10.369,32.868c3.145,7.503 2.603,7.626 2.907,8.257c0.278,0.576 1.1,0.794 1.317,1.395c1.008,2.798 1.481,5.761 2.292,8.623c1.448,5.107 2.444,4.688 3.879,9.807c0.418,1.491 2.688,9.587 6.339,18.293c0.249,0.594 1.086,0.816 1.311,1.419c1.382,3.701 0.647,3.938 15.879,46.759c5.045,14.183 6.077,13.743 10.271,28.202c0.404,1.394 0.714,2.831 1.327,4.146c0.269,0.579 1.054,0.832 1.271,1.432c4.055,11.245 3.018,11.53 7.252,22.738c0.421,1.115 4.068,10.77 5.433,13.876c0.263,0.598 1.143,0.791 1.367,1.405c1.014,2.789 1.462,5.752 2.273,8.607c0.396,1.394 0.712,2.832 1.348,4.134c0.286,0.586 1.09,0.812 1.358,1.407c1.114,2.477 1.018,8.92 7.099,22.732c4.293,9.751 3.673,9.912 7.473,19.807c0.859,2.238 0.153,2.441 9.789,28.328c0.67,1.8 0.4,1.881 7.616,22.763c1.078,3.119 9.371,16.218 -6.674,16.893c-3.202,0.135 -6.41,-0.036 -9.614,0.049c-6.503,0.171 -9.048,2.232 -19.048,2.412c-40.397,0.724 -49.692,-2.696 -52.429,-9.077c-5.093,-11.878 -13.636,-34.675 -14.773,-37.709c-1.885,-5.03 -2.516,-4.715 -3.968,-9.836c-4.859,-17.135 -12.572,-14.042 -33.199,-14.06c-94.721,-0.084 -96.262,-0.903 -99.84,4.38c-4.185,6.178 -2.849,6.791 -8.306,19.576c-0.94,2.202 -0.994,2.329 -10.199,28.134c-5.618,15.751 -9.991,15.471 -13.964,16.295c-8.269,1.714 -17.514,0.078 -19.381,0.119c-5.703,0.126 -5.586,0.736 -14.237,0.584c-4.342,-0.076 -10.34,-1.151 -14.102,-0.585c-1.777,0.268 -3.476,0.947 -5.252,1.219c-5.93,0.907 -24.679,-1.535 -26.861,-4.456c-4.998,-6.69 4.449,-17.347 8.427,-36.937c2.135,-10.515 5.156,-9.502 9.998,-28.331c1.871,-7.275 2.825,-6.862 4.752,-14.206c0.362,-1.38 0.577,-2.816 1.148,-4.123c0.259,-0.593 1.012,-0.866 1.288,-1.451c0.566,-1.196 3.608,-12.328 3.754,-12.652c1.048,-2.326 1.69,-2.003 2.645,-5.651c0.391,-1.494 0.591,-3.033 0.934,-4.539c1.14,-4.999 5.806,-13.117 7.697,-19.476c7.915,-26.614 11.274,-29.383 13.911,-38.077c2.187,-7.212 2.566,-6.962 4.989,-14.13c0.949,-2.808 1.318,-5.795 2.312,-8.587c0.214,-0.602 0.988,-0.867 1.26,-1.445c0.45,-0.956 -0.39,-1.204 3.668,-12.69c0.446,-1.262 1.412,-0.834 6.666,-15.349c0.51,-1.409 0.751,-2.902 1.164,-4.343c1.464,-5.111 2.368,-4.719 3.83,-9.802c0.417,-1.449 0.705,-2.931 1.089,-4.389c1.367,-5.187 2.393,-4.717 3.839,-9.777c0.813,-2.846 1.294,-5.793 2.305,-8.574c0.224,-0.616 1.05,-0.853 1.338,-1.442c1.204,-2.464 5.07,-12.728 5.49,-13.843c2.664,-7.073 2.006,-7.248 5.007,-14.195c3.965,-9.178 7.063,-22.607 7.122,-22.757c1.559,-3.991 2.081,-3.735 3.775,-9.941c1.393,-5.105 2.531,-4.573 4.024,-9.695c0.809,-2.777 1.242,-5.672 2.275,-8.374c0.307,-0.801 1.143,-0.369 4.735,-9.624c3.357,-8.649 2.777,-8.872 5.313,-11.982c5.172,-6.344 12.86,-4.797 30.462,-4.834l-2.003,166.94c-0.328,1.153 -4.044,14.205 -4.129,14.401c-0.258,0.59 -0.978,0.889 -1.251,1.472c-0.447,0.953 0.487,1.183 -3.921,12.557c-0.876,2.26 -1.609,1.802 -2.785,5.571c-1.59,5.095 -1.748,4.981 -4.426,9.612c-0.368,0.637 -3.683,6.368 -2.899,8.729c0.209,0.629 1.449,4.362 7.399,3.731c1.404,-0.149 2.684,-0.916 4.077,-1.149c5.3,-0.888 8.435,1.239 14.745,1.434c4.134,0.127 42.907,1.323 51.701,-0.64c0.63,-0.141 0.431,-1.51 1.068,-1.615c1.852,-0.304 3.759,0.852 5.606,0.52c4.53,-0.815 2.586,-5.749 2.39,-6.247c-1.233,-3.13 -2.827,-2.356 -4.528,-9.524c-3.37,-14.2 -6.472,-13.158 -9.77,-28.41c-2.371,-10.963 -6.298,-12.039 -7.931,-19.311c-5.317,-23.674 -7.584,-23.025 -12.095,-46.802c-0.217,-1.141 -2.47,-13.015 -3.613,-14.06c-0.953,-0.872 -6.949,-0.907 -7.894,-0.056c-0.621,0.559 -7.173,30.18 -7.642,31.708c-0.952,3.106 -2.097,2.677 -14.1,38.081l2.003,-166.94Z" style="fill:url(#_Linear8);"/><path d="M2559.046,1194.526c2.29,0.004 26.415,0.041 28.624,0.256c10.027,0.976 9.362,5.604 11.203,10.115c1.384,3.392 5.698,9.654 7.202,15.111c1.79,6.495 2.467,6.2 3.742,9.934c1.442,4.223 1.35,4.222 6.866,23.004c3.543,12.063 7.842,20.128 8.876,23.856c0.767,2.766 14.727,42.469 14.732,42.479c6.273,14.807 9.044,26.098 9.838,28.368c0.28,0.8 1.944,3.137 3.803,9.83c1.803,6.487 8.695,25.076 9.617,28.433c2.34,8.524 27.065,76.363 28.113,80.729c4.046,16.853 6.111,16.144 10.698,32.938c2.964,10.85 6.565,14.926 8.759,23.889c6.236,25.474 11.124,27.867 8.168,32.573c-1.694,2.696 -12.079,2.645 -13.152,2.64c-13.973,-0.068 -13.897,0.269 -23.982,1.665c-9.265,1.283 -9.138,-1.677 -23.487,-1.755c-3.17,-0.017 -6.34,0.021 -9.51,-0.009c-11.562,-0.11 -14.39,-0.403 -22.596,-21.241c-0.879,-2.232 -9.539,-24.223 -10.596,-28.044c-0.437,-1.578 -4.02,-14.524 -9.94,-17.897c-1.596,-0.909 -8.299,-0.952 -9.025,-0.957c-8.349,-0.054 -78.78,-0.507 -104.368,-0.035c-8.692,0.16 -8.466,2.26 -10.178,3.932c-2.476,2.419 -2.771,2.153 -4.306,5.315c-0.611,1.258 -1.078,2.585 -1.733,3.821c-6.488,12.249 -4.766,12.862 -9.893,25.795c-0.695,1.752 -7.443,18.773 -9.031,21.763c-4.489,8.452 -14.218,10.834 -50.255,10.133c-11.669,-0.227 -11.379,-2.242 -19.058,-2.451c-3.203,-0.087 -6.412,0.088 -9.613,-0.057c-1.18,-0.054 -12.405,0.353 -8.535,-11.171c0.381,-1.134 3.542,-10.547 4.89,-14.133c3.741,-9.948 2.779,-10.192 6.543,-20.15c6.465,-17.104 6.041,-17.202 12.119,-32.128c4.336,-10.649 3.221,-10.942 4.268,-14.457c0.298,-1 7.297,-17.259 8.745,-23.885c2.587,-11.838 7.39,-18.657 9.512,-28.454c0.332,-1.533 1.208,-5.577 5.784,-18.74c12.234,-35.194 12.402,-35.116 13.316,-38.222c0.776,-2.638 4.85,-16.479 11.336,-32.448c6.455,-15.892 6.705,-15.777 7.606,-19.694c3.005,-13.061 7.323,-18.311 9.865,-28.379c3.14,-12.435 5.159,-11.689 8.755,-23.99c4.934,-16.878 9.373,-27.001 9.785,-28.365c2.178,-7.212 2.228,-7.14 5.5,-13.929c2.348,-4.872 1.985,-4.907 4.129,-9.793c3.2,-7.292 5.623,-6.11 66.861,-6.191l16.194,181.189c-4.234,-11.304 -4.591,-11.101 -7.622,-22.779c-2.18,-8.399 -6.424,-17.681 -7.616,-24.217c-3,-16.443 -4.219,-16.089 -7.144,-32.58c-0.144,-0.811 -1.687,-9.512 -8.521,-5.777c-1.211,0.662 -4.101,11.779 -7.478,24.839c-8.636,33.399 -11.932,35.01 -23.46,66.652c-7.597,20.852 -6.427,21.239 -7.28,22.968c-0.912,1.847 -2.932,3.014 -3.772,4.894c-0.242,0.541 -2.381,5.327 1.207,7.307c0.636,0.351 21.735,0.877 27.032,0.896c39.588,0.146 39.422,-2.383 42.851,-2.221c4.695,0.221 4.407,1.502 9.075,1.899c8.783,0.748 5.585,-7.283 5.301,-7.996c-0.757,-1.901 -2.69,-3.13 -3.638,-4.943c-2.117,-4.047 -0.668,-4.501 -2.747,-8.664c-0.287,-0.575 -1.061,-0.813 -1.331,-1.396c-0.419,-0.906 -4.481,-17.368 -4.854,-18.883l-16.194,-181.189Z" style="fill:url(#_Linear9);"/><path d="M3055.381,1484.723c-15.293,30.319 -15.649,30.438 -40.8,53.14c-10.64,9.604 -11.769,7.73 -18.166,11.281c-0.611,0.339 -0.817,1.24 -1.467,1.5c-4.648,1.859 -24.893,7.82 -27.069,8.461c-9.597,2.826 -9.665,1.987 -19.665,3.328c-8.509,1.14 -8.141,3.185 -19.125,3.501c-34.52,0.995 -43.218,-0.908 -46.884,-1.71c-16.174,-3.538 -39.883,-1.645 -80.047,-28.356c-1.314,-0.874 -8.132,-5.408 -15.356,-12.378c-15.782,-15.225 -16.107,-15.025 -27.635,-33.681c-6.598,-10.677 -18.56,-44.22 -19.212,-47.03c-0.439,-1.892 0.718,-2.03 -4.212,-23.911c-1.994,-8.848 -3.865,-64.714 1.089,-84.361c3.714,-14.728 1.161,-15.356 6.963,-29.328c8.285,-19.949 24.22,-66.576 75.471,-96.131c31.88,-18.385 55.002,-18.732 57.213,-19.305c11.56,-2.998 11.638,-3.107 47.872,-2.858c17.202,0.118 17.578,2.367 23.903,3.445c8.323,1.419 8.565,0.339 27.976,6.664c1.606,0.523 1.491,0.764 19.45,8.211c8.167,3.387 18.684,11.674 20.189,12.859c5.438,4.285 4.988,4.629 10.098,9.296c1.659,1.515 3.659,2.631 5.294,4.173c0.831,0.784 1.242,1.939 2.047,2.75c1.201,1.211 4.902,3.334 10.388,13.683c5.396,10.18 6.133,9.759 9.192,19.234c3.327,10.304 10.281,27.445 10.672,42.778c0.372,14.561 -6.085,11.206 -20.6,11.212c-57.088,0.026 -58.906,0.604 -62.502,-5.896c-6.552,-11.845 -7.786,-30.481 -41.412,-44.266c-5.946,-2.438 -8.328,-4.923 -38.42,-3.887c-15.183,0.523 -17.052,3.002 -19.405,3.822c-7.158,2.498 -7.276,2.038 -13.793,5.871c-7.653,4.502 -24.942,23.042 -28.224,28.627c-7.528,12.81 -10.162,25.772 -10.642,28.129c-1.75,8.611 -3.76,8.208 -4.037,19.138c-0.254,10.029 -0.495,53.708 0.552,61.632c0.622,4.709 9.646,31.753 14.178,37.781c0.479,0.638 0.541,0.425 6.911,7.19c0.404,0.429 9.161,12.366 20.861,17.516c16.827,7.406 16.784,9.22 47.839,9.011c29.857,-0.201 32.098,-1.854 47.657,-14.305c10.981,-8.787 14.816,-30.784 23.66,-32.746c2.139,-0.474 63.892,-1.387 70.689,0.278c1.172,0.287 8.265,2.025 7.801,12.916c-0.201,4.709 -2.133,13.501 -2.388,14.661c-0.332,1.511 -1.288,5.859 -6.902,18.059Z" style="fill:url(#_Linear10);"/><path d="M3730.867,1194.527c50.948,-0.069 55.365,-1.25 56.812,6.418c0.747,3.961 0.242,174.565 0.197,189.745c-0.07,23.604 1.549,23.66 -1.855,47.036c-2.842,19.519 0.06,20.197 -7.585,38.413c-2.869,6.835 -6.747,25.888 -28.357,47.624c-1.135,1.141 -11.914,11.983 -14.692,13.738c-2.799,1.769 -2.423,2.165 -5.133,4.04c-4.736,3.277 -22.908,10.098 -26.889,12.443c-2.744,1.616 -2.582,1.89 -5.75,2.53c-1.528,0.308 -3.09,0.426 -4.625,0.696c-8.59,1.507 -8.074,3.861 -19.052,4.376c-16.508,0.773 -64.899,1.392 -75.621,-1.039c-50.398,-11.428 -68.542,-37.904 -71.756,-41.499c-9.31,-10.416 -8.311,-11.084 -15.537,-23.083c-5.547,-9.212 -3.632,-9.912 -7.118,-20.134c-7.413,-21.736 -5.826,-22.268 -5.862,-137.327c-0.018,-56.703 0.213,-56.647 0.101,-99.628c-0.096,-37.184 -2.356,-42.939 9.538,-44.199c2.34,-0.248 61.941,-0.087 62.014,-0.082c13.837,0.882 10.335,7.365 10.253,34.795c-0.035,31.627 -0.07,63.254 -0.105,94.881c-0.104,73.866 -0.926,89.978 1.436,99.056c2.492,9.58 1.195,9.732 2.792,19.504c1.177,7.202 5.963,12.495 9.486,18.844c8.161,14.708 29.883,18.903 32.886,19.483c8.267,1.597 21.834,7.663 47.785,-4.469c22.616,-10.573 26.532,-34.594 30.218,-52.216c2.321,-11.095 1.168,-11.224 1.287,-199.835c0.013,-20.391 -2.454,-29.622 10.776,-30.122c1.148,-0.043 1.063,0.001 14.356,0.011Z" style="fill:url(#_Linear11);"/><path d="M3281.963,1049.107c-0.054,26.841 1.542,39.338 -7.072,41.481c-7.109,1.769 -10.182,0.2 -151.284,1.101c-55.178,0.352 -55.085,-1.506 -56.534,-1.714c-13.106,-1.888 -13.148,-0.043 -14.242,-0.365c-0.715,-0.211 -4.906,-1.447 -6.037,-7.094c-0.749,-3.742 0.038,-29.311 -0.756,-37.935c-0.292,-3.172 -0.908,-6.322 -0.972,-9.508c-0.033,-1.655 0.625,-3.265 0.683,-4.92c0.098,-2.78 -3.246,-13.753 -1.278,-23.298c2.004,-9.716 1.962,-9.717 1.96,-33.655c-0.01,-123.934 0.213,-123.947 -0.878,-132.619c-0.914,-7.264 0.266,-7.188 0.812,-14.511c0.007,-0.097 0.245,-77.165 -0.053,-85.269c-0.895,-24.389 -0.355,-35.11 6.611,-37.051c6.193,-1.725 6.274,-0.63 61.194,-0.982c10.148,-0.065 10.6,-0.984 19.196,4.517c5.934,3.798 4.614,5.564 4.673,90.377c0.079,114.238 -0.209,114.303 -1.942,122.884c-0.984,4.872 -1.433,7.094 -0.973,62.122c0.073,8.741 1.14,9.521 1.917,14.448c0.48,3.042 0.234,6.243 1.232,9.157c0.341,0.995 1.772,1.151 2.543,1.866c2.757,2.557 2.766,2.782 6.568,2.918c9.482,0.339 9.449,-1.031 118.6,-0.035c2.556,0.023 11.815,-0.432 14.227,4.877c2.273,5.002 1.8,12.424 1.802,33.207Z" style="fill:url(#_Linear12);"/><path d="M2151.041,1194.542c17.696,0.032 17.585,-0.035 19.112,0.034c16.863,0.769 8.72,10.107 10.584,77.451c0.218,7.871 2.761,7.599 2.774,23.777c0.054,65.527 1.073,65.517 0.34,71.163c-0.223,1.72 -1.747,3.08 -2.025,4.792c-0.52,3.21 -0.14,6.504 -0.333,9.75c-0.13,2.186 -0.851,4.546 -0.978,13.935c-0.082,6.067 -0.739,54.559 0.053,75.841c0.198,5.329 -0.411,6.024 3.985,9.019c2.307,1.572 2.558,0.73 18.679,0.795c10.017,0.04 13.519,2.241 14.44,2.339c1.297,0.137 1.276,-0.032 9.547,-1.568c12.005,-2.229 15.693,1.796 23.527,2.033c36.024,1.088 36.847,-3.1 57.078,-0.323c5.63,0.773 21.985,-1.919 24.471,6.395c1.492,4.991 0.799,52.729 0.732,57.314c-0.207,14.225 -6.46,10.271 -20.602,11.441c-7.291,0.603 -7.071,1.517 -14.359,2.053c-4.497,0.331 -101.716,0.532 -156.51,0.471c-14.33,-0.016 -14.07,-2.17 -23.787,-2.551c-7.206,-0.283 -7.133,0.283 -14.344,-0.083c-11.487,-0.583 -10.355,-7.982 -10.355,-16.118c0.009,-226.79 -0.282,-338.403 0.603,-341.705c2.018,-7.532 6.062,-6.242 57.368,-6.257Z" style="fill:url(#_Linear13);"/><path d="M2973.26,721.747c-0.42,101.381 0.165,357.261 -0.543,360.779c-1.555,7.725 -2.665,8.117 -10.458,8.924c-2.014,0.209 -63.037,0.34 -66.332,-0.013c-3.331,-0.357 -3.276,-0.465 -6.01,-2.3c-1.136,-0.763 -2.602,-1.063 -3.565,-2.035c-5.673,-5.724 -4.396,-11.997 -4.594,-61.717c-0.01,-2.403 -0.4,-311.471 -0.202,-313.134c0.546,-4.587 3.969,-8.993 9.554,-9.665c0.967,-0.116 63.486,0.264 66.417,0.545c18.214,1.746 15.404,12.042 15.733,18.616Z" style="fill:url(#_Linear14);"/><path d="M2229.824,1715.301c2.758,2.697 2.665,2.73 11.375,12.213c0.811,0.883 2.258,0.093 5.39,9.271c5.432,15.916 22.424,48.114 -6.835,89.446c-8.178,11.553 -11.98,12.028 -16.523,16.303c-2.523,2.374 -2.615,2.156 -5.426,4.205c-0.64,0.466 -0.839,1.491 -1.579,1.774c-0.783,0.299 -1.711,-0.478 -2.506,-0.212c-0.66,0.222 -0.788,1.245 -1.424,1.53c-4.064,1.825 -40.338,5.889 -55.562,-0.974c-1.182,-0.533 -14.707,-7.349 -19.948,-12.187c-0.822,-0.758 -1.28,-1.854 -2.094,-2.62c-1.588,-1.493 -3.679,-2.45 -5.077,-4.123c-3.163,-3.783 -16.241,-27.368 -17.25,-45.441c-0.191,-3.422 -1.198,-21.458 6.334,-42.371c3.897,-10.821 20.653,-32.625 41.74,-38.653c6.968,-1.992 13.866,-5.729 33.302,-4.355c17.627,1.246 33.543,14.443 36.083,16.193l-75.556,99.118c3.268,2.649 2.299,4.942 19.642,10.193c27.003,8.177 44.516,-14.899 48.681,-25.757c0.954,-2.487 5.084,-13.253 2.879,-33.175c-0.918,-8.291 -8.583,-25.83 -18.403,-31.891c-12.118,-7.48 -34.574,-8.919 -45.99,-0.779c-26.644,18.997 -21.055,60.959 -12.882,74.08c0.403,0.646 0.45,0.543 6.073,7.329l75.556,-99.118Z" style="fill:#00ff95;"/><path d="M2723.382,1774.973c-0.002,-14.234 -0.003,-28.469 -0.005,-42.703c-0.018,-24.484 -1.012,-24.655 0.957,-29.003c1.978,-4.369 3.346,-4.433 52.946,-4.079c19.827,0.142 35.667,7.391 42.957,13.8c14.676,12.902 13.573,13.903 20.432,28.044c8.65,17.833 5.395,56.445 1.106,66.271c-0.92,2.109 -8.731,16.548 -9.85,17.907c-0.937,1.138 -21.171,19.454 -30.892,21.118c-3.073,0.526 -6.208,0.633 -9.277,1.176c-8.385,1.482 -11.37,5.231 -33.36,2.717c-9.705,-1.109 -19.04,2.629 -28.204,-0.137c-8.025,-2.422 -6.783,-5.573 -6.81,-75.112l94.769,-0.006c-0.517,-4.479 -1.344,-36.729 -27.236,-45.648c-4.848,-1.67 -30.245,-1.606 -32.525,-1.24c-9.886,1.586 -7.626,16.544 -7.628,23.167c-0.018,55.501 -0.556,62.3 1.907,67.074c2.628,5.094 41.089,6.646 53.28,-9.952c3.497,-4.761 6.769,-8.692 7.386,-10.463c3.891,-11.164 3.475,-11.241 4.817,-22.938l-94.769,0.006Z" style="fill:#00ff95;"/><path d="M2385.151,1835.303c-3.631,-4.351 -9.547,-13.54 -9.739,-13.808c-11.288,-15.724 -10.727,-16.089 -11.742,-17.43c-1.1,-1.453 -13.213,-17.451 -21.134,-8.512c-2.645,2.986 -1.574,19.872 -1.531,41.091c0.004,2.096 1.769,15.745 -14.437,14.382c-11.233,-0.944 -13.405,-8.615 -14.035,-14.403c-0.265,-2.435 -0.249,-99.628 -0.201,-118.585c0.029,-11.776 -0.421,-18.996 14.245,-19.136c50.686,-0.484 52.276,-0.045 56.645,1.16c12.308,3.396 12.489,2.883 23.561,9.15c6.069,3.435 9.764,14.11 11.515,17.644c8.094,16.341 2.323,40.247 -8.063,51.189c-11.123,11.718 -27.804,9.64 -19.246,21.695c7.947,11.195 7.613,11.373 14.4,19.517c4.624,5.548 4.353,5.65 8.118,11.73c2.357,3.808 8.352,8.562 7.411,14.972c-0.221,1.508 -1.084,7.386 -18.42,4.852c-8.664,-1.267 -7.834,-3.155 -13.146,-10.186c-2.048,-2.711 -2.052,-2.601 -4.2,-5.322l0.382,-100.264c-0.583,-0.453 -3.231,-5.43 -11.645,-6.594c-4.4,-0.609 -17.33,-0.546 -18.838,-0.539c-5.966,0.029 -6.646,-1.377 -10.957,2.811c-0.724,0.703 -1.886,1.029 -2.328,1.937c-1.219,2.507 -0.656,22.651 -0.616,23.309c0.219,3.588 0.289,3.688 2.962,6.186c0.699,0.653 1.06,1.735 1.936,2.119c2.419,1.059 26.258,0.691 27.862,0.369c14.928,-2.987 21.058,-17.335 13.977,-27.363c-0.624,-0.884 -1.729,-1.352 -2.354,-2.235l-0.382,100.264Z" style="fill:#00ff95;"/><path d="M3541.933,1766.988c-0.316,0.279 -3.948,3.482 -3.948,3.482c-0.54,5.268 0.493,5.232 0.257,66.192c-0.042,10.781 0.093,15.599 -16.151,14.834c-13.363,-0.629 -11.4,-6.798 -11.412,-43.318c-0.007,-21.591 1.813,-21.692 -1.918,-42.916c-1.072,-6.099 -2.199,-53.451 1.481,-60.116c0.414,-0.749 1.305,-1.114 1.879,-1.749c2.664,-2.95 2.957,-4.707 14.746,-4.417c20.669,0.508 19.275,9.769 30.744,26.94c10.273,15.382 9.468,15.825 19.789,31.095c4.105,6.073 4.109,6.001 7.915,12.33c3.384,5.625 4.404,4.888 7.439,10.707c1.587,3.043 1.875,2.802 3.402,5.926c4.11,8.41 2.391,10.588 7.06,10.99c4.103,0.353 3.799,-7.183 3.771,-7.882c-0.244,-6.063 -1.669,-41.395 -0.93,-75.846c0.279,-12.995 2.672,-14.816 15.694,-14.213c10.994,0.509 11.274,3.257 11.368,14.212c0.088,10.267 0.952,110.921 -0.083,128.34c-0.621,10.444 -7.284,9.916 -16.033,9.701c-12.298,-0.302 -13.69,-2.478 -19.645,-9.336c-4.708,-5.422 -7.665,-11.716 -13.934,-19.235c-4.635,-5.559 -18.695,-27.688 -19.187,-28.333c-5.228,-6.852 -4.211,-7.46 -9.378,-14.32c-5.197,-6.9 -4.452,-7.305 -8.987,-14.618c-1.313,0.517 -2.626,1.033 -3.94,1.55Z" style="fill:#00ff95;"/><path d="M3453.371,1784.189c-1.35,7.491 1.343,8.405 -11.374,33.769c-23.141,46.157 -81.488,38.346 -100.63,24.099c-6.289,-4.681 -8.433,-3.51 -17.087,-15.812c-10.495,-14.918 -9.283,-15.593 -14.966,-37.224c-1.26,-4.794 -1.73,-16.291 -0.071,-23.379c6.393,-27.314 8.252,-26.693 16.785,-39.141c12.935,-18.87 22.926,-20.87 33.909,-24.989c2.224,-0.834 7.074,-4.525 34.102,-2.69c4.674,0.317 17.972,3.154 24.883,7.594c0.715,0.46 0.79,0.178 9.12,5.454c12.825,8.125 12.599,11.117 14.926,14.867c1.753,2.825 8.578,10.534 -11.1,19.552c-13.834,6.34 -12.335,-3.232 -23.502,-9.444c-3.318,-1.846 -26.269,-17.301 -48.89,-2.039c-11.345,7.654 -24.901,20.272 -20.776,54.154c0.465,3.823 6.304,25.962 22.071,33.535c2.398,1.152 14.553,6.99 33.047,3.652c10.258,-1.851 25.527,-17.209 23.435,-27.255c-1.169,-5.613 -3.302,-3.454 -9.07,-3.568c-30.486,-0.603 -32.445,-0.384 -34.294,-5.637c-0.027,-0.077 -4.014,-17.361 5.706,-20.132c4.765,-1.358 4.867,-0.945 61.929,-0.581c16.052,0.102 11.632,10.542 11.848,15.214Z" style="fill:#00ff95;"/><path d="M1982.631,1827.131c-0.561,18.601 1.731,27.139 -16.678,24.166c-11.231,-1.814 -10.187,-13.549 -10.218,-14.624c-0.411,-13.961 0.316,-44.202 0.078,-118.636c-0.07,-21.967 9.155,-19.034 48.162,-19.047c24.021,-0.008 35.624,0.337 52.38,18.876c21.959,24.296 8.205,74.155 -33.346,77.07c-7.171,0.503 -31.476,0.12 -32.814,0.724c-7.902,3.563 -4.326,6.177 -6.051,17.069c-1.145,7.233 -1.053,7.166 -1.513,14.402l52.53,-75.973c-2.953,-13.332 -1.877,-23.931 -40.601,-22.554c-11.665,0.415 -9.598,11.186 -9.657,17.901c-0.084,9.467 -3.527,18.906 1.446,21.443c2.309,1.178 16.209,1.158 17.622,1.156c29.167,-0.041 29.56,-13.944 31.191,-17.946l-52.53,75.973Z" style="fill:#00ff95;"/><path d="M1901.264,1808.22c-1.067,12.389 -0.753,12.591 -6.696,23.495c-1.475,2.706 -8.715,15.992 -32.675,20.41c-1.747,0.322 -25.698,2.394 -38.089,-1.548c-19.212,-6.112 -25.751,-17.192 -27.109,-19.493c-6.899,-11.688 3.277,-15.462 7.613,-18.753c11.523,-8.746 13.055,0.943 19.511,5.19c2.765,1.819 24.31,15.99 41.246,3.163c6.8,-5.15 6.711,-19.869 -4.275,-24.788c-14.715,-6.589 -34.144,-2.932 -53.185,-18.752c-4.072,-3.383 -4.703,-2.747 -7.211,-7.197c-5.191,-9.211 -15.811,-29.834 3.148,-52.802c1.239,-1.501 8.564,-10.375 20.028,-13.799c0.725,-0.216 15.484,-6.629 33.33,-4.234c1.545,0.207 3.584,0.481 18.747,5.317c7.088,2.26 17.832,10.159 18.843,13.779c2.161,7.733 -4.438,11.203 -8.063,15.132c-0.511,0.554 -6.153,6.67 -6.524,6.802c-3.687,1.315 -6.479,-5.831 -17.378,-9.916c-1.843,-0.691 -10.999,-4.123 -24.515,-2.147c-11.863,1.735 -25.466,19.957 3.825,30.027c12.862,4.422 47.713,5.361 57.747,35.848c2.275,6.911 1.346,6.998 1.683,14.266Z" style="fill:#00ff95;"/><path d="M3060.247,1746.543c0.4,-11.648 -0.334,-15.882 5.878,-24.149c7.328,-9.752 10.075,-14.971 29.772,-21.291c27.5,-8.824 56.576,6.654 60.854,12.257c5.748,7.528 8.595,9.252 1.663,15.655c-10.992,10.154 -10.535,10.736 -11.747,11.202c-2.75,1.058 -2.752,0.148 -4.828,-1.942c-10.961,-11.035 -12.142,-9.69 -27.602,-11.544c-18.832,-2.257 -25.276,11.975 -22.729,19.368c1.043,3.029 6.329,6.809 6.986,7.278c14.626,10.46 23.499,3.657 48.639,17.17c30.072,16.164 28.507,75.621 -18.613,81.529c-37.025,4.642 -54.244,-9.539 -56.855,-11.038c-5.125,-2.942 -13.384,-16.903 -13.439,-18.799c-0.178,-6.188 17.054,-16.042 21.871,-12.813c0.263,0.176 8.136,11.154 20.513,15.512c4.88,1.718 22.136,2.781 31.173,-4.19c6.666,-5.142 4.967,-15.352 4.396,-16.718c-1.254,-2.998 -4.699,-11.232 -36.615,-17.578c-39.564,-7.866 -38.528,-29.743 -39.317,-39.91Z" style="fill:#00ff95;"/><path d="M2908.451,1793.944c-0.011,-6.46 -0.126,-75.861 0.04,-80.754c0.539,-15.909 12.613,-14.239 20.604,-14.149c38.443,0.43 59.84,-0.771 66.005,1.007c9.581,2.763 7.348,23.326 4.029,26.281c-5.141,4.578 -55.148,-0.007 -59.844,2.476c-1.27,0.672 -5.181,2.739 -3.72,17.573c1.429,14.518 5.452,13.184 12.506,13.061c3.059,-0.053 35.123,-0.611 38.243,0.166c9.98,2.485 6.278,22.472 4.185,24.595c-5.046,5.12 -46.107,-0.784 -51.943,4.97c-3.759,3.706 -2.004,4.427 -1.917,9.729c0.15,9.173 -8.076,22.165 11.438,22.378c19.036,0.208 18.977,1.212 37.953,0.106c1.376,-0.08 13.625,-0.794 16.973,2.951c0.875,0.979 7.234,18.336 -3.699,24.668c-4.58,2.652 -16.282,0.487 -17.672,0.23c-11.009,-2.037 -15.853,0.877 -24.079,1.53c-2.792,0.222 -36.563,0.398 -37.96,0.249c-13.074,-1.396 -11.25,-6.861 -11.141,-57.068Z" style="fill:#00ff95;"/><path d="M2537.241,1779.717c-0.005,38.903 0.029,38.843 0.004,47.449c-0.003,1.143 -0.03,10.13 0.269,14.282c0.532,7.39 -0.545,10.456 -16.433,9.666c-10.877,-0.541 -10.713,-3.582 -10.755,-14.45c-0.395,-101.638 1.09,-102.444 -2.025,-105.739c-6.567,-6.949 -31.879,2.361 -35.423,-7.821c-0.061,-0.175 -4.008,-20.119 5.987,-22.968c6.949,-1.981 25.917,-0.809 80.183,-0.906c10.417,-0.019 19.515,-0.876 19.727,14.048c0.183,12.852 -2.184,14.409 -14.968,14.734c-7.414,0.189 -22.543,-0.951 -24.789,3.503c-2.177,4.319 -1.753,6.063 -1.777,48.204Z" style="fill:#00ff95;"/><path d="M3249.333,1784.475c0.464,10.155 0.45,17.293 0.447,18.797c-0.026,13.299 10.701,46.025 -12.308,47.675c-15.096,1.082 -14.447,-9.98 -14.529,-14.295c-0.077,-4.049 -0.111,-125.335 0.297,-128.101c2.207,-14.969 27.999,-11.854 28.334,4.748c0.058,2.875 -3.744,8.676 -2.24,71.177Z" style="fill:#00ff95;"/><path d="M2970.986,1812.21c0.244,-0.18 0.567,-4.078 5.55,-4.107c0.552,-0.003 8.604,-0.051 5.653,3.965c-2.028,2.76 -5.148,2.8 -5.652,2.806c-3.273,0.042 -2.34,-2.705 -5.551,-2.664Z" style="fill:none;"/></g><defs><linearGradient id="_Linear1" x1="0" y1="0" x2="1" y2="0" gradientUnits="userSpaceOnUse" gradientTransform="matrix(-1209.772648,0,-0,-1209.772648,1361.134477,1293.43213)"><stop offset="0" style="stop-color:#14e086;stop-opacity:1"/><stop offset="0.44" style="stop-color:#1de7a9;stop-opacity:1"/><stop offset="1" style="stop-color:#32f7fb;stop-opacity:1"/></linearGradient><linearGradient id="_Linear2" x1="0" y1="0" x2="1" y2="0" gradientUnits="userSpaceOnUse" gradientTransform="matrix(-2387.952312,-4.271021,4.271021,-2387.952312,4147.600131,1096.204366)"><stop offset="0" style="stop-color:#19fd9e;stop-opacity:1"/><stop offset="1" style="stop-color:#0fffdf;stop-opacity:1"/></linearGradient><linearGradient id="_Linear3" x1="0" y1="0" x2="1" y2="0" gradientUnits="userSpaceOnUse" gradientTransform="matrix(-2387.952312,-4.271021,4.271021,-2387.952312,4147.600131,1096.204366)"><stop offset="0" style="stop-color:#19fd9e;stop-opacity:1"/><stop offset="1" style="stop-color:#0fffdf;stop-opacity:1"/></linearGradient><linearGradient id="_Linear4" x1="0" y1="0" x2="1" y2="0" gradientUnits="userSpaceOnUse" gradientTransform="matrix(-2387.952312,-4.271021,4.271021,-2387.952312,4147.600131,1096.204366)"><stop offset="0" style="stop-color:#19fd9e;stop-opacity:1"/><stop offset="1" style="stop-color:#0fffdf;stop-opacity:1"/></linearGradient><linearGradient id="_Linear5" x1="0" y1="0" x2="1" y2="0" gradientUnits="userSpaceOnUse" gradientTransform="matrix(-2387.952312,-4.271021,4.271021,-2387.952312,4147.600131,1096.204366)"><stop offset="0" style="stop-color:#19fd9e;stop-opacity:1"/><stop offset="1" style="stop-color:#0fffdf;stop-opacity:1"/></linearGradient><linearGradient id="_Linear6" x1="0" y1="0" x2="1" y2="0" gradientUnits="userSpaceOnUse" gradientTransform="matrix(-2387.952312,-4.271021,4.271021,-2387.952312,4147.600131,1096.204366)"><stop offset="0" style="stop-color:#19fd9e;stop-opacity:1"/><stop offset="1" style="stop-color:#0fffdf;stop-opacity:1"/></linearGradient><linearGradient id="_Linear7" x1="0" y1="0" x2="1" y2="0" gradientUnits="userSpaceOnUse" gradientTransform="matrix(-2387.952312,-4.271021,4.271021,-2387.952312,4147.600131,1096.204366)"><stop offset="0" style="stop-color:#19fd9e;stop-opacity:1"/><stop offset="1" style="stop-color:#0fffdf;stop-opacity:1"/></linearGradient><linearGradient id="_Linear8" x1="0" y1="0" x2="1" y2="0" gradientUnits="userSpaceOnUse" gradientTransform="matrix(-2387.952312,-4.271021,4.271021,-2387.952312,4147.600131,1096.204366)"><stop offset="0" style="stop-color:#19fd9e;stop-opacity:1"/><stop offset="1" style="stop-color:#0fffdf;stop-opacity:1"/></linearGradient><linearGradient id="_Linear9" x1="0" y1="0" x2="1" y2="0" gradientUnits="userSpaceOnUse" gradientTransform="matrix(-2387.952312,-4.271021,4.271021,-2387.952312,4147.600131,1096.204366)"><stop offset="0" style="stop-color:#19fd9e;stop-opacity:1"/><stop offset="1" style="stop-color:#0fffdf;stop-opacity:1"/></linearGradient><linearGradient id="_Linear10" x1="0" y1="0" x2="1" y2="0" gradientUnits="userSpaceOnUse" gradientTransform="matrix(-2387.952312,-4.271021,4.271021,-2387.952312,4147.600131,1096.204366)"><stop offset="0" style="stop-color:#19fd9e;stop-opacity:1"/><stop offset="1" style="stop-color:#0fffdf;stop-opacity:1"/></linearGradient><linearGradient id="_Linear11" x1="0" y1="0" x2="1" y2="0" gradientUnits="userSpaceOnUse" gradientTransform="matrix(-2387.952312,-4.271021,4.271021,-2387.952312,4147.600131,1096.204366)"><stop offset="0" style="stop-color:#19fd9e;stop-opacity:1"/><stop offset="1" style="stop-color:#0fffdf;stop-opacity:1"/></linearGradient><linearGradient id="_Linear12" x1="0" y1="0" x2="1" y2="0" gradientUnits="userSpaceOnUse" gradientTransform="matrix(-2387.952312,-4.271021,4.271021,-2387.952312,4147.600131,1096.204366)"><stop offset="0" style="stop-color:#19fd9e;stop-opacity:1"/><stop offset="1" style="stop-color:#0fffdf;stop-opacity:1"/></linearGradient><linearGradient id="_Linear13" x1="0" y1="0" x2="1" y2="0" gradientUnits="userSpaceOnUse" gradientTransform="matrix(-2387.952312,-4.271021,4.271021,-2387.952312,4147.600131,1096.204366)"><stop offset="0" style="stop-color:#19fd9e;stop-opacity:1"/><stop offset="1" style="stop-color:#0fffdf;stop-opacity:1"/></linearGradient><linearGradient id="_Linear14" x1="0" y1="0" x2="1" y2="0" gradientUnits="userSpaceOnUse" gradientTransform="matrix(-2387.952312,-4.271021,4.271021,-2387.952312,4147.600131,1096.204366)"><stop offset="0" style="stop-color:#19fd9e;stop-opacity:1"/><stop offset="1" style="stop-color:#0fffdf;stop-opacity:1"/></linearGradient></defs></svg>