<?xml version="1.0" encoding="UTF-8" standalone="no"?><!DOCTYPE svg PUBLIC "-//W3C//DTD SVG 1.1//EN" "http://www.w3.org/Graphics/SVG/1.1/DTD/svg11.dtd"><svg width="100%" height="100%" viewBox="0 0 2481 3508" version="1.1" xmlns="http://www.w3.org/2000/svg" xmlns:xlink="http://www.w3.org/1999/xlink" xml:space="preserve" xmlns:serif="http://www.serif.com/" style="fill-rule:evenodd;clip-rule:evenodd;stroke-linejoin:round;stroke-miterlimit:2;"><g id="ChatGPT-Image-9-dic-2025--02_13_22.png" serif:id="ChatGPT Image 9 dic 2025, 02_13_22.png"><path d="M661.146,2370.499c0.137,-2.804 -0.292,-3.015 0.579,-3.737c0.972,-0.806 1.196,-0.385 122.775,-0.409c48.269,-0.009 48.286,0.062 48.968,0.254c0.921,0.26 0.881,0.455 3.048,0.538c0.479,0.018 3.879,0.148 5.987,0.267c2.043,0.115 2.832,0.678 3.1,0.765c0.91,0.296 0.934,0.149 1.858,0.445c4.272,1.367 4.477,0.432 5.948,1.105c0.13,0.059 0.133,0.29 0.269,0.333c0.184,0.058 0.39,-0.125 0.575,-0.069c0.263,0.08 0.14,0.535 3.27,1.426c1.529,0.435 1.465,0.554 2.917,1.208c2.665,1.199 2.727,0.979 2.95,1.097c0.758,0.402 0.564,0.76 3.142,1.688c0.751,0.271 0.683,0.37 1.212,0.71c1.625,1.043 2.459,1.415 2.684,1.516c1.694,0.758 2.059,1.292 2.33,1.503c0.214,0.166 0.469,0.27 0.699,0.413c0.478,0.297 1.73,1.43 2.18,1.721c1.537,0.992 1.544,0.972 2.861,2.231c0.522,0.499 0.518,0.471 1.033,0.966c0.304,0.293 7.015,6.396 9.303,9.816c0.833,1.245 2.283,2.387 6.924,10.075c2.59,4.291 2.719,4.652 2.877,5.093c0.661,1.852 1.478,2.689 3.391,6.284c0.423,0.795 0.242,0.861 0.689,1.658c2.064,3.686 9.017,17.701 9.134,17.93c0.419,0.822 1.843,2.667 2.49,4.256c0.315,0.771 4.08,8.078 4.44,8.777c0.516,1.001 0.515,0.986 1.025,1.991c4.278,8.429 4.705,9.101 5.183,9.853c0.095,0.149 0.272,0.234 0.365,0.385c0.205,0.332 0.19,0.332 4.456,8.76c1.822,3.6 4.304,7.637 4.552,8.225c0.296,0.701 3.155,6.053 3.551,6.674c0.096,0.151 0.289,0.224 0.383,0.375c0.479,0.767 0.242,0.854 0.675,1.638c0.075,0.135 0.25,0.196 0.322,0.333c0.145,0.273 0.217,0.578 0.316,0.871c0.938,2.771 1.641,2.528 2.733,5.117c0.457,1.083 1.163,2.003 2.036,3.983c0.508,1.153 1.366,2.49 1.499,2.698c0.098,0.153 0.298,0.222 0.395,0.375c0.473,0.752 0.23,0.845 0.677,1.634c0.077,0.135 0.255,0.193 0.328,0.33c0.146,0.271 0.216,0.577 0.315,0.868c0.724,2.141 1.068,1.949 2.088,3.942c0.325,0.634 3.417,6.672 4.185,7.861c0.098,0.152 0.298,0.22 0.396,0.372c0.478,0.746 0.237,0.848 0.685,1.616c0.083,0.142 0.274,0.201 0.349,0.347c0.271,0.529 0.411,1.117 0.675,1.649c0.069,0.139 0.243,0.204 0.315,0.341c0.48,0.916 0.078,1.123 1.854,4.11c3.54,5.954 3.638,6.809 4.758,8.547c0.097,0.15 0.288,0.224 0.383,0.375c0.477,0.759 0.246,0.847 0.687,1.62c0.081,0.141 0.265,0.206 0.339,0.351c0.195,0.382 0.137,0.409 2.367,4.814c0.678,1.34 3.036,5.651 3.175,5.87c0.096,0.152 0.298,0.215 0.394,0.367c0.48,0.756 0.227,0.859 0.679,1.62c0.085,0.142 0.283,0.196 0.359,0.343c0.272,0.528 0.406,1.119 0.67,1.651c0.069,0.139 0.244,0.204 0.317,0.341c0.144,0.271 0.219,0.573 0.321,0.863c0.328,0.933 0.387,0.886 2.082,3.946c1.227,2.215 1.404,2.085 1.507,2.277c0.277,0.516 0.393,1.108 0.666,1.627c0.077,0.146 0.288,0.188 0.365,0.334c0.274,0.525 0.398,1.12 0.669,1.647c0.075,0.145 0.277,0.194 0.353,0.339c0.276,0.522 0.418,1.108 0.689,1.633c0.075,0.146 0.262,0.211 0.338,0.357c0.273,0.525 0.425,1.106 0.696,1.632c0.074,0.143 0.247,0.216 0.328,0.356c0.149,0.257 0.239,0.544 0.354,0.818c0.258,0.617 0.321,0.57 0.628,1.171c0.31,0.605 0.167,0.911 0.856,2.091c1.679,2.874 1.852,2.759 1.978,3.018c0.298,0.612 0.121,0.683 0.923,2.043c1.058,1.794 1.117,1.75 1.203,1.908c0.28,0.513 0.434,1.087 0.71,1.602c0.077,0.143 0.261,0.209 0.336,0.354c0.272,0.526 0.426,1.107 0.695,1.634c0.072,0.141 0.245,0.214 0.317,0.355c0.27,0.53 0.432,1.111 0.699,1.643c0.069,0.137 0.228,0.213 0.299,0.349c0.336,0.652 0.12,0.804 0.858,2.086c4.413,7.671 4.193,7.787 4.195,7.827c0.081,1.69 -1.91,1.112 -9.829,1.115c-42.454,0.014 -42.439,0.047 -43.01,-0.01c-2.296,-0.227 -1.963,-1.167 -4.514,-5.407c-1.76,-2.926 -1.888,-3.804 -2.9,-5.456c-0.592,-0.966 -0.51,-0.988 -1.058,-1.963c-0.089,-0.159 -0.281,-0.24 -0.382,-0.391c-0.156,-0.232 -0.223,-0.518 -0.383,-0.748c-0.102,-0.147 -0.299,-0.215 -0.392,-0.367c-0.459,-0.749 -0.216,-0.851 -0.679,-1.612c-0.086,-0.141 -0.273,-0.205 -0.352,-0.351c-0.28,-0.518 -0.437,-1.096 -0.712,-1.616c-0.076,-0.144 -0.256,-0.213 -0.332,-0.357c-0.276,-0.523 -0.438,-1.1 -0.712,-1.623c-0.074,-0.141 -0.247,-0.214 -0.321,-0.355c-0.973,-1.857 -0.857,-1.902 -2.046,-3.979c-0.778,-1.359 -0.613,-1.429 -1.413,-2.786c-0.126,-0.214 -1.442,-2.128 -1.802,-3.106c-0.392,-1.063 -0.44,-1.021 -0.916,-2.043c-1.065,-2.289 -1.177,-2.218 -2.904,-5.059c-0.002,-0.004 -0.858,-2.015 -2.263,-2.58c-0.591,-0.238 -55.865,-0.096 -100.909,-0.172c-11.841,-0.02 -12.951,0.443 -12.817,-1.116c0.046,-0.534 0.179,-0.463 0.699,-1.099c0.725,-0.886 5.244,-9.626 5.35,-9.798c1.536,-2.485 1.523,-2.469 2.917,-5.055c4.887,-9.066 4.748,-9.123 5.176,-9.908c0.08,-0.147 0.275,-0.204 0.363,-0.346c0.468,-0.752 0.206,-0.852 0.682,-1.607c0.097,-0.153 0.302,-0.213 0.405,-0.362c0.589,-0.847 1.683,-3.211 2.86,-5.083c0.992,-1.579 0.859,-1.842 2.099,-3.918c0.151,-0.253 0.252,-0.534 0.369,-0.805c0.279,-0.644 0.322,-0.599 0.703,-1.173c0.565,-0.85 1.975,-3.662 3.156,-4.015c0.527,-0.157 0.539,-0.126 61.038,-0.152c4.166,-0.002 5.842,0.414 5.867,-0.73c0.017,-0.78 -0.498,-1.03 -0.532,-1.082c-0.538,-0.822 -0.118,-1.025 -1.958,-4.117c-3.329,-5.593 -3.824,-7.013 -4.672,-8.631c-1.646,-3.141 -4.356,-7.372 -4.666,-8.166c-0.925,-2.371 -1.387,-2.125 -2.093,-3.965c-0.819,-2.134 -1.739,-2.882 -1.867,-3.067c-0.166,-0.24 -0.21,-0.55 -0.371,-0.793c-0.092,-0.139 -0.296,-0.185 -0.374,-0.333c-0.279,-0.525 -0.41,-1.118 -0.678,-1.648c-0.069,-0.137 -0.259,-0.188 -0.323,-0.327c-0.257,-0.556 -0.39,-1.162 -0.627,-1.726c-0.691,-1.645 -2.11,-4.015 -2.313,-4.353c-3.13,-5.226 -3.154,-5.29 -3.343,-5.791c-0.87,-2.312 -1.477,-2.345 -2.097,-3.964c-0.802,-2.092 -1.071,-1.942 -2.106,-3.941c-7.489,-14.452 -9.385,-16.934 -9.836,-18.08c-0.09,-0.229 -0.624,-1.585 -1.411,-2.739c-1.866,-2.736 -1.76,-2.799 -1.932,-3.03c-0.664,-0.891 -0.567,-0.938 -1.162,-1.862c-0.11,-0.171 -0.321,-0.254 -0.448,-0.411c-1.505,-1.857 -1.231,-2.058 -3.056,-3.955c-0.747,-0.776 -0.789,-0.705 -1.571,-1.45c-1.566,-1.493 -1.581,-1.452 -3.341,-2.687c-1.519,-1.066 -1.903,-1.9 -4.149,-2.696c-1.502,-0.533 -1.433,-0.641 -2.903,-1.256c-2.553,-1.067 -2.647,-0.639 -4.029,-0.962c-0.414,-0.097 -0.776,-0.348 -1.178,-0.487c-1.347,-0.465 -4.672,-0.524 -4.825,-0.536c-1.671,-0.131 -1.614,-0.538 -4.008,-0.56c-27.645,-0.255 -27.648,0.307 -30.043,0.102c-1.73,-0.148 -2.512,0.367 -3.957,0.512c-0.972,0.098 -36.246,0.106 -37.999,0.073c-2.31,-0.044 -2.343,-0.556 -4.02,-0.645c-0.854,-0.045 -24.82,-0.026 -26.979,-0.024c-9.862,0.008 -10.221,-0.215 -11.38,1.398c-0.595,0.829 -0.395,2.363 -0.366,4.212c0.047,3.057 -0.173,3.077 0.606,6.054c0.242,0.925 0.521,1.992 0.222,11.953c-0.066,2.193 -0.695,2.311 -0.783,4.015c-0.017,0.332 -0.009,34.842 0.001,34.971c0.042,0.513 0.675,2.199 0.721,4.012c0.018,0.703 -0.063,27.891 -0.066,28c-0.033,1.441 -0.382,1.779 -0.461,2.078c-0.345,1.314 -0.198,7.299 -0.227,22.924c-0.006,3.071 -0.572,6.742 1.796,7.717c1.268,0.522 5.531,-0.387 6.002,-0.487c1.444,-0.308 1.459,-0.12 2.911,-0.377c0.679,-0.12 5.465,-1.604 7.788,-3.214c1.151,-0.798 1.234,-0.657 2.281,-1.586c0.254,-0.226 2.328,-2.066 3.019,-2.99c0.426,-0.571 0.481,-0.505 0.98,-1.021c0.568,-0.587 2.078,-2.647 2.606,-3.31c2.919,-3.657 2.516,-3.92 4.03,-5.955c0.17,-0.228 1.721,-2.313 2.003,-2.932c0.25,-0.549 0.399,-1.142 0.669,-1.682c0.071,-0.142 0.257,-0.199 0.341,-0.335c0.462,-0.753 0.197,-0.858 0.683,-1.605c0.1,-0.154 0.317,-0.201 0.425,-0.35c0.163,-0.226 0.212,-0.52 0.37,-0.75c0.396,-0.577 0.482,-0.505 0.789,-1.146c0.488,-1.021 0.619,-0.935 1.077,-1.958c1.035,-2.308 1.754,-1.902 2.985,-5.012c0.6,-1.517 1.223,-1.737 1.977,-3.009c0.15,-0.253 0.277,-0.52 0.429,-0.772c1.148,-1.909 0.851,-2.05 1.96,-3.992c0.091,-0.159 0.298,-0.222 0.404,-0.371c0.408,-0.57 0.37,-0.574 0.799,-1.148c1.334,-1.787 0.912,-2.017 2.158,-3.876c0.562,-0.838 2.713,-4.812 3.385,-5.735c3.168,-4.353 2.487,-4.757 4.027,-6.977c0.28,-0.404 0.387,-0.307 0.858,-1.116c0.923,-1.584 0.701,-1.682 1.718,-3.179c1.153,-1.697 1.172,-1.681 1.265,-1.833c2.165,-3.513 2.025,-3.569 2.213,-3.872c2.838,-4.561 2.736,-4.615 2.985,-5.009c1.33,-2.109 1.286,-2.111 2.575,-4.241c2.781,-4.597 2.751,-4.607 2.996,-5.005c4.372,-7.114 4.084,-7.492 5.231,-7.867c1.525,-0.499 34.455,-0.021 35.961,-0.286c1.368,-0.241 1.346,-0.381 4.035,-0.4c3.047,-0.021 3.047,-0.24 6.051,0.234c1.008,0.159 1.012,-0.033 2.018,0.121c1.674,0.255 1.553,1.082 1.53,1.237c-0.018,0.124 -4.172,7.688 -4.42,8.175c-1.304,2.564 -1.272,2.561 -1.408,2.769c-0.497,0.761 -0.687,0.634 -1.944,3.052c-1.86,3.58 -1.984,3.483 -4.026,6.988c-0.144,0.248 -1.152,1.978 -1.676,3.168c-0.288,0.654 -0.37,0.59 -0.756,1.178c-2.683,4.081 -2.217,4.337 -4.837,8.471c-1.139,1.798 -2.374,4.341 -4.015,6.991c-0.909,1.468 -0.955,1.429 -1.025,1.561c-1.424,2.696 -1.346,2.727 -2.194,3.927c-0.16,0.227 -0.258,0.493 -0.402,0.731c-0.391,0.646 -3.564,5.892 -4.736,8.156c-3.342,6.452 -3.866,6.617 -4.113,6.952c-0.312,0.422 -3.704,6.809 -5.478,9.737c-0.853,1.409 -0.791,1.783 -0.923,2.045c-0.077,0.153 -0.282,0.208 -0.378,0.35c-0.159,0.234 -0.218,0.526 -0.377,0.76c-0.102,0.15 -0.304,0.219 -0.395,0.376c-0.287,0.498 -0.445,1.062 -0.723,1.565c-0.087,0.157 -0.267,0.247 -0.364,0.399c-1.436,2.257 -1.207,2.365 -2.611,4.618c-0.399,0.639 -4.146,6.652 -4.724,8.147c-0.667,1.727 -3.017,4.372 -3.992,7.002c-0.246,0.663 -0.308,0.616 -0.701,1.215c-1.595,2.426 -4.451,7.681 -5.186,8.862c-0.954,1.535 -1.002,1.481 -1.996,3.013c-1.222,1.884 -1.29,1.818 -2.608,3.617c-0.131,0.178 -1.474,2.012 -1.623,2.235c-0.52,0.776 -0.618,0.674 -0.966,1.031c-1.482,1.524 -1.463,1.523 -2.957,3.042c-1.053,1.071 -1.834,2.411 -4.004,4.002c-0.532,0.39 -2.834,2.868 -5.298,4.546c-2.783,1.895 -2.767,1.877 -5.632,3.624c-0.137,0.083 -0.208,0.255 -0.351,0.328c-0.528,0.272 -1.11,0.43 -1.641,0.698c-0.139,0.07 -0.212,0.237 -0.351,0.307c-0.533,0.268 -1.115,0.431 -1.649,0.696c-0.138,0.069 -0.216,0.229 -0.355,0.297c-0.537,0.263 -1.119,0.426 -1.656,0.689c-0.136,0.067 -0.211,0.227 -0.348,0.292c-0.544,0.256 -1.137,0.4 -1.677,0.664c-0.138,0.067 -0.191,0.265 -0.336,0.316c-0.168,0.059 -0.365,-0.067 -0.533,-0.01c-0.133,0.045 -0.175,0.235 -0.302,0.293c-0.163,0.074 -0.176,0.029 -2.116,0.72c-6.007,2.139 -6.13,1.699 -6.633,1.928c-0.122,0.055 -0.147,0.244 -0.27,0.297c-1.464,0.632 -1.607,-0.02 -4.099,0.777c-3.854,1.234 -4.066,-0.09 -7.98,1.005c-0.144,0.04 -1.148,0.321 -1.828,0.404c-1.456,0.177 -51.311,0.145 -51.99,0.097c-1.713,-0.122 -1.935,-0.26 -2.246,-1.964c-0.201,-1.104 -0.06,-173.444 -0.107,-219.054Z" style="fill:url(#_Linear1);"/><path d="M1391.503,2367.147c8.487,0.205 8.539,1.208 11.099,2.047c1.52,0.498 1.735,0.037 6.203,2.827c2.512,1.568 2.804,1.11 5.013,3.093c0.423,0.38 4.19,3.762 5.206,4.845c0.162,0.173 3.168,3.711 3.177,3.726c0.292,0.482 0.446,1.039 0.742,1.518c0.102,0.165 0.323,0.228 0.437,0.386c0.163,0.226 0.216,0.519 0.379,0.744c0.108,0.148 0.332,0.195 0.42,0.356c0.283,0.514 0.402,1.106 0.669,1.628c0.073,0.143 0.269,0.198 0.339,0.343c0.848,1.758 1.372,3.473 1.466,3.784c0.327,1.073 0.528,0.978 0.814,2.068c0.08,0.306 0.092,0.635 0.225,0.922c0.057,0.124 0.286,0.124 0.319,0.257c0.055,0.221 -0.126,0.454 -0.084,0.678c0.076,0.401 0.329,0.751 0.429,1.147c0.038,0.153 0.008,1.082 0.564,2.835c0.534,1.681 0.859,3.827 0.521,14.15c-0.099,3.036 -0.545,2.947 -1.211,5.923c-0.072,0.32 -0.69,3.082 -1.027,3.965c-1.035,2.711 -0.98,2.727 -1.076,2.961c-0.055,0.135 -0.258,0.165 -0.321,0.296c-0.26,0.54 -0.367,1.146 -0.631,1.684c-0.073,0.149 -0.275,0.202 -0.362,0.343c-0.469,0.755 -0.202,0.864 -0.675,1.618c-0.096,0.154 -0.304,0.21 -0.409,0.358c-0.16,0.225 -0.209,0.516 -0.37,0.74c-0.307,0.427 -0.416,0.314 -0.899,1.082c-2.179,3.469 -3.096,3.769 -4.009,4.983c-0.435,0.578 -0.493,0.491 -1.003,0.995c-0.168,0.166 -0.238,0.419 -0.419,0.571c-0.378,0.319 -0.851,0.512 -1.235,0.824c-0.173,0.141 -0.249,0.378 -0.42,0.521c-0.199,0.166 -0.47,0.23 -0.672,0.393c-0.157,0.127 -0.229,0.342 -0.39,0.464c-0.223,0.169 -0.513,0.232 -0.742,0.393c-0.15,0.105 -0.228,0.294 -0.381,0.395c-0.47,0.31 -1.002,0.518 -1.473,0.827c-0.152,0.1 -0.223,0.3 -0.381,0.39c-0.507,0.287 -1.077,0.452 -1.591,0.726c-0.612,0.326 -0.549,0.4 -1.211,0.641c-2.514,0.917 -2.296,1.381 -4.03,1.927c-0.312,0.098 -2.72,0.856 -3.864,1.333c-0.125,0.052 -0.164,0.235 -0.289,0.288c-0.633,0.264 -3.956,0.478 -4.761,0.699c-2.175,0.597 -2.182,0.6 -7.091,0.587c-3.539,-0.01 -3.48,-0.472 -7.009,-0.827c-4.146,-0.417 -4.002,-0.962 -7.99,-2.1c-0.491,-0.14 -6.588,-3.107 -9.644,-5.411c-2.099,-1.583 -3.461,-2.914 -3.743,-3.189c-0.527,-0.514 -0.65,-0.336 -1.139,-0.88c-0.819,-0.91 -1.957,-2.519 -2.117,-2.745c-1.206,-1.705 -2.965,-3.332 -6.122,-10.873c-1.491,-3.563 -0.965,-3.695 -1.969,-7.969c-0.75,-3.196 -0.381,-10.979 -0.336,-11.933c0.077,-1.629 -0.086,-3.403 1.785,-9.094c1.128,-3.431 0.9,-3.522 2.69,-6.665c2.827,-4.962 2.604,-5.147 6.618,-9.211c3.55,-3.594 3.545,-3.616 7.818,-6.304c0.314,-0.198 6.398,-4.461 15.063,-6.042c2.028,-0.37 2.024,-0.155 4.1,-0.045c0.399,0.021 0.396,-0.009 4.996,0.012l-9.144,65.744c1.057,0.217 1.023,0.653 9.14,0.563c7.735,-0.086 10.795,-3.914 12.062,-4.892c1.265,-0.976 2.98,-3.329 3.742,-5.142c0.24,-0.57 0.326,-1.196 0.549,-1.773c0.049,-0.127 0.206,-0.19 0.258,-0.315c0.58,-1.396 2.484,-5.98 1.456,-18.835c-0.265,-3.315 -1.214,-5.005 -1.968,-7.026c-0.792,-2.122 -1.044,-1.979 -2.138,-3.946c-0.306,-0.55 -2.444,-3.236 -5.034,-4.894c-4.941,-3.163 -10.017,-3.147 -10.927,-3.144c-4.603,0.015 -4.571,0.308 -6.086,0.763c-2.202,0.662 -2.27,0.506 -4.206,1.754c-2.223,1.433 -2.443,1.149 -4.159,3.167c-2.871,3.377 -2.528,3.608 -2.873,4.155c-0.368,0.582 -0.439,0.516 -0.706,1.159c-0.114,0.276 -0.186,0.571 -0.331,0.832c-0.336,0.605 -0.408,0.546 -0.626,1.188c-0.667,1.966 -0.798,1.918 -1.055,3.992c-0.316,2.551 -0.854,2.447 -0.97,5.002c-0.347,7.639 0.15,9.113 0.403,9.861c0.517,1.531 0.439,1.54 0.658,3.133c0.516,3.757 3.379,7.532 3.812,8.103c1.681,2.217 1.684,2.228 4.883,4.329c1.624,1.066 3.2,1.618 4.115,1.966l9.144,-65.744Z" style="fill:url(#_Linear2);"/><path d="M1071.068,2436.093c-0.324,0.331 -0.745,0.557 -1.069,0.888c-1.602,1.635 -1.837,2.815 -8.348,6.794c-0.959,0.586 -0.962,0.543 -1.924,1.116c-0.987,0.588 -1.026,0.46 -2.051,0.991c-0.131,0.068 -0.193,0.238 -0.328,0.295c-0.562,0.237 -1.178,0.33 -1.737,0.575c-0.13,0.057 -0.161,0.253 -0.29,0.312c-0.269,0.125 -2.628,0.526 -3.664,0.855c-2.656,0.842 -2.767,0.308 -5.02,1c-2,0.614 -2.019,0.51 -9.134,0.524c-11.132,0.022 -23.997,0.089 -24.996,-0.001c-1.114,-0.1 -1.091,-0.266 -3.02,-0.109c-0.318,0.026 -0.651,0.127 -0.957,0.037c-0.167,-0.049 -0.184,-0.306 -0.322,-0.413c-0.232,-0.18 -0.606,-0.186 -0.766,-0.432c-0.198,-0.304 -0.159,-0.34 -0.168,-75.025c-0,-3.529 -0.547,-5.951 3.23,-5.944c4.264,0.009 4.257,0.003 17.999,-0.016c8.77,-0.012 9.957,0.043 10.91,0.239c3.027,0.622 3.021,0.524 6.091,0.692c3.049,0.167 2.98,0.574 6.008,0.935c2.755,0.328 3.172,1.127 6.032,1.921c2.916,0.809 2.87,1.15 7.122,3.895c4.246,2.742 3.852,3.202 4.997,4.075c0.212,0.162 0.491,0.228 0.691,0.406c0.171,0.152 0.234,0.399 0.394,0.562c0.155,0.158 0.397,0.217 0.538,0.387c0.07,0.084 0.026,0.102 0.778,1.118c1.236,1.671 1.273,1.641 1.367,1.794c0.359,0.585 0.441,0.51 0.831,1.086c0.161,0.238 0.212,0.537 0.368,0.778c0.377,0.585 0.458,0.509 0.777,1.143c0.127,0.253 0.207,0.533 0.37,0.765c0.099,0.142 0.313,0.181 0.4,0.33c0.126,0.217 -0.052,0.287 1.119,2.929c0.69,1.555 0.579,1.589 0.643,1.721c0.058,0.12 0.218,0.177 0.262,0.303c0.133,0.382 0.889,2.557 1.318,4.878c0.366,1.979 0.842,2.559 0.913,4.005c0.108,2.193 0.164,12.435 -0.018,13.988c-0.226,1.929 -2.552,9.703 -3.156,10.891c-0.162,0.318 -0.256,0.248 -2.151,3.91c-1.078,2.083 -3.684,5.359 -4.036,5.801l-9.905,-27.593c-0.004,-0.049 0.103,-1.414 -0.228,-3.115c-0.044,-0.228 -0.553,-2.839 -0.556,-2.852c-0.112,-0.413 -0.364,-0.778 -0.486,-1.188c-0.737,-2.481 -0.597,-2.518 -0.697,-2.719c-0.062,-0.125 -0.248,-0.163 -0.3,-0.292c-0.23,-0.574 -0.331,-1.192 -0.53,-1.777c-0.389,-1.146 -0.792,-1.063 -1.908,-3.03c-0.868,-1.53 -3.471,-3.398 -3.633,-3.525c-3.527,-2.763 -3.973,-2.306 -5.201,-2.791c-0.131,-0.052 -0.172,-0.242 -0.302,-0.296c-0.571,-0.239 -1.181,-0.372 -1.768,-0.571c-1.16,-0.392 -1.569,-0.798 -6.055,-0.816c-11.194,-0.045 -12.058,-0.09 -12.544,0.401c-0.42,0.425 -0.405,3.284 -0.404,3.572c0.199,37.724 -0.063,37.72 -0.032,41c0,0.048 -0.152,1.933 1.98,1.993c10.22,0.288 12.165,-0.235 13.185,-0.509c2.503,-0.673 4.176,-0.236 9.537,-2.968c2.09,-1.065 5.415,-4.374 6.017,-5.649c0.489,-1.035 0.399,-1.056 1.008,-2.013c1.109,-1.742 0.87,-1.835 1.421,-3.824c1.23,-4.434 1.431,-4.414 1.494,-9.029l9.905,27.593Z" style="fill:url(#_Linear3);"/><path d="M1305.15,2505.492c0.023,-0.637 0.232,-6.436 0.626,-7.944c0.775,-2.969 3.87,-9.385 5.188,-11.801c0.731,-1.339 3.041,-3.851 3.911,-5c1.681,-2.219 1.852,-2.037 4,-3.835c5.353,-4.478 8.534,-5.264 15.717,-7.111c1.479,-0.38 10.198,-0.393 11.834,-0.02c4.573,1.043 4.61,0.843 5,0.959c2.818,0.842 2.812,0.768 3.055,0.842c2.612,0.795 2.474,1.084 5.177,2.627c4.954,2.826 6.227,4.663 7.301,5.842c0.772,0.848 1.73,1.203 4.828,6.288c2.432,3.991 3.599,7.444 3.829,8.125c0.223,0.659 1.637,4.786 1.811,6.041c0.611,4.395 0.374,10.127 0.338,11.008c-0.284,6.904 -0.838,6.948 -0.883,7.104c-0.796,2.722 -1.333,7.967 -6.769,15.632c-2.589,3.651 0.176,3.964 3.697,9.044c1.232,1.777 3.116,2.952 2.462,4.071c-0.392,0.671 -2.537,0.558 -2.762,0.546c-0.486,-0.026 -10.654,-0.002 -11.046,-0.036c-2.978,-0.26 -2.886,-2.688 -4.876,-2.092c-0.429,0.129 -4.138,2.383 -8.081,2.802c-3.041,0.324 -2.969,0.782 -6.007,0.839c-7.377,0.139 -7.34,-0.329 -8.094,-0.509c-0.69,-0.165 -4.172,-0.418 -4.838,-0.629c-6.16,-1.948 -8.717,-3.858 -9.38,-4.353c-2.983,-2.229 -4.841,-3.295 -7.256,-6.718c-1.681,-2.383 -1.58,-2.434 -3.056,-4.936c-1.83,-3.102 -2.219,-4.645 -2.681,-5.646c-1.064,-2.304 -2.484,-7.064 -2.5,-7.163c-0.892,-5.551 -0.593,-12.862 -0.547,-13.98l55.998,5.008c-0.059,-0.658 0.04,-1.323 -0.019,-1.981c-0.183,-2.031 -0.342,-1.988 -0.544,-4.027c-0.148,-1.489 -0.548,-1.979 -0.608,-2.196c-0.162,-0.593 -0.235,-1.206 -0.342,-1.811c-0.763,-4.317 -1.69,-4.076 -3.246,-6.914c-1.19,-2.171 -5.705,-5.379 -8.9,-6.001c-1.117,-0.217 -1.086,-0.25 -2.158,-0.582c-2.633,-0.817 -7.106,-0.385 -7.746,-0.199c-6.193,1.803 -7.921,2.54 -11.634,7.999c-0.737,1.083 -2.08,4.07 -2.414,5.719c-0.608,2.998 -0.997,2.924 -1.08,5.993c-0.226,8.405 0.322,10.318 0.569,11.178c0.324,1.129 0.839,4.005 1.74,5.692c2.207,4.133 4.637,6.862 10.848,8.729c1.182,0.355 11.011,1.073 10.845,-1.591c-0.048,-0.767 -3.429,-4.614 -4.606,-6.239c-1.661,-2.292 -2.804,-3.276 -3.229,-3.853c-3.144,-4.27 -3.163,-4.443 -3.216,-4.909c-0.171,-1.523 0.559,-1.221 2.078,-1.176c8.307,0.245 8.292,-0.026 12.017,0.075c1.465,0.04 1.55,0.12 3.608,2.445c1.551,1.752 2.775,3.512 3.111,3.9c0.504,0.582 0.583,0.479 1.119,1.03c0.135,0.139 0.122,0.415 0.296,0.502c0.138,0.069 1.5,0.039 1.578,-0.025c0.043,-0.035 1.155,-4.07 1.23,-4.763c0.382,-3.514 0.587,-3.479 0.703,-6.993l-55.998,-5.008Z" style="fill:url(#_Linear4);"/><path d="M1225.079,2416.426c-0,-0.003 0.147,-1.423 -0.195,-3.024c-1.122,-5.264 -0.379,-18.884 -1.002,-21.997c-0.476,-2.378 -0.375,-2.383 -0.381,-8.905c-0.01,-11.049 -0.02,-11.04 -0.014,-12.001c0.011,-1.809 0.241,-1.765 0.751,-2.269c0.15,-0.148 0.198,-0.403 0.384,-0.503c0.351,-0.188 1.728,-0.198 1.879,-0.199c12.85,-0.095 12.863,-0.112 13.941,0.175c3.187,0.849 3.118,1.502 3.124,4.796c0.005,3.36 0.056,34.935 -0.023,42c-0.034,3.025 -0.575,2.971 -0.582,5.999c-0.015,6.021 0.568,5.987 0.552,12c-0.037,14.247 0.023,14.26 -0.161,14.939c-0.055,0.201 -0.272,1.002 -2.028,1.635c-1.494,0.539 -6.521,0.376 -7.774,0.193c-2.036,-0.296 -2.019,-0.038 -4.058,0.122c-6.955,0.544 -6.767,-2.474 -8.456,-4.518c-1.624,-1.965 -1.47,-2.057 -2.821,-4.208c-1.33,-2.118 -1.62,-1.898 -2.872,-4.073c-1.806,-3.137 -2.084,-2.935 -4.022,-5.987c-0.498,-0.784 -4.593,-7.232 -6.305,-9.75c-1.875,-2.757 -1.816,-2.792 -1.985,-3.027c-1.218,-1.689 -1.023,-1.795 -2.185,-3.54c-4.44,-6.671 -4.709,-7.812 -5.833,-9.445c-0.111,-0.161 -0.301,-0.257 -0.409,-0.419c-0.721,-1.082 -1.745,-4.451 -2.221,-4.766c-0.427,-0.283 -1.65,-0.419 -1.703,0.872c-0.003,0.061 0.004,0.061 0.436,1.927c0.307,1.329 0.363,1.57 0.735,17.034c0.125,5.199 0.625,5.426 0.645,9.012c0.075,13.331 -0.157,14.66 -0.377,15.914c-0.536,3.057 0.611,5.383 -4.606,4.943c-2.018,-0.17 -1.999,-0.164 -4.021,-0.003c-0.154,0.012 -3.214,0.156 -4.942,-0.086c-3.893,-0.545 -5.816,0.494 -6.28,-1.71c-0.205,-0.973 -0.025,-46.002 -0.098,-58.056c-0.015,-2.517 -0.447,-2.474 -0.461,-5.005c-0.075,-13.394 0.091,-13.964 0.43,-15.127c0.633,-2.173 1.54,-1.799 6.362,-1.802c8.318,-0.004 12.433,-0.553 13.911,1.995c0.2,0.344 0.217,0.375 2.717,4.165c1.83,2.776 1.843,2.754 1.999,2.997c6.478,10.112 6.448,10.118 7.023,10.988c4.789,7.251 4.616,7.356 5.043,7.978c1.721,2.507 1.641,2.548 1.668,2.592c0.132,0.219 3.953,5.657 5.967,9.024c0.581,0.971 3.435,4.491 6.012,9.912c0.173,0.348 0.34,0.194 0.509,0.535c0.177,0.355 0.001,0.385 0.136,0.762c0.265,0.738 0.456,0.716 1.165,0.403c1.335,-0.589 0.565,-1.03 0.428,-2.495Z" style="fill:url(#_Linear5);"/><path d="M1092.885,2422.647c0.98,-3.564 2.124,-6.066 3.251,-9.272c3.879,-11.031 3.559,-11.141 4.046,-12.032c1.05,-1.919 1.02,-3.108 2.509,-6.761c0.855,-2.098 0.306,-2.294 1.447,-4.264c1.03,-1.779 0.816,-1.85 1.415,-3.806c0.183,-0.597 1.049,-2.694 1.145,-2.926c0.859,-2.079 0.614,-2.15 1.439,-4.24c0.412,-1.045 0.45,-1.014 0.864,-2.045c0.775,-1.928 0.272,-2.091 1.27,-3.913c1.353,-2.468 0.736,-3.849 3.019,-5.293c0.895,-0.566 2.225,-0.444 4.209,-0.451c15.395,-0.059 16.071,-0.408 17.135,1.777c0.71,1.459 0.644,1.471 1.062,3.037c0.419,1.569 1.739,4.326 2.601,7.119c1.282,4.154 5.468,15.656 5.961,17.011c5.676,15.595 5.593,15.623 6.09,16.978c0.674,1.842 0.795,1.772 0.894,2.039c0.55,1.491 0.473,1.501 1.029,2.981c0.229,0.609 3.881,11.419 4.495,12.801c1.794,4.036 1.305,4.216 3.008,7.995c1.113,2.468 0.963,2.51 1.868,5.074c0.852,2.412 2.396,4.888 -3.144,4.983c-14.07,0.24 -14.269,0.021 -15.008,-0.928c-1.16,-1.489 -1.562,-1.612 -1.915,-3.026c-0.72,-2.886 -3.441,-9.367 -3.819,-10.105c-0.853,-1.668 -0.958,-1.91 -3.258,-1.904c-21.185,0.056 -21.162,-0.072 -23.002,-0.013c-3.301,0.106 -2.897,3.388 -4.735,7.148c-1.152,2.357 -1.246,5.091 -2.807,7.201c-0.912,1.233 -1.352,1.579 -3.457,1.608c-13.35,0.18 -13.744,0.094 -14.909,-0.161c-0.174,-0.038 -1.281,-0.281 -1.378,-1.742c-0.027,-0.412 -0.055,-0.841 1.489,-4.939c1.51,-4.006 1.246,-4.09 2.917,-8.024c0.836,-1.968 2.831,-8.608 4.266,-11.906l34.612,-5.491c3.656,-0.3 3.831,-0.285 4.163,-0.257c0.582,0.05 0.761,0.221 0.916,-0.335c0.541,-1.939 -0.851,-2.595 -6.304,-19.989c-1.953,-6.231 -1.053,-7.374 -2.81,-7.245c-0.262,0.019 -1.002,0.074 -1.284,3.027c-0.053,0.554 0.071,0.681 -1.204,4.326c-1.08,3.086 -5.189,15.26 -5.37,15.851c-0.428,1.397 -1.464,2.774 -0.778,3.754c0.728,1.04 2.998,0.885 12.67,0.869l-34.612,5.491Z" style="fill:url(#_Linear6);"/><path d="M1491.5,2471.155c3.374,0.016 5.463,-0.448 6.563,1.578c0.283,0.521 0.43,1.108 0.701,1.636c0.07,0.137 0.26,0.196 0.313,0.34c0.211,0.575 0.298,1.188 0.466,1.777c0.069,0.243 0.231,0.185 1.035,2.987c0.07,0.243 0.267,0.171 1.082,2.971c0.228,0.783 3.065,8.664 3.174,8.91c0.059,0.134 0.264,0.16 0.327,0.291c0.104,0.217 0.596,2.547 0.643,2.77c0.53,2.513 1.121,2.283 1.625,4.103c1.057,3.816 1.76,4.907 2.131,5.957c0.103,0.292 0.161,0.601 0.294,0.88c0.058,0.121 0.226,0.171 0.268,0.298c0.201,0.593 0.286,1.219 0.451,1.824c0.081,0.296 0.154,0.598 0.285,0.875c0.058,0.122 0.224,0.175 0.27,0.302c0.213,0.587 0.321,1.206 0.493,1.806c0.085,0.294 0.151,0.597 0.279,0.875c0.056,0.122 0.218,0.177 0.265,0.303c0.215,0.585 0.327,1.202 0.507,1.798c0.323,1.067 0.548,0.972 0.814,2.067c0.077,0.316 0.124,0.639 0.194,0.957c0.511,2.344 1.344,2.4 1.753,4.057c0.406,1.644 0.383,1.632 0.471,1.816c0.06,0.125 0.254,0.157 0.303,0.287c0.221,0.584 0.316,1.208 0.489,1.808c0.084,0.291 0.148,0.592 0.28,0.864c0.062,0.128 0.232,0.184 0.293,0.313c0.013,0.028 0.785,3.448 1.539,4.744c0.334,0.575 0.384,0.543 0.568,1.184c0.45,1.569 0.432,1.571 0.534,1.794c0.279,0.61 0.327,0.567 0.532,1.196c0.095,0.292 0.157,0.598 0.299,0.871c0.067,0.129 0.248,0.173 0.311,0.304c0.059,0.124 1.389,4.398 1.508,4.781c0.336,1.079 0.587,0.963 0.832,2.043c0.144,0.635 0.25,1.278 0.381,1.916c0.401,1.953 1.512,3.114 -1.195,3.468c-2.58,0.337 -5.065,1.147 -9.975,0.191c-3.39,-0.66 -6.341,0.733 -7.671,-1.821c-0.79,-1.518 -1.397,-3.45 -1.494,-3.758c-0.185,-0.59 -2.739,-7.074 -2.754,-7.108c-1.081,-2.321 -1.643,-1.815 -4.185,-1.845c-1.757,-0.02 -20.418,-0.238 -21.958,0.118c-1.621,0.375 -1.571,1.271 -4.019,6.826c-0.996,2.262 -2.025,6.652 -3.96,7.2c-0.544,0.154 -0.533,0.081 -7.061,0.367c-0.479,0.021 -0.472,-0.22 -5.996,-0.186c-0.249,0.002 -2.81,0.017 -3.108,-0.059c-2.746,-0.699 -0.342,-3.908 6.555,-24.163c2.643,-7.762 2.739,-7.703 3.953,-11.01c0.772,-2.102 0.543,-2.165 1.435,-4.228c0.421,-0.974 3.058,-8.845 3.956,-11.018c1.208,-2.924 0.807,-3.053 2.045,-5.981c1.233,-2.915 0.85,-3.04 2.103,-5.957c0.27,-0.628 0.554,-1.289 2.891,-8.035c0.888,-2.563 0.874,-2.549 2.004,-5.013c0.689,-1.503 2.48,-1.249 3.107,-1.339c6.482,-0.936 6.496,0.036 13.053,0.066l-6.999,47.031c5,0.006 4.982,-0.216 9.978,-0.014c0.731,0.029 0.803,0.157 1.32,-0.366c1.057,-1.069 -0.217,-1.986 -1.201,-4.338c-0.617,-1.477 -0.695,-1.427 -1.086,-2.97c-0.798,-3.149 -2.795,-6.555 -5.218,-17.938c-0.024,-0.114 -0.26,-1.224 -0.666,-1.302c-1.316,-0.254 -1.39,0.065 -1.773,1.348c-0.565,1.894 -0.141,2.008 -2.237,7.943c-0.429,1.216 -0.579,1.153 -5.807,15.044c-0.576,1.53 -0.253,1.646 0.464,2.175c0.416,0.307 0.405,0.442 2.229,0.442c0.32,-0 0.296,-0.002 3.996,-0.024l6.999,-47.031Z" style="fill:url(#_Linear7);"/><path d="M1038.501,2471.156c14.583,-0.003 15.118,-0.262 15.905,1.413c0.473,1.007 0.645,0.911 0.923,1.978c0.406,1.566 0.37,1.562 0.501,1.817c0.065,0.127 0.262,0.153 0.324,0.282c0.068,0.141 0.608,2.589 0.673,2.725c0.06,0.127 0.259,0.148 0.32,0.275c0.249,0.524 0.237,2.278 2.186,6.928c0.663,1.582 0.549,1.608 0.613,1.74c0.059,0.121 0.232,0.167 0.278,0.294c0.212,0.59 0.312,1.214 0.483,1.818c0.305,1.077 0.515,0.988 0.818,2.067c0.088,0.314 0.566,2.021 1.336,3.856c0.052,0.125 0.229,0.172 0.276,0.299c0.291,0.78 0.136,0.83 3.347,9.856c1.063,2.99 1.281,2.897 2.165,5.945c0.085,0.294 0.151,0.597 0.28,0.874c0.057,0.122 0.222,0.175 0.268,0.302c0.855,2.37 0.636,2.43 1.529,4.793c0.089,0.235 0.857,2.27 1.145,2.925c0.055,0.126 0.241,0.167 0.288,0.296c0.214,0.588 0.308,1.213 0.479,1.814c0.084,0.294 0.15,0.597 0.284,0.871c0.06,0.123 0.23,0.171 0.286,0.297c0.235,0.522 0.214,1.88 1.496,4.792c0.905,2.055 0.774,2.089 1.575,4.175c0.181,0.472 0.032,0.515 2.063,5.971c0.141,0.379 0.084,0.397 1.605,4.798c0.227,0.657 1.975,3.418 -1.407,3.561c-0.675,0.028 -1.351,-0.008 -2.026,0.01c-1.371,0.036 -1.907,0.471 -4.015,0.508c-8.515,0.153 -10.474,-0.568 -11.051,-1.913c-1.074,-2.504 -2.874,-7.309 -3.114,-7.949c-0.397,-1.06 -0.53,-0.994 -0.836,-2.073c-1.024,-3.612 -2.65,-2.96 -6.998,-2.964c-19.966,-0.018 -20.29,-0.19 -21.045,0.923c-0.882,1.302 -0.601,1.432 -1.751,4.126c-0.198,0.464 -0.21,0.491 -2.15,5.93c-1.184,3.32 -2.106,3.261 -2.943,3.435c-1.743,0.361 -3.692,0.016 -4.085,0.025c-1.202,0.027 -1.177,0.155 -3.001,0.123c-0.915,-0.016 -2.18,-0.243 -2.973,-0.123c-0.375,0.056 -0.733,0.2 -1.107,0.257c-1.25,0.191 -5.202,-0.324 -5.662,-0.939c-1.053,-1.41 0.938,-3.656 1.776,-7.786c0.45,-2.216 1.087,-2.003 2.107,-5.972c0.394,-1.533 0.595,-1.446 1.002,-2.994c0.076,-0.291 0.122,-0.593 0.242,-0.869c0.055,-0.125 0.213,-0.183 0.272,-0.306c0.119,-0.252 0.761,-2.598 0.791,-2.667c0.221,-0.49 0.356,-0.422 0.558,-1.191c0.082,-0.315 0.125,-0.639 0.197,-0.957c0.24,-1.054 1.224,-2.765 1.622,-4.105c1.668,-5.61 2.376,-6.193 2.932,-8.026c0.461,-1.52 0.541,-1.468 1.052,-2.978c0.2,-0.592 0.278,-1.221 0.487,-1.81c0.045,-0.127 0.208,-0.183 0.266,-0.305c0.095,-0.202 -0.082,-0.254 0.773,-2.675c0.094,-0.266 0.298,-0.176 1.405,-3.235c0.108,-0.297 0.158,-0.612 0.245,-0.915c0.309,-1.077 0.499,-0.995 0.807,-2.066c0.088,-0.305 0.148,-0.618 0.229,-0.925c0.288,-1.093 0.504,-0.994 0.809,-2.061c0.171,-0.6 0.273,-1.221 0.486,-1.807c0.047,-0.13 0.221,-0.18 0.282,-0.304c0.254,-0.519 1.069,-2.683 1.157,-2.918c0.562,-1.491 0.423,-1.528 1.055,-2.992c0.836,-1.935 1.489,-4.765 1.501,-4.797c0.329,-0.841 0.439,-0.787 0.796,-2.095c0.294,-1.076 0.533,-0.964 0.848,-2.044c0.171,-0.585 0.262,-1.196 0.48,-1.765c0.065,-0.169 0.241,-0.078 0.998,-2.029c0.708,-1.823 0.585,-1.87 1.12,-2.526c1.09,-1.337 2.711,-1.011 6.421,-1.019l-0.422,35.188c-0.069,0.243 -0.852,2.994 -0.87,3.036c-0.054,0.124 -0.206,0.187 -0.264,0.31c-0.094,0.201 0.103,0.249 -0.826,2.647c-0.185,0.476 -0.339,0.38 -0.587,1.174c-0.335,1.074 -0.368,1.05 -0.933,2.026c-0.078,0.134 -0.776,1.342 -0.611,1.84c0.044,0.133 0.305,0.919 1.56,0.786c0.296,-0.031 0.566,-0.193 0.859,-0.242c1.117,-0.187 1.778,0.261 3.108,0.302c0.871,0.027 9.044,0.279 10.898,-0.135c0.133,-0.03 0.091,-0.318 0.225,-0.34c0.39,-0.064 0.792,0.18 1.182,0.11c0.955,-0.172 0.545,-1.212 0.504,-1.317c-0.26,-0.66 -0.596,-0.497 -0.954,-2.008c-0.71,-2.993 -1.364,-2.774 -2.059,-5.988c-0.5,-2.311 -1.327,-2.538 -1.672,-4.07c-1.121,-4.99 -1.598,-4.853 -2.55,-9.865c-0.046,-0.241 -0.521,-2.743 -0.762,-2.964c-0.201,-0.184 -1.465,-0.191 -1.664,-0.012c-0.131,0.118 -1.512,6.361 -1.611,6.684c-0.201,0.655 -0.442,0.564 -2.972,8.027l0.422,-35.188Z" style="fill:url(#_Linear8);"/><path d="M1189.5,2471.152c0.483,0.001 5.568,0.009 6.033,0.054c2.113,0.206 1.973,1.181 2.361,2.132c0.292,0.715 1.201,2.035 1.518,3.185c0.377,1.369 0.52,1.307 0.789,2.094c0.304,0.89 0.284,0.89 1.447,4.849c0.747,2.543 1.653,4.243 1.871,5.029c0.162,0.583 3.104,8.952 3.105,8.954c1.322,3.121 1.906,5.501 2.074,5.979c0.059,0.169 0.41,0.661 0.802,2.072c0.38,1.367 1.833,5.286 2.027,5.993c0.493,1.797 5.705,16.096 5.926,17.016c0.853,3.552 1.288,3.403 2.255,6.943c0.625,2.287 1.384,3.146 1.846,5.035c1.314,5.369 2.345,5.874 1.722,6.866c-0.357,0.568 -2.546,0.558 -2.772,0.556c-2.945,-0.014 -2.929,0.057 -5.055,0.351c-1.953,0.27 -1.926,-0.353 -4.951,-0.37c-0.668,-0.004 -1.336,0.004 -2.004,-0.002c-2.437,-0.023 -3.033,-0.085 -4.763,-4.477c-0.185,-0.47 -2.011,-5.106 -2.234,-5.911c-0.092,-0.333 -0.847,-3.061 -2.095,-3.772c-0.336,-0.192 -1.749,-0.201 -1.902,-0.202c-1.76,-0.011 -16.605,-0.107 -21.999,-0.007c-1.832,0.034 -1.785,0.476 -2.145,0.829c-0.522,0.51 -0.584,0.454 -0.908,1.12c-0.129,0.265 -0.227,0.545 -0.365,0.805c-1.368,2.582 -1.005,2.711 -2.085,5.437c-0.146,0.369 -1.569,3.957 -1.904,4.587c-0.946,1.781 -2.997,2.284 -10.593,2.136c-2.46,-0.048 -2.398,-0.473 -4.017,-0.517c-0.675,-0.018 -1.352,0.019 -2.026,-0.012c-0.249,-0.011 -2.615,0.074 -1.799,-2.355c0.08,-0.239 0.747,-2.223 1.031,-2.979c0.788,-2.097 0.586,-2.148 1.379,-4.247c1.363,-3.605 1.273,-3.626 2.554,-6.772c0.914,-2.245 0.679,-2.306 0.9,-3.047c0.063,-0.211 1.538,-3.638 1.843,-5.035c0.545,-2.495 1.558,-3.933 2.005,-5.998c0.07,-0.323 0.255,-1.175 1.219,-3.95c2.579,-7.418 2.614,-7.402 2.807,-8.057c0.164,-0.556 1.022,-3.473 2.39,-6.84c1.361,-3.35 1.413,-3.326 1.603,-4.151c0.633,-2.753 1.544,-3.86 2.079,-5.982c0.662,-2.621 1.087,-2.464 1.845,-5.057c1.04,-3.558 1.976,-5.691 2.063,-5.979c0.459,-1.52 0.47,-1.505 1.159,-2.936c0.495,-1.027 0.418,-1.034 0.87,-2.064c0.675,-1.537 1.185,-1.288 14.093,-1.305l3.414,38.192c-0.893,-2.383 -0.968,-2.34 -1.607,-4.801c-0.459,-1.77 -1.354,-3.727 -1.605,-5.104c-0.632,-3.466 -0.889,-3.391 -1.506,-6.867c-0.03,-0.171 -0.356,-2.005 -1.796,-1.218c-0.255,0.14 -0.864,2.483 -1.576,5.236c-1.82,7.04 -2.515,7.38 -4.945,14.049c-1.601,4.395 -1.355,4.477 -1.535,4.841c-0.192,0.389 -0.618,0.635 -0.795,1.032c-0.051,0.114 -0.502,1.123 0.254,1.54c0.134,0.074 4.581,0.185 5.698,0.189c8.344,0.031 8.31,-0.502 9.032,-0.468c0.99,0.047 0.929,0.317 1.913,0.4c1.851,0.158 1.177,-1.535 1.117,-1.685c-0.16,-0.401 -0.567,-0.66 -0.767,-1.042c-0.446,-0.853 -0.141,-0.949 -0.579,-1.826c-0.061,-0.121 -0.224,-0.171 -0.281,-0.294c-0.088,-0.191 -0.944,-3.661 -1.023,-3.98l-3.414,-38.192Z" style="fill:url(#_Linear9);"/><path d="M1294.119,2532.321c-3.224,6.391 -3.299,6.416 -8.6,11.201c-2.243,2.024 -2.481,1.629 -3.829,2.378c-0.129,0.072 -0.172,0.261 -0.309,0.316c-0.98,0.392 -5.247,1.648 -5.706,1.784c-2.023,0.596 -2.037,0.419 -4.145,0.701c-1.793,0.24 -1.716,0.671 -4.031,0.738c-7.276,0.21 -9.11,-0.191 -9.882,-0.36c-3.409,-0.746 -8.407,-0.347 -16.873,-5.977c-0.277,-0.184 -1.714,-1.14 -3.237,-2.609c-3.326,-3.209 -3.395,-3.167 -5.825,-7.099c-1.391,-2.25 -3.912,-9.321 -4.05,-9.913c-0.093,-0.399 0.151,-0.428 -0.888,-5.04c-0.42,-1.865 -0.815,-13.641 0.229,-17.782c0.783,-3.104 0.245,-3.237 1.468,-6.182c1.746,-4.205 5.105,-14.033 15.908,-20.263c6.72,-3.875 11.593,-3.948 12.06,-4.069c2.437,-0.632 2.453,-0.655 10.091,-0.602c3.626,0.025 3.705,0.499 5.038,0.726c1.754,0.299 1.805,0.071 5.897,1.405c0.338,0.11 0.314,0.161 4.1,1.731c1.722,0.714 3.938,2.461 4.255,2.71c1.146,0.903 1.051,0.976 2.128,1.96c0.35,0.319 0.771,0.555 1.116,0.88c0.175,0.165 0.262,0.409 0.431,0.58c0.253,0.255 1.033,0.703 2.19,2.884c1.137,2.146 1.293,2.057 1.938,4.054c0.701,2.172 2.167,5.785 2.249,9.017c0.078,3.069 -1.283,2.362 -4.342,2.363c-12.033,0.005 -12.417,0.127 -13.174,-1.243c-1.381,-2.497 -1.641,-6.425 -8.729,-9.33c-1.253,-0.514 -1.755,-1.038 -8.098,-0.819c-3.2,0.11 -3.594,0.633 -4.09,0.806c-1.509,0.526 -1.534,0.43 -2.907,1.238c-1.613,0.949 -5.257,4.857 -5.949,6.034c-1.587,2.7 -2.142,5.432 -2.243,5.929c-0.369,1.815 -0.793,1.73 -0.851,4.034c-0.054,2.114 -0.104,11.321 0.116,12.991c0.131,0.993 2.033,6.693 2.988,7.964c0.101,0.134 0.114,0.09 1.457,1.515c0.085,0.09 1.931,2.607 4.397,3.692c3.547,1.561 3.538,1.943 10.084,1.899c6.293,-0.042 6.766,-0.391 10.045,-3.015c2.315,-1.852 3.123,-6.489 4.987,-6.902c0.451,-0.1 13.467,-0.292 14.9,0.059c0.247,0.061 1.742,0.427 1.644,2.723c-0.042,0.993 -0.45,2.846 -0.503,3.09c-0.07,0.318 -0.271,1.235 -1.455,3.807Z" style="fill:url(#_Linear10);"/><path d="M1436.5,2471.152c10.739,-0.015 11.67,-0.264 11.975,1.353c0.158,0.835 0.051,36.795 0.042,39.995c-0.015,4.975 0.326,4.987 -0.391,9.914c-0.599,4.114 0.013,4.257 -1.599,8.097c-0.605,1.441 -1.422,5.457 -5.977,10.038c-0.239,0.241 -2.511,2.526 -3.097,2.896c-0.59,0.373 -0.511,0.456 -1.082,0.852c-0.998,0.691 -4.829,2.128 -5.668,2.623c-0.578,0.341 -0.544,0.398 -1.212,0.533c-0.322,0.065 -0.651,0.09 -0.975,0.147c-1.811,0.318 -1.702,0.814 -4.016,0.922c-3.48,0.163 -13.68,0.293 -15.94,-0.219c-10.623,-2.409 -14.447,-7.989 -15.125,-8.747c-1.962,-2.195 -1.752,-2.336 -3.275,-4.865c-1.169,-1.942 -0.765,-2.089 -1.5,-4.244c-1.562,-4.582 -1.228,-4.694 -1.236,-28.946c-0.004,-11.952 0.045,-11.94 0.021,-21c-0.02,-7.838 -0.497,-9.051 2.011,-9.316c0.493,-0.052 13.056,-0.018 13.072,-0.017c2.917,0.186 2.179,1.552 2.161,7.334c-0.007,6.666 -0.015,13.333 -0.022,19.999c-0.022,15.57 -0.195,18.966 0.303,20.879c0.525,2.019 0.252,2.051 0.588,4.111c0.248,1.518 1.257,2.634 1.999,3.972c1.72,3.1 6.299,3.985 6.932,4.107c1.742,0.337 4.602,1.615 10.072,-0.942c4.767,-2.229 5.592,-7.292 6.369,-11.006c0.489,-2.339 0.246,-2.366 0.271,-42.122c0.003,-4.298 -0.517,-6.244 2.271,-6.349c0.242,-0.009 0.224,0 3.026,0.002Z" style="fill:url(#_Linear11);"/><path d="M1341.879,2440.5c-0.011,5.658 0.325,8.292 -1.491,8.744c-1.498,0.373 -2.146,0.042 -31.888,0.232c-11.631,0.074 -11.611,-0.317 -11.916,-0.361c-2.762,-0.398 -2.771,-0.009 -3.002,-0.077c-0.151,-0.044 -1.034,-0.305 -1.272,-1.495c-0.158,-0.789 0.008,-6.178 -0.159,-7.996c-0.062,-0.669 -0.191,-1.333 -0.205,-2.004c-0.007,-0.349 0.132,-0.688 0.144,-1.037c0.021,-0.586 -0.684,-2.899 -0.269,-4.911c0.422,-2.048 0.414,-2.048 0.413,-7.094c-0.002,-26.123 0.045,-26.126 -0.185,-27.954c-0.193,-1.531 0.056,-1.515 0.171,-3.059c0.002,-0.02 0.052,-16.265 -0.011,-17.973c-0.189,-5.141 -0.075,-7.401 1.394,-7.81c1.305,-0.364 1.322,-0.133 12.899,-0.207c2.139,-0.014 2.234,-0.207 4.046,0.952c1.251,0.801 0.973,1.173 0.985,19.05c0.017,24.08 -0.044,24.093 -0.409,25.902c-0.207,1.027 -0.302,1.495 -0.205,13.094c0.015,1.843 0.24,2.007 0.404,3.045c0.101,0.641 0.049,1.316 0.26,1.93c0.072,0.21 0.374,0.243 0.536,0.393c0.581,0.539 0.583,0.586 1.384,0.615c1.999,0.071 1.992,-0.217 24.999,-0.007c0.539,0.005 2.49,-0.091 2.999,1.028c0.479,1.054 0.379,2.619 0.38,7Z" style="fill:url(#_Linear12);"/><path d="M1103.499,2471.156c3.73,0.007 3.707,-0.007 4.028,0.007c3.554,0.162 1.838,2.13 2.231,16.325c0.046,1.659 0.582,1.602 0.585,5.012c0.011,13.812 0.226,13.81 0.072,15c-0.047,0.362 -0.368,0.649 -0.427,1.01c-0.11,0.677 -0.03,1.371 -0.07,2.055c-0.027,0.461 -0.179,0.958 -0.206,2.937c-0.017,1.279 -0.156,11.5 0.011,15.986c0.042,1.123 -0.087,1.27 0.84,1.901c0.486,0.331 0.539,0.154 3.937,0.168c2.111,0.008 2.85,0.472 3.044,0.493c0.273,0.029 0.269,-0.007 2.012,-0.331c2.531,-0.47 3.308,0.379 4.959,0.428c7.593,0.229 7.767,-0.653 12.031,-0.068c1.187,0.163 4.634,-0.405 5.158,1.348c0.314,1.052 0.168,11.114 0.154,12.081c-0.044,2.998 -1.362,2.165 -4.343,2.412c-1.537,0.127 -1.49,0.32 -3.027,0.433c-0.948,0.07 -21.44,0.112 -32.99,0.099c-3.02,-0.003 -2.966,-0.457 -5.014,-0.538c-1.519,-0.06 -1.504,0.06 -3.023,-0.018c-2.421,-0.123 -2.183,-1.682 -2.183,-3.397c0.002,-47.803 -0.059,-71.33 0.127,-72.026c0.425,-1.588 1.278,-1.316 12.092,-1.319Z" style="fill:url(#_Linear13);"/><path d="M1276.809,2371.498c-0.088,21.369 0.035,75.305 -0.114,76.046c-0.328,1.628 -0.562,1.711 -2.204,1.881c-0.425,0.044 -13.287,0.072 -13.982,-0.003c-0.702,-0.075 -0.691,-0.098 -1.267,-0.485c-0.239,-0.161 -0.548,-0.224 -0.752,-0.429c-1.196,-1.207 -0.927,-2.529 -0.968,-13.009c-0.002,-0.507 -0.084,-65.653 -0.043,-66.003c0.115,-0.967 0.837,-1.896 2.014,-2.037c0.204,-0.025 13.382,0.056 14,0.115c3.839,0.368 3.247,2.538 3.316,3.924Z" style="fill:url(#_Linear14);"/><path d="M1120.105,2580.923c0.581,0.569 0.562,0.576 2.398,2.574c0.171,0.186 0.476,0.019 1.136,1.954c1.145,3.355 4.727,10.142 -1.441,18.854c-1.724,2.435 -2.525,2.535 -3.483,3.436c-0.532,0.5 -0.551,0.455 -1.144,0.886c-0.135,0.098 -0.177,0.314 -0.333,0.374c-0.165,0.063 -0.361,-0.101 -0.528,-0.045c-0.139,0.047 -0.166,0.262 -0.3,0.323c-0.857,0.385 -8.503,1.241 -11.711,-0.205c-0.249,-0.112 -3.1,-1.549 -4.205,-2.569c-0.173,-0.16 -0.27,-0.391 -0.441,-0.552c-0.335,-0.315 -0.775,-0.517 -1.07,-0.869c-0.667,-0.797 -3.423,-5.769 -3.636,-9.578c-0.04,-0.721 -0.253,-4.523 1.335,-8.931c0.821,-2.281 4.353,-6.877 8.798,-8.147c1.469,-0.42 2.923,-1.208 7.019,-0.918c3.715,0.263 7.07,3.044 7.606,3.413l-15.926,20.892c0.689,0.558 0.485,1.042 4.14,2.149c5.692,1.723 9.383,-3.141 10.261,-5.429c0.201,-0.524 1.072,-2.793 0.607,-6.993c-0.193,-1.748 -1.809,-5.444 -3.879,-6.722c-2.554,-1.577 -7.288,-1.88 -9.694,-0.164c-5.616,4.004 -4.438,12.849 -2.715,15.615c0.085,0.136 0.095,0.114 1.28,1.545l15.926,-20.892Z" style="fill:#00ff95;"/><path d="M1224.139,2593.501c-0,-3 -0.001,-6.001 -0.001,-9.001c-0.004,-5.161 -0.213,-5.197 0.202,-6.113c0.417,-0.921 0.705,-0.934 11.16,-0.86c4.179,0.03 7.518,1.558 9.055,2.909c3.094,2.719 2.861,2.931 4.307,5.911c1.823,3.759 1.137,11.898 0.233,13.969c-0.194,0.444 -1.84,3.488 -2.076,3.775c-0.197,0.24 -4.463,4.101 -6.511,4.451c-0.648,0.111 -1.309,0.133 -1.956,0.248c-1.767,0.312 -2.397,1.103 -7.032,0.573c-2.046,-0.234 -4.013,0.554 -5.945,-0.029c-1.692,-0.511 -1.43,-1.175 -1.435,-15.832l19.976,-0.001c-0.109,-0.944 -0.283,-7.742 -5.741,-9.622c-1.022,-0.352 -6.375,-0.338 -6.856,-0.261c-2.084,0.334 -1.607,3.487 -1.608,4.883c-0.004,11.699 -0.117,13.132 0.402,14.138c0.554,1.074 8.661,1.401 11.23,-2.098c0.737,-1.004 1.427,-1.832 1.557,-2.205c0.82,-2.353 0.732,-2.369 1.015,-4.835l-19.976,0.001Z" style="fill:#00ff95;"/><path d="M1152.846,2606.217c-0.765,-0.917 -2.012,-2.854 -2.053,-2.91c-2.379,-3.314 -2.261,-3.391 -2.475,-3.674c-0.232,-0.306 -2.785,-3.678 -4.455,-1.794c-0.558,0.629 -0.332,4.189 -0.323,8.661c0.001,0.442 0.373,3.319 -3.043,3.032c-2.368,-0.199 -2.826,-1.816 -2.958,-3.036c-0.056,-0.513 -0.052,-21 -0.042,-24.996c0.006,-2.482 -0.089,-4.004 3.003,-4.034c10.684,-0.102 11.019,-0.01 11.94,0.244c2.594,0.716 2.632,0.608 4.966,1.929c1.279,0.724 2.058,2.974 2.427,3.719c1.706,3.444 0.49,8.483 -1.7,10.79c-2.345,2.47 -5.861,2.032 -4.057,4.573c1.675,2.36 1.605,2.397 3.035,4.114c0.975,1.169 0.918,1.191 1.711,2.473c0.497,0.803 1.76,1.805 1.562,3.156c-0.047,0.318 -0.229,1.557 -3.883,1.023c-1.826,-0.267 -1.651,-0.665 -2.771,-2.147c-0.432,-0.571 -0.433,-0.548 -0.885,-1.122l0.081,-21.134c-0.123,-0.095 -0.681,-1.145 -2.455,-1.39c-0.927,-0.128 -3.653,-0.115 -3.971,-0.114c-1.257,0.006 -1.401,-0.29 -2.309,0.593c-0.153,0.148 -0.398,0.217 -0.491,0.408c-0.257,0.528 -0.138,4.775 -0.13,4.913c0.046,0.756 0.061,0.777 0.624,1.304c0.147,0.138 0.223,0.366 0.408,0.447c0.51,0.223 5.535,0.146 5.873,0.078c3.147,-0.63 4.439,-3.654 2.946,-5.768c-0.132,-0.186 -0.365,-0.285 -0.496,-0.471l-0.081,21.134Z" style="fill:#00ff95;"/><path d="M1396.676,2591.818c-0.067,0.059 -0.832,0.734 -0.832,0.734c-0.114,1.11 0.104,1.103 0.054,13.952c-0.009,2.273 0.02,3.288 -3.404,3.127c-2.817,-0.133 -2.403,-1.433 -2.405,-9.131c-0.002,-4.551 0.382,-4.572 -0.404,-9.046c-0.226,-1.286 -0.463,-11.267 0.312,-12.672c0.087,-0.158 0.275,-0.235 0.396,-0.369c0.561,-0.622 0.623,-0.992 3.108,-0.931c4.357,0.107 4.063,2.059 6.48,5.679c2.165,3.242 1.996,3.336 4.171,6.554c0.865,1.28 0.866,1.265 1.668,2.599c0.713,1.186 0.928,1.03 1.568,2.257c0.335,0.641 0.395,0.591 0.717,1.249c0.866,1.773 0.504,2.232 1.488,2.316c0.865,0.074 0.801,-1.514 0.795,-1.661c-0.052,-1.278 -0.352,-8.725 -0.196,-15.987c0.059,-2.739 0.563,-3.123 3.308,-2.996c2.317,0.107 2.376,0.687 2.396,2.996c0.019,2.164 0.201,23.38 -0.017,27.052c-0.131,2.201 -1.535,2.09 -3.379,2.045c-2.592,-0.064 -2.886,-0.522 -4.141,-1.968c-0.992,-1.143 -1.616,-2.47 -2.937,-4.054c-0.977,-1.172 -3.941,-5.836 -4.044,-5.972c-1.102,-1.444 -0.888,-1.573 -1.977,-3.018c-1.095,-1.454 -0.938,-1.54 -1.894,-3.081c-0.277,0.109 -0.554,0.218 -0.83,0.327Z" style="fill:#00ff95;"/><path d="M1378.009,2595.443c-0.285,1.579 0.283,1.772 -2.397,7.118c-4.878,9.729 -17.176,8.083 -21.211,5.08c-1.326,-0.987 -1.777,-0.74 -3.602,-3.333c-2.212,-3.145 -1.957,-3.287 -3.155,-7.846c-0.265,-1.011 -0.365,-3.434 -0.015,-4.928c1.348,-5.757 1.739,-5.626 3.538,-8.25c2.727,-3.978 4.832,-4.399 7.147,-5.267c0.469,-0.176 1.491,-0.954 7.188,-0.567c0.985,0.067 3.788,0.665 5.245,1.601c0.151,0.097 0.167,0.037 1.922,1.15c2.703,1.713 2.656,2.343 3.146,3.134c0.37,0.595 1.808,2.22 -2.34,4.121c-2.916,1.336 -2.6,-0.681 -4.954,-1.991c-0.699,-0.389 -5.537,-3.647 -10.305,-0.43c-2.391,1.613 -5.249,4.273 -4.379,11.415c0.098,0.806 1.329,5.472 4.652,7.069c0.505,0.243 3.067,1.473 6.966,0.77c2.162,-0.39 5.381,-3.627 4.94,-5.745c-0.246,-1.183 -0.696,-0.728 -1.912,-0.752c-6.426,-0.127 -6.839,-0.081 -7.229,-1.188c-0.006,-0.016 -0.846,-3.659 1.203,-4.244c1.004,-0.286 1.026,-0.199 13.054,-0.122c3.383,0.022 2.452,2.222 2.497,3.207Z" style="fill:#00ff95;"/><path d="M1068.001,2604.495c-0.118,3.921 0.365,5.721 -3.515,5.094c-2.367,-0.382 -2.147,-2.856 -2.154,-3.082c-0.087,-2.943 0.067,-9.317 0.016,-25.007c-0.015,-4.63 1.93,-4.012 10.152,-4.015c5.063,-0.002 7.509,0.071 11.041,3.979c4.629,5.121 1.73,15.631 -7.029,16.245c-1.511,0.106 -6.635,0.025 -6.917,0.153c-1.666,0.751 -0.912,1.302 -1.275,3.598c-0.241,1.525 -0.222,1.51 -0.319,3.036l11.072,-16.014c-0.622,-2.81 -0.396,-5.044 -8.558,-4.754c-2.459,0.087 -2.023,2.358 -2.036,3.773c-0.018,1.995 -0.743,3.985 0.305,4.52c0.487,0.248 3.417,0.244 3.714,0.244c6.148,-0.009 6.231,-2.939 6.574,-3.783l-11.072,16.014Z" style="fill:#00ff95;"/><path d="M1050.85,2600.509c-0.225,2.611 -0.159,2.654 -1.411,4.952c-0.311,0.57 -1.837,3.371 -6.887,4.302c-0.368,0.068 -5.417,0.505 -8.029,-0.326c-4.049,-1.288 -5.428,-3.624 -5.714,-4.109c-1.454,-2.464 0.691,-3.259 1.605,-3.953c2.429,-1.844 2.752,0.199 4.113,1.094c0.583,0.383 5.124,3.371 8.694,0.667c1.433,-1.086 1.415,-4.188 -0.901,-5.225c-3.102,-1.389 -7.197,-0.618 -11.211,-3.953c-0.858,-0.713 -0.991,-0.579 -1.52,-1.517c-1.094,-1.942 -3.333,-6.289 0.664,-11.13c0.261,-0.316 1.805,-2.187 4.222,-2.908c0.153,-0.046 3.264,-1.397 7.025,-0.892c0.326,0.044 0.755,0.101 3.952,1.121c1.494,0.476 3.759,2.141 3.972,2.904c0.455,1.63 -0.936,2.362 -1.699,3.19c-0.108,0.117 -1.297,1.406 -1.375,1.434c-0.777,0.277 -1.366,-1.229 -3.663,-2.09c-0.389,-0.146 -2.318,-0.869 -5.167,-0.453c-2.501,0.366 -5.368,4.207 0.806,6.329c2.711,0.932 10.057,1.13 12.172,7.556c0.479,1.457 0.284,1.475 0.355,3.007Z" style="fill:#00ff95;"/><path d="M1295.145,2587.508c0.084,-2.455 -0.07,-3.348 1.239,-5.09c1.545,-2.056 2.124,-3.156 6.275,-4.488c5.796,-1.86 11.925,1.402 12.827,2.583c1.212,1.587 1.812,1.95 0.351,3.3c-2.317,2.14 -2.221,2.263 -2.476,2.361c-0.58,0.223 -0.58,0.031 -1.018,-0.409c-2.31,-2.326 -2.559,-2.043 -5.818,-2.433c-3.97,-0.476 -5.328,2.524 -4.791,4.082c0.22,0.638 1.334,1.435 1.472,1.534c3.083,2.205 4.953,0.771 10.252,3.619c6.339,3.407 6.009,15.94 -3.923,17.185c-7.804,0.978 -11.434,-2.011 -11.984,-2.327c-1.08,-0.62 -2.821,-3.563 -2.833,-3.962c-0.038,-1.304 3.595,-3.381 4.61,-2.701c0.055,0.037 1.715,2.351 4.324,3.27c1.029,0.362 4.666,0.586 6.571,-0.883c1.405,-1.084 1.047,-3.236 0.927,-3.524c-0.264,-0.632 -0.99,-2.368 -7.718,-3.705c-8.339,-1.658 -8.121,-6.269 -8.287,-8.412Z" style="fill:#00ff95;"/><path d="M1263.149,2597.5c-0.002,-1.362 -0.027,-15.99 0.008,-17.022c0.114,-3.353 2.659,-3.001 4.343,-2.982c8.103,0.091 12.613,-0.162 13.913,0.212c2.02,0.582 1.549,4.917 0.849,5.54c-1.084,0.965 -11.624,-0.001 -12.614,0.522c-0.268,0.142 -1.092,0.577 -0.784,3.704c0.301,3.06 1.149,2.779 2.636,2.753c0.645,-0.011 7.403,-0.129 8.061,0.035c2.104,0.524 1.323,4.737 0.882,5.184c-1.064,1.079 -9.719,-0.165 -10.949,1.048c-0.792,0.781 -0.422,0.933 -0.404,2.051c0.032,1.934 -1.702,4.672 2.411,4.717c4.012,0.044 4,0.256 8,0.022c0.29,-0.017 2.872,-0.167 3.578,0.622c0.184,0.206 1.525,3.865 -0.78,5.2c-0.965,0.559 -3.432,0.103 -3.725,0.048c-2.32,-0.429 -3.342,0.185 -5.075,0.322c-0.589,0.047 -7.707,0.084 -8.001,0.053c-2.756,-0.294 -2.371,-1.446 -2.348,-12.029Z" style="fill:#00ff95;"/><path d="M1184.904,2594.501c-0.001,8.2 0.006,8.187 0.001,10.002c-0.001,0.241 -0.006,2.135 0.057,3.01c0.112,1.558 -0.115,2.204 -3.464,2.037c-2.293,-0.114 -2.258,-0.755 -2.267,-3.046c-0.083,-21.424 0.23,-21.593 -0.427,-22.288c-1.384,-1.465 -6.72,0.498 -7.467,-1.649c-0.013,-0.037 -0.845,-4.241 1.262,-4.841c1.465,-0.417 5.463,-0.171 16.901,-0.191c2.196,-0.004 4.113,-0.185 4.158,2.961c0.038,2.709 -0.46,3.037 -3.155,3.106c-1.563,0.04 -4.752,-0.201 -5.225,0.738c-0.459,0.91 -0.369,1.278 -0.375,10.161Z" style="fill:#00ff95;"/><path d="M1335.001,2595.504c0.098,2.141 0.095,3.645 0.094,3.962c-0.006,2.803 2.256,9.701 -2.594,10.049c-3.182,0.228 -3.045,-2.104 -3.062,-3.013c-0.016,-0.854 -0.023,-26.419 0.063,-27.002c0.465,-3.155 5.902,-2.499 5.972,1.001c0.012,0.606 -0.789,1.829 -0.472,15.003Z" style="fill:#00ff95;"/><path d="M1276.33,2601.35c0.051,-0.038 0.12,-0.859 1.17,-0.866c0.116,-0.001 1.814,-0.011 1.192,0.836c-0.428,0.582 -1.085,0.59 -1.191,0.591c-0.69,0.009 -0.493,-0.57 -1.17,-0.562Z" style="fill:none;"/></g><defs><linearGradient id="_Linear1" x1="0" y1="0" x2="1" y2="0" gradientUnits="userSpaceOnUse" gradientTransform="matrix(-255,0,-0,-255,937,2492)"><stop offset="0" style="stop-color:#14e086;stop-opacity:1"/><stop offset="0.44" style="stop-color:#1de7a9;stop-opacity:1"/><stop offset="1" style="stop-color:#32f7fb;stop-opacity:1"/></linearGradient><linearGradient id="_Linear2" x1="0" y1="0" x2="1" y2="0" gradientUnits="userSpaceOnUse" gradientTransform="matrix(-503.340723,-0.90026,0.90026,-503.340723,1524.340723,2450.42766)"><stop offset="0" style="stop-color:#19fd9e;stop-opacity:1"/><stop offset="1" style="stop-color:#0fffdf;stop-opacity:1"/></linearGradient><linearGradient id="_Linear3" x1="0" y1="0" x2="1" y2="0" gradientUnits="userSpaceOnUse" gradientTransform="matrix(-503.340723,-0.90026,0.90026,-503.340723,1524.340723,2450.42766)"><stop offset="0" style="stop-color:#19fd9e;stop-opacity:1"/><stop offset="1" style="stop-color:#0fffdf;stop-opacity:1"/></linearGradient><linearGradient id="_Linear4" x1="0" y1="0" x2="1" y2="0" gradientUnits="userSpaceOnUse" gradientTransform="matrix(-503.340723,-0.90026,0.90026,-503.340723,1524.340723,2450.42766)"><stop offset="0" style="stop-color:#19fd9e;stop-opacity:1"/><stop offset="1" style="stop-color:#0fffdf;stop-opacity:1"/></linearGradient><linearGradient id="_Linear5" x1="0" y1="0" x2="1" y2="0" gradientUnits="userSpaceOnUse" gradientTransform="matrix(-503.340723,-0.90026,0.90026,-503.340723,1524.340723,2450.42766)"><stop offset="0" style="stop-color:#19fd9e;stop-opacity:1"/><stop offset="1" style="stop-color:#0fffdf;stop-opacity:1"/></linearGradient><linearGradient id="_Linear6" x1="0" y1="0" x2="1" y2="0" gradientUnits="userSpaceOnUse" gradientTransform="matrix(-503.340723,-0.90026,0.90026,-503.340723,1524.340723,2450.42766)"><stop offset="0" style="stop-color:#19fd9e;stop-opacity:1"/><stop offset="1" style="stop-color:#0fffdf;stop-opacity:1"/></linearGradient><linearGradient id="_Linear7" x1="0" y1="0" x2="1" y2="0" gradientUnits="userSpaceOnUse" gradientTransform="matrix(-503.340723,-0.90026,0.90026,-503.340723,1524.340723,2450.42766)"><stop offset="0" style="stop-color:#19fd9e;stop-opacity:1"/><stop offset="1" style="stop-color:#0fffdf;stop-opacity:1"/></linearGradient><linearGradient id="_Linear8" x1="0" y1="0" x2="1" y2="0" gradientUnits="userSpaceOnUse" gradientTransform="matrix(-503.340723,-0.90026,0.90026,-503.340723,1524.340723,2450.42766)"><stop offset="0" style="stop-color:#19fd9e;stop-opacity:1"/><stop offset="1" style="stop-color:#0fffdf;stop-opacity:1"/></linearGradient><linearGradient id="_Linear9" x1="0" y1="0" x2="1" y2="0" gradientUnits="userSpaceOnUse" gradientTransform="matrix(-503.340723,-0.90026,0.90026,-503.340723,1524.340723,2450.42766)"><stop offset="0" style="stop-color:#19fd9e;stop-opacity:1"/><stop offset="1" style="stop-color:#0fffdf;stop-opacity:1"/></linearGradient><linearGradient id="_Linear10" x1="0" y1="0" x2="1" y2="0" gradientUnits="userSpaceOnUse" gradientTransform="matrix(-503.340723,-0.90026,0.90026,-503.340723,1524.340723,2450.42766)"><stop offset="0" style="stop-color:#19fd9e;stop-opacity:1"/><stop offset="1" style="stop-color:#0fffdf;stop-opacity:1"/></linearGradient><linearGradient id="_Linear11" x1="0" y1="0" x2="1" y2="0" gradientUnits="userSpaceOnUse" gradientTransform="matrix(-503.340723,-0.90026,0.90026,-503.340723,1524.340723,2450.42766)"><stop offset="0" style="stop-color:#19fd9e;stop-opacity:1"/><stop offset="1" style="stop-color:#0fffdf;stop-opacity:1"/></linearGradient><linearGradient id="_Linear12" x1="0" y1="0" x2="1" y2="0" gradientUnits="userSpaceOnUse" gradientTransform="matrix(-503.340723,-0.90026,0.90026,-503.340723,1524.340723,2450.42766)"><stop offset="0" style="stop-color:#19fd9e;stop-opacity:1"/><stop offset="1" style="stop-color:#0fffdf;stop-opacity:1"/></linearGradient><linearGradient id="_Linear13" x1="0" y1="0" x2="1" y2="0" gradientUnits="userSpaceOnUse" gradientTransform="matrix(-503.340723,-0.90026,0.90026,-503.340723,1524.340723,2450.42766)"><stop offset="0" style="stop-color:#19fd9e;stop-opacity:1"/><stop offset="1" style="stop-color:#0fffdf;stop-opacity:1"/></linearGradient><linearGradient id="_Linear14" x1="0" y1="0" x2="1" y2="0" gradientUnits="userSpaceOnUse" gradientTransform="matrix(-503.340723,-0.90026,0.90026,-503.340723,1524.340723,2450.42766)"><stop offset="0" style="stop-color:#19fd9e;stop-opacity:1"/><stop offset="1" style="stop-color:#0fffdf;stop-opacity:1"/></linearGradient></defs></svg>