<?xml version="1.0" encoding="UTF-8" standalone="no"?><!DOCTYPE svg PUBLIC "-//W3C//DTD SVG 1.1//EN" "http://www.w3.org/Graphics/SVG/1.1/DTD/svg11.dtd"><svg width="100%" height="100%" viewBox="0 0 2481 3508" version="1.1" xmlns="http://www.w3.org/2000/svg" xmlns:xlink="http://www.w3.org/1999/xlink" xml:space="preserve" xmlns:serif="http://www.serif.com/" style="fill-rule:evenodd;clip-rule:evenodd;stroke-linejoin:round;stroke-miterlimit:2;"><g id="ChatGPT-Image-9-dic-2025--02_13_22.png" serif:id="ChatGPT Image 9 dic 2025, 02_13_22.png"><path d="M57.572,1431.664c0.376,-7.684 -0.799,-8.261 1.586,-10.239c2.665,-2.21 3.276,-1.055 336.409,-1.12c132.26,-0.026 132.305,0.169 134.174,0.696c2.525,0.712 2.415,1.247 8.352,1.474c1.313,0.05 10.629,0.406 16.403,0.731c5.598,0.315 7.759,1.858 8.494,2.097c2.493,0.81 2.558,0.409 5.091,1.22c11.707,3.745 12.268,1.184 16.298,3.028c0.355,0.163 0.363,0.796 0.736,0.913c0.505,0.158 1.069,-0.343 1.575,-0.189c0.72,0.22 0.384,1.466 8.96,3.907c4.19,1.192 4.014,1.518 7.994,3.309c7.303,3.285 7.473,2.683 8.083,3.006c2.078,1.102 1.544,2.082 8.609,4.625c2.059,0.741 1.87,1.015 3.32,1.945c4.453,2.857 6.737,3.878 7.353,4.154c4.641,2.077 5.642,3.541 6.384,4.118c0.585,0.455 1.286,0.739 1.915,1.131c1.309,0.815 4.74,3.919 5.975,4.716c4.211,2.719 4.231,2.663 7.839,6.113c1.431,1.368 1.421,1.29 2.829,2.647c0.834,0.803 19.221,17.524 25.492,26.895c2.284,3.413 6.254,6.541 18.972,27.607c7.098,11.757 7.451,12.747 7.882,13.955c1.811,5.075 4.049,7.368 9.291,17.218c1.159,2.179 0.664,2.359 1.887,4.544c5.655,10.099 24.708,48.5 25.029,49.129c1.149,2.254 5.049,7.309 6.823,11.661c0.862,2.113 11.179,22.133 12.167,24.05c1.413,2.742 1.41,2.702 2.808,5.457c11.722,23.095 12.892,24.937 14.201,26.997c0.26,0.409 0.745,0.642 1,1.054c0.563,0.91 0.52,0.911 12.211,24.004c4.994,9.864 11.792,20.925 12.474,22.538c0.812,1.92 8.646,16.586 9.73,18.287c0.263,0.413 0.791,0.613 1.05,1.028c1.312,2.101 0.664,2.341 1.85,4.489c0.204,0.37 0.684,0.538 0.883,0.912c0.396,0.747 0.594,1.585 0.866,2.386c2.571,7.592 4.497,6.927 7.489,14.021c1.251,2.967 3.187,5.489 5.578,10.914c1.393,3.16 3.743,6.822 4.109,7.392c0.269,0.419 0.817,0.607 1.081,1.028c1.296,2.061 0.629,2.316 1.856,4.478c0.21,0.369 0.698,0.529 0.899,0.903c0.399,0.743 0.592,1.58 0.862,2.379c1.984,5.867 2.926,5.341 5.722,10.801c0.89,1.738 9.363,18.283 11.466,21.54c0.269,0.417 0.817,0.602 1.084,1.02c1.309,2.043 0.649,2.323 1.877,4.427c0.226,0.388 0.751,0.55 0.956,0.95c0.743,1.448 1.125,3.062 1.85,4.519c0.189,0.38 0.666,0.56 0.863,0.935c1.314,2.509 0.214,3.077 5.081,11.262c9.7,16.315 9.967,18.658 13.036,23.419c0.265,0.411 0.788,0.614 1.049,1.028c1.308,2.079 0.673,2.32 1.884,4.439c0.221,0.387 0.725,0.565 0.928,0.962c0.536,1.047 0.374,1.12 6.485,13.191c1.859,3.672 8.318,15.483 8.699,16.085c0.263,0.416 0.817,0.59 1.08,1.006c1.316,2.072 0.621,2.353 1.861,4.438c0.232,0.39 0.776,0.537 0.984,0.94c0.746,1.446 1.113,3.066 1.835,4.524c0.189,0.381 0.669,0.558 0.868,0.934c0.394,0.743 0.6,1.571 0.879,2.364c0.898,2.556 1.06,2.427 5.705,10.812c3.363,6.07 3.847,5.712 4.13,6.239c0.76,1.415 1.078,3.037 1.825,4.458c0.21,0.4 0.79,0.514 0.999,0.914c0.751,1.439 1.091,3.069 1.834,4.512c0.204,0.397 0.758,0.533 0.967,0.928c0.757,1.431 1.146,3.036 1.888,4.475c0.206,0.399 0.718,0.579 0.925,0.978c0.747,1.438 1.165,3.031 1.908,4.471c0.203,0.393 0.677,0.593 0.899,0.975c0.409,0.704 0.656,1.49 0.971,2.241c0.708,1.69 0.88,1.562 1.722,3.208c0.848,1.658 0.458,2.497 2.346,5.728c4.601,7.874 5.075,7.559 5.421,8.27c0.816,1.677 0.33,1.872 2.529,5.599c2.9,4.916 3.06,4.795 3.297,5.229c0.768,1.404 1.19,2.979 1.945,4.39c0.21,0.393 0.715,0.573 0.92,0.969c0.747,1.44 1.168,3.032 1.904,4.478c0.197,0.388 0.673,0.585 0.87,0.973c0.739,1.453 1.184,3.043 1.914,4.501c0.188,0.375 0.626,0.584 0.818,0.958c0.921,1.786 0.329,2.202 2.35,5.715c12.091,21.02 11.489,21.335 11.494,21.445c0.222,4.632 -5.234,3.047 -26.932,3.054c-116.326,0.037 -116.284,0.128 -117.85,-0.027c-6.291,-0.623 -5.38,-3.197 -12.369,-14.816c-4.823,-8.018 -5.173,-10.424 -7.946,-14.95c-1.621,-2.646 -1.397,-2.707 -2.899,-5.377c-0.245,-0.435 -0.769,-0.656 -1.048,-1.071c-0.428,-0.637 -0.612,-1.419 -1.05,-2.049c-0.28,-0.403 -0.818,-0.588 -1.075,-1.006c-1.257,-2.052 -0.592,-2.333 -1.861,-4.416c-0.236,-0.387 -0.748,-0.562 -0.963,-0.961c-0.767,-1.419 -1.197,-3.003 -1.952,-4.429c-0.208,-0.393 -0.702,-0.584 -0.91,-0.978c-0.755,-1.432 -1.201,-3.013 -1.95,-4.448c-0.202,-0.387 -0.677,-0.585 -0.88,-0.972c-2.666,-5.088 -2.349,-5.213 -5.607,-10.902c-2.132,-3.723 -1.679,-3.914 -3.871,-7.635c-0.345,-0.586 -3.951,-5.832 -4.938,-8.509c-1.074,-2.913 -1.205,-2.797 -2.509,-5.599c-2.919,-6.273 -3.225,-6.076 -7.957,-13.863c-0.007,-0.011 -2.35,-5.52 -6.2,-7.07c-1.62,-0.652 -153.072,-0.263 -276.493,-0.472c-32.446,-0.055 -35.485,1.215 -35.119,-3.058c0.125,-1.464 0.491,-1.269 1.916,-3.01c1.987,-2.427 14.368,-26.377 14.659,-26.848c4.208,-6.81 4.174,-6.766 7.994,-13.851c13.391,-24.84 13.01,-24.996 14.181,-27.148c0.219,-0.402 0.753,-0.559 0.995,-0.948c1.281,-2.061 0.563,-2.336 1.867,-4.402c0.265,-0.419 0.826,-0.584 1.109,-0.991c1.613,-2.322 4.612,-8.798 7.835,-13.928c2.718,-4.326 2.354,-5.048 5.75,-10.735c0.415,-0.694 0.689,-1.463 1.011,-2.205c0.765,-1.765 0.883,-1.641 1.927,-3.213c1.548,-2.33 5.411,-10.035 8.649,-11.001c1.445,-0.431 1.478,-0.345 167.247,-0.416c11.414,-0.005 16.007,1.136 16.075,-2c0.046,-2.137 -1.365,-2.823 -1.458,-2.965c-1.473,-2.252 -0.323,-2.809 -5.366,-11.28c-9.122,-15.325 -10.478,-19.216 -12.801,-23.65c-4.511,-8.606 -11.936,-20.2 -12.785,-22.376c-2.535,-6.495 -3.799,-5.822 -5.734,-10.865c-2.243,-5.847 -4.765,-7.896 -5.116,-8.404c-0.454,-0.658 -0.576,-1.506 -1.017,-2.173c-0.252,-0.381 -0.81,-0.508 -1.025,-0.912c-0.764,-1.437 -1.122,-3.064 -1.859,-4.515c-0.19,-0.375 -0.71,-0.515 -0.886,-0.896c-0.704,-1.522 -1.067,-3.183 -1.717,-4.73c-1.893,-4.507 -5.782,-11 -6.338,-11.927c-8.576,-14.319 -8.643,-14.495 -9.159,-15.867c-2.384,-6.334 -4.046,-6.425 -5.747,-10.863c-2.197,-5.732 -2.934,-5.322 -5.772,-10.799c-20.519,-39.6 -25.715,-46.4 -26.952,-49.541c-0.247,-0.628 -1.709,-4.342 -3.866,-7.504c-5.113,-7.498 -4.822,-7.67 -5.293,-8.302c-1.818,-2.442 -1.554,-2.571 -3.184,-5.103c-0.301,-0.467 -0.879,-0.695 -1.229,-1.127c-4.125,-5.089 -3.373,-5.638 -8.374,-10.836c-2.046,-2.127 -2.163,-1.933 -4.303,-3.973c-4.292,-4.091 -4.331,-3.979 -9.154,-7.363c-4.161,-2.92 -5.214,-5.206 -11.367,-7.388c-4.116,-1.46 -3.925,-1.757 -7.954,-3.441c-6.996,-2.924 -7.252,-1.75 -11.039,-2.635c-1.133,-0.265 -2.127,-0.954 -3.227,-1.334c-3.692,-1.275 -12.8,-1.437 -13.221,-1.47c-4.578,-0.359 -4.423,-1.474 -10.982,-1.534c-75.748,-0.699 -75.757,0.84 -82.319,0.28c-4.739,-0.404 -6.884,1.005 -10.843,1.404c-2.662,0.269 -99.314,0.291 -104.119,0.2c-6.329,-0.12 -6.42,-1.523 -11.015,-1.767c-2.34,-0.124 -68.008,-0.071 -73.922,-0.067c-27.023,0.022 -28.005,-0.59 -31.181,3.831c-1.631,2.27 -1.081,6.476 -1.003,11.541c0.13,8.376 -0.474,8.432 1.659,16.589c0.663,2.535 1.428,5.458 0.608,32.751c-0.18,6.01 -1.905,6.332 -2.145,11.001c-0.047,0.909 -0.026,95.469 0.003,95.822c0.116,1.406 1.85,6.026 1.976,10.994c0.049,1.926 -0.173,76.423 -0.18,76.72c-0.09,3.947 -1.047,4.875 -1.262,5.694c-0.946,3.602 -0.543,19.999 -0.622,62.812c-0.015,8.413 -1.566,18.473 4.92,21.145c3.474,1.431 15.155,-1.06 16.446,-1.335c3.957,-0.844 3.999,-0.328 7.975,-1.034c1.86,-0.33 14.974,-4.395 21.34,-8.807c3.154,-2.186 3.381,-1.799 6.25,-4.345c0.697,-0.618 6.38,-5.662 8.271,-8.193c1.168,-1.564 1.319,-1.384 2.686,-2.797c1.558,-1.609 5.693,-7.253 7.141,-9.068c7.998,-10.02 6.894,-10.742 11.042,-16.317c0.465,-0.625 4.716,-6.339 5.489,-8.034c0.686,-1.504 1.093,-3.13 1.832,-4.609c0.195,-0.39 0.705,-0.546 0.933,-0.918c1.267,-2.064 0.539,-2.351 1.873,-4.397c0.274,-0.421 0.869,-0.552 1.164,-0.959c0.447,-0.619 0.58,-1.425 1.013,-2.054c1.086,-1.58 1.322,-1.383 2.162,-3.141c1.337,-2.797 1.695,-2.561 2.952,-5.364c2.836,-6.324 4.806,-5.211 8.178,-13.733c1.645,-4.157 3.352,-4.759 5.416,-8.245c0.411,-0.694 0.758,-1.425 1.174,-2.116c3.147,-5.231 2.332,-5.617 5.372,-10.937c0.249,-0.435 0.815,-0.61 1.107,-1.017c1.118,-1.563 1.014,-1.573 2.188,-3.146c3.656,-4.896 2.5,-5.528 5.914,-10.619c1.539,-2.296 7.434,-13.184 9.274,-15.713c8.681,-11.926 6.815,-13.034 11.034,-19.118c0.768,-1.107 1.06,-0.842 2.351,-3.057c2.528,-4.34 1.922,-4.61 4.707,-8.709c3.16,-4.651 3.211,-4.607 3.467,-5.023c5.933,-9.627 5.549,-9.78 6.065,-10.61c7.775,-12.497 7.498,-12.645 8.18,-13.726c3.644,-5.778 3.524,-5.783 7.054,-11.62c7.62,-12.596 7.539,-12.624 8.209,-13.713c11.98,-19.492 11.19,-20.527 14.333,-21.555c4.179,-1.366 94.408,-0.058 98.535,-0.783c3.748,-0.659 3.688,-1.045 11.057,-1.095c8.35,-0.057 8.349,-0.657 16.58,0.641c2.761,0.435 2.774,-0.09 5.53,0.33c4.586,0.699 4.255,2.964 4.193,3.39c-0.049,0.339 -11.432,21.067 -12.11,22.4c-3.572,7.024 -3.485,7.016 -3.857,7.586c-1.363,2.086 -1.883,1.738 -5.326,8.362c-5.097,9.809 -5.435,9.543 -11.032,19.148c-0.395,0.679 -3.157,5.419 -4.592,8.681c-0.788,1.792 -1.013,1.618 -2.071,3.228c-7.352,11.183 -6.076,11.883 -13.255,23.212c-3.122,4.926 -6.504,11.894 -11,19.156c-2.49,4.021 -2.617,3.916 -2.808,4.278c-3.901,7.386 -3.688,7.473 -6.011,10.76c-0.44,0.622 -0.707,1.35 -1.102,2.002c-1.07,1.769 -9.766,16.145 -12.978,22.347c-9.156,17.678 -10.593,18.132 -11.27,19.048c-0.855,1.157 -10.15,18.656 -15.01,26.68c-2.338,3.86 -2.168,4.887 -2.528,5.603c-0.211,0.42 -0.772,0.569 -1.037,0.958c-0.436,0.64 -0.597,1.441 -1.032,2.082c-0.28,0.412 -0.833,0.6 -1.082,1.031c-0.786,1.364 -1.219,2.91 -1.982,4.287c-0.239,0.431 -0.731,0.677 -0.996,1.093c-3.934,6.184 -3.307,6.481 -7.154,12.652c-1.092,1.752 -11.361,18.227 -12.943,22.323c-1.828,4.731 -8.265,11.979 -10.938,19.185c-0.673,1.815 -0.843,1.688 -1.922,3.329c-4.37,6.647 -12.196,21.046 -14.209,24.282c-2.615,4.205 -2.746,4.059 -5.468,8.255c-3.349,5.163 -3.534,4.98 -7.147,9.911c-0.358,0.488 -4.039,5.512 -4.448,6.123c-1.425,2.127 -1.693,1.846 -2.646,2.826c-4.06,4.175 -4.009,4.172 -8.101,8.336c-2.885,2.935 -5.025,6.605 -10.972,10.966c-1.457,1.068 -7.766,7.858 -14.517,12.456c-7.625,5.193 -7.581,5.143 -15.432,9.929c-0.375,0.228 -0.571,0.699 -0.96,0.9c-1.447,0.746 -3.041,1.18 -4.495,1.914c-0.38,0.192 -0.58,0.65 -0.96,0.841c-1.461,0.733 -3.054,1.181 -4.519,1.907c-0.379,0.188 -0.593,0.628 -0.973,0.814c-1.471,0.721 -3.066,1.168 -4.538,1.888c-0.373,0.182 -0.579,0.622 -0.954,0.799c-1.49,0.703 -3.114,1.097 -4.595,1.818c-0.379,0.184 -0.523,0.727 -0.92,0.867c-0.46,0.162 -1,-0.184 -1.462,-0.028c-0.364,0.123 -0.478,0.644 -0.829,0.802c-0.446,0.202 -0.482,0.08 -5.797,1.973c-16.46,5.861 -16.797,4.655 -18.175,5.282c-0.334,0.152 -0.403,0.669 -0.74,0.815c-4.013,1.732 -4.404,-0.056 -11.231,2.13c-10.559,3.381 -11.14,-0.245 -21.866,2.753c-0.395,0.11 -3.146,0.88 -5.008,1.106c-3.99,0.485 -140.594,0.398 -142.455,0.266c-4.695,-0.333 -5.302,-0.713 -6.154,-5.38c-0.552,-3.026 -0.165,-475.244 -0.292,-600.215Z" style="fill:url(#_Linear1);"/><path d="M2058.778,1422.481c23.256,0.563 23.397,3.31 30.413,5.61c4.164,1.365 4.753,0.101 16.997,7.747c6.882,4.297 7.683,3.042 13.735,8.474c1.16,1.041 11.482,10.307 14.265,13.275c0.445,0.474 8.681,10.168 8.705,10.208c0.8,1.319 1.221,2.847 2.033,4.159c0.28,0.453 0.885,0.626 1.197,1.058c0.447,0.618 0.591,1.421 1.039,2.037c0.296,0.407 0.91,0.534 1.152,0.975c0.774,1.409 1.102,3.03 1.834,4.462c0.2,0.392 0.737,0.542 0.928,0.939c2.325,4.818 3.758,9.516 4.018,10.367c0.897,2.939 1.447,2.68 2.231,5.666c0.22,0.838 0.253,1.739 0.616,2.526c0.157,0.339 0.783,0.34 0.874,0.703c0.152,0.606 -0.346,1.245 -0.231,1.859c0.207,1.099 0.903,2.058 1.174,3.143c0.105,0.421 0.021,2.966 1.546,7.769c1.463,4.606 2.355,10.485 1.428,38.771c-0.272,8.319 -1.494,8.074 -3.319,16.228c-0.196,0.876 -1.89,8.446 -2.813,10.864c-2.836,7.428 -2.686,7.473 -2.947,8.112c-0.151,0.369 -0.707,0.452 -0.88,0.812c-0.712,1.481 -1.006,3.14 -1.728,4.616c-0.2,0.409 -0.753,0.552 -0.993,0.939c-1.284,2.068 -0.554,2.369 -1.85,4.435c-0.264,0.421 -0.834,0.575 -1.122,0.98c-0.438,0.616 -0.572,1.415 -1.014,2.029c-0.841,1.169 -1.141,0.861 -2.462,2.963c-5.971,9.505 -8.482,10.327 -10.986,13.654c-1.192,1.583 -1.352,1.346 -2.748,2.727c-0.46,0.455 -0.653,1.147 -1.147,1.564c-1.037,0.874 -2.332,1.402 -3.385,2.257c-0.474,0.385 -0.681,1.035 -1.15,1.427c-0.545,0.456 -1.287,0.63 -1.84,1.076c-0.431,0.347 -0.627,0.937 -1.069,1.271c-0.612,0.463 -1.406,0.636 -2.034,1.077c-0.41,0.288 -0.626,0.805 -1.044,1.081c-1.288,0.849 -2.746,1.42 -4.036,2.267c-0.416,0.273 -0.611,0.823 -1.044,1.068c-1.39,0.787 -2.95,1.239 -4.36,1.99c-1.676,0.893 -1.503,1.096 -3.317,1.757c-6.888,2.512 -6.291,3.785 -11.041,5.28c-0.855,0.269 -7.452,2.345 -10.588,3.653c-0.344,0.143 -0.448,0.645 -0.792,0.789c-1.734,0.723 -10.841,1.309 -13.045,1.914c-5.959,1.636 -5.979,1.644 -19.43,1.607c-9.696,-0.026 -9.537,-1.293 -19.205,-2.266c-11.361,-1.142 -10.966,-2.635 -21.894,-5.754c-1.345,-0.384 -18.052,-8.512 -26.424,-14.828c-5.751,-4.338 -9.484,-7.985 -10.255,-8.738c-1.443,-1.409 -1.78,-0.921 -3.122,-2.412c-2.244,-2.493 -5.362,-6.901 -5.801,-7.521c-3.303,-4.67 -8.125,-9.131 -16.774,-29.793c-4.086,-9.761 -2.644,-10.125 -5.394,-21.836c-2.056,-8.757 -1.043,-30.084 -0.919,-32.698c0.212,-4.463 -0.237,-9.325 4.892,-24.919c3.092,-9.4 2.465,-9.649 7.372,-18.263c7.745,-13.595 7.135,-14.103 18.134,-25.238c9.728,-9.848 9.713,-9.907 21.422,-17.272c0.861,-0.541 17.53,-12.224 41.274,-16.557c5.558,-1.014 5.546,-0.426 11.234,-0.122c1.094,0.058 1.086,-0.025 13.69,0.033l-25.055,180.142c2.897,0.596 2.802,1.79 25.044,1.542c21.193,-0.236 29.578,-10.726 33.049,-13.404c3.465,-2.674 8.166,-9.122 10.253,-14.09c0.657,-1.563 0.894,-3.276 1.505,-4.857c0.134,-0.347 0.564,-0.52 0.707,-0.864c1.589,-3.824 6.806,-16.384 3.99,-51.608c-0.726,-9.084 -3.326,-13.715 -5.391,-19.251c-2.169,-5.814 -2.861,-5.421 -5.859,-10.812c-0.837,-1.506 -6.697,-8.867 -13.793,-13.411c-13.537,-8.668 -27.447,-8.624 -29.939,-8.616c-12.612,0.04 -12.525,0.844 -16.676,2.091c-6.035,1.813 -6.219,1.387 -11.523,4.807c-6.09,3.926 -6.695,3.149 -11.395,8.679c-7.867,9.254 -6.925,9.885 -7.873,11.385c-1.008,1.595 -1.203,1.414 -1.933,3.176c-0.313,0.755 -0.51,1.564 -0.906,2.279c-0.92,1.659 -1.118,1.496 -1.716,3.256c-1.828,5.387 -2.186,5.254 -2.891,10.937c-0.866,6.989 -2.339,6.706 -2.657,13.707c-0.951,20.932 0.412,24.97 1.104,27.019c1.416,4.196 1.203,4.221 1.802,8.585c1.413,10.293 9.258,20.638 10.444,22.202c4.606,6.074 4.613,6.104 13.379,11.862c4.449,2.922 8.769,4.433 11.276,5.387l25.055,-180.142Z" style="fill:url(#_Linear2);"/><path d="M1180.773,1611.395c-0.888,0.907 -2.042,1.526 -2.93,2.433c-4.389,4.48 -5.034,7.712 -22.874,18.615c-2.627,1.605 -2.637,1.487 -5.273,3.057c-2.706,1.611 -2.812,1.26 -5.621,2.715c-0.358,0.185 -0.528,0.651 -0.9,0.807c-1.54,0.648 -3.229,0.905 -4.76,1.575c-0.357,0.156 -0.442,0.692 -0.796,0.856c-0.738,0.342 -7.199,1.443 -10.04,2.343c-7.278,2.307 -7.582,0.845 -13.755,2.74c-5.48,1.683 -5.532,1.397 -25.029,1.436c-30.502,0.06 -65.752,0.244 -68.49,-0.002c-3.051,-0.274 -2.99,-0.729 -8.275,-0.298c-0.872,0.071 -1.782,0.347 -2.621,0.101c-0.459,-0.135 -0.505,-0.838 -0.883,-1.131c-0.635,-0.493 -1.661,-0.511 -2.1,-1.184c-0.542,-0.832 -0.437,-0.932 -0.46,-205.571c-0.001,-9.67 -1.499,-16.307 8.85,-16.286c11.684,0.024 11.664,0.008 49.319,-0.044c24.03,-0.033 27.281,0.118 29.893,0.654c8.293,1.704 8.278,1.436 16.691,1.896c8.354,0.456 8.165,1.573 16.462,2.562c7.548,0.9 8.693,3.089 16.527,5.263c7.989,2.217 7.865,3.15 19.516,10.672c11.635,7.512 10.556,8.773 13.691,11.167c0.581,0.444 1.346,0.625 1.892,1.112c0.468,0.417 0.641,1.092 1.08,1.54c0.424,0.432 1.087,0.595 1.473,1.061c0.191,0.23 0.072,0.279 2.131,3.062c3.386,4.578 3.487,4.495 3.745,4.917c0.983,1.603 1.209,1.397 2.276,2.976c0.44,0.651 0.582,1.471 1.007,2.132c1.032,1.604 1.256,1.396 2.13,3.132c0.349,0.693 0.567,1.461 1.013,2.095c0.273,0.388 0.858,0.496 1.096,0.906c0.345,0.594 -0.143,0.787 3.067,8.027c1.889,4.261 1.586,4.353 1.762,4.715c0.16,0.329 0.598,0.484 0.719,0.83c0.364,1.046 2.435,7.005 3.612,13.366c1.004,5.422 2.307,7.013 2.502,10.973c0.296,6.01 0.451,34.071 -0.049,38.327c-0.62,5.286 -6.992,26.585 -8.648,29.842c-0.443,0.872 -0.702,0.679 -5.894,10.715c-2.952,5.707 -10.094,14.683 -11.058,15.896l-27.14,-75.605c-0.01,-0.134 0.284,-3.874 -0.624,-8.536c-0.122,-0.625 -1.514,-7.779 -1.523,-7.813c-0.308,-1.131 -0.997,-2.132 -1.331,-3.255c-2.019,-6.797 -1.635,-6.899 -1.909,-7.45c-0.17,-0.342 -0.679,-0.445 -0.821,-0.8c-0.631,-1.572 -0.908,-3.266 -1.453,-4.87c-1.066,-3.14 -2.169,-2.913 -5.229,-8.303c-2.379,-4.192 -9.512,-9.311 -9.955,-9.659c-9.665,-7.57 -10.885,-6.318 -14.25,-7.649c-0.359,-0.142 -0.47,-0.663 -0.827,-0.812c-1.565,-0.656 -3.237,-1.021 -4.844,-1.564c-3.178,-1.075 -4.3,-2.187 -16.592,-2.237c-30.673,-0.124 -33.04,-0.246 -34.37,1.1c-1.152,1.165 -1.11,8.998 -1.106,9.786c0.544,103.365 -0.174,103.353 -0.089,112.34c0.001,0.131 -0.416,5.297 5.426,5.462c28.004,0.79 33.334,-0.644 36.127,-1.396c6.858,-1.845 11.443,-0.646 26.131,-8.131c5.728,-2.919 14.837,-11.986 16.487,-15.478c1.34,-2.836 1.093,-2.893 2.763,-5.516c3.038,-4.772 2.383,-5.029 3.895,-10.478c3.372,-12.15 3.92,-12.095 4.095,-24.741l27.14,75.605Z" style="fill:url(#_Linear3);"/><path d="M1822.167,1801.551c0.063,-1.745 0.637,-17.635 1.715,-21.766c2.122,-8.136 10.603,-25.717 14.214,-32.334c2.002,-3.668 8.334,-10.553 10.716,-13.699c4.606,-6.08 5.073,-5.581 10.961,-10.507c14.667,-12.27 23.384,-14.423 43.065,-19.483c4.051,-1.041 27.943,-1.078 32.425,-0.056c12.529,2.857 12.631,2.309 13.7,2.629c7.72,2.307 7.706,2.105 8.37,2.307c7.157,2.18 6.778,2.97 14.186,7.197c13.573,7.745 17.062,12.776 20.004,16.008c2.114,2.323 4.739,3.298 13.229,17.23c6.663,10.935 9.861,20.398 10.491,22.263c0.61,1.806 4.485,13.112 4.963,16.554c1.673,12.042 1.026,27.749 0.927,30.161c-0.78,18.917 -2.295,19.038 -2.42,19.465c-2.182,7.458 -3.652,21.829 -18.546,42.832c-7.095,10.005 0.481,10.861 10.131,24.78c3.375,4.868 8.539,8.089 6.745,11.155c-1.075,1.837 -6.952,1.528 -7.569,1.495c-1.332,-0.07 -29.193,-0.004 -30.267,-0.098c-8.16,-0.713 -7.908,-7.366 -13.359,-5.733c-1.177,0.353 -11.337,6.529 -22.141,7.679c-8.332,0.887 -8.136,2.143 -16.46,2.299c-20.212,0.381 -20.111,-0.901 -22.177,-1.396c-1.89,-0.453 -11.43,-1.146 -13.255,-1.723c-16.879,-5.336 -23.885,-10.572 -25.701,-11.929c-8.173,-6.108 -13.264,-9.029 -19.88,-18.408c-4.606,-6.53 -4.328,-6.669 -8.374,-13.525c-5.015,-8.499 -6.079,-12.727 -7.345,-15.47c-2.914,-6.313 -6.807,-19.356 -6.85,-19.626c-2.445,-15.211 -1.624,-35.241 -1.499,-38.305l153.435,13.723c-0.162,-1.802 0.11,-3.625 -0.052,-5.427c-0.502,-5.566 -0.936,-5.446 -1.491,-11.033c-0.405,-4.079 -1.502,-5.423 -1.665,-6.018c-0.444,-1.624 -0.643,-3.305 -0.936,-4.962c-2.092,-11.828 -4.631,-11.169 -8.895,-18.946c-3.261,-5.948 -15.631,-14.74 -24.387,-16.442c-3.06,-0.595 -2.976,-0.685 -5.912,-1.596c-7.214,-2.238 -19.471,-1.056 -21.224,-0.545c-16.968,4.94 -21.703,6.959 -31.877,21.917c-2.018,2.967 -5.698,11.153 -6.614,15.669c-1.665,8.214 -2.732,8.013 -2.958,16.421c-0.62,23.031 0.882,28.27 1.558,30.629c0.887,3.094 2.3,10.975 4.769,15.596c6.049,11.324 12.706,18.801 29.724,23.917c3.24,0.974 30.169,2.941 29.716,-4.36c-0.131,-2.102 -9.395,-12.644 -12.621,-17.095c-4.551,-6.279 -7.684,-8.975 -8.849,-10.557c-8.614,-11.7 -8.667,-12.173 -8.811,-13.452c-0.47,-4.173 1.533,-3.346 5.693,-3.223c22.761,0.673 22.722,-0.072 32.927,0.206c4.013,0.109 4.246,0.329 9.885,6.699c4.251,4.802 7.603,9.623 8.524,10.687c1.38,1.594 1.599,1.312 3.065,2.821c0.371,0.382 0.334,1.137 0.81,1.375c0.379,0.189 4.11,0.108 4.324,-0.069c0.117,-0.097 3.164,-11.153 3.37,-13.05c1.047,-9.628 1.609,-9.532 1.927,-19.162l-153.435,-13.723Z" style="fill:url(#_Linear4);"/><path d="M1602.769,1557.507c-0.001,-0.009 0.402,-3.898 -0.533,-8.285c-3.075,-14.423 -1.039,-51.744 -2.747,-60.273c-1.304,-6.516 -1.028,-6.529 -1.044,-24.401c-0.028,-30.274 -0.056,-30.251 -0.039,-32.882c0.031,-4.957 0.66,-4.835 2.057,-6.216c0.411,-0.406 0.544,-1.105 1.054,-1.378c0.962,-0.514 4.734,-0.542 5.148,-0.545c35.21,-0.26 35.244,-0.308 38.198,0.479c8.732,2.325 8.544,4.116 8.559,13.141c0.015,9.207 0.154,95.724 -0.062,115.083c-0.092,8.29 -1.574,8.142 -1.595,16.439c-0.04,16.497 1.557,16.403 1.514,32.881c-0.102,39.037 0.064,39.073 -0.442,40.933c-0.15,0.551 -0.746,2.744 -5.557,4.479c-4.094,1.476 -17.867,1.029 -21.3,0.529c-5.577,-0.812 -5.532,-0.104 -11.119,0.333c-19.057,1.49 -18.543,-6.779 -23.171,-12.38c-4.45,-5.385 -4.029,-5.636 -7.73,-11.529c-3.644,-5.802 -4.438,-5.201 -7.868,-11.161c-4.948,-8.595 -5.711,-8.043 -11.022,-16.405c-1.364,-2.149 -12.584,-19.817 -17.276,-26.715c-5.138,-7.554 -4.976,-7.65 -5.44,-8.294c-3.338,-4.629 -2.804,-4.918 -5.987,-9.699c-12.165,-18.279 -12.904,-21.404 -15.984,-25.88c-0.303,-0.441 -0.825,-0.703 -1.122,-1.148c-1.976,-2.964 -4.78,-12.196 -6.085,-13.06c-1.169,-0.775 -4.521,-1.149 -4.667,2.39c-0.007,0.168 0.011,0.167 1.194,5.279c0.842,3.641 0.995,4.302 2.014,46.675c0.342,14.244 1.713,14.866 1.768,24.692c0.207,36.528 -0.432,40.168 -1.034,43.605c-1.468,8.375 1.674,14.749 -12.62,13.545c-5.529,-0.466 -5.478,-0.451 -11.017,-0.009c-0.423,0.034 -8.807,0.427 -13.542,-0.236c-10.668,-1.493 -15.936,1.354 -17.208,-4.685c-0.562,-2.667 -0.067,-126.047 -0.269,-159.075c-0.042,-6.897 -1.225,-6.78 -1.264,-13.713c-0.206,-36.699 0.249,-38.263 1.177,-41.448c1.734,-5.953 4.22,-4.931 17.433,-4.938c22.792,-0.012 34.066,-1.514 38.117,5.467c0.547,0.943 0.596,1.026 7.444,11.413c5.015,7.607 5.051,7.547 5.477,8.212c17.751,27.706 17.667,27.723 19.242,30.108c13.123,19.869 12.648,20.155 13.819,21.86c4.716,6.869 4.497,6.982 4.57,7.103c0.361,0.599 10.832,15.499 16.351,24.725c1.592,2.661 9.411,12.306 16.474,27.16c0.475,0.954 0.931,0.533 1.396,1.466c0.485,0.974 0.003,1.055 0.374,2.087c0.726,2.021 1.25,1.962 3.193,1.104c3.659,-1.615 1.549,-2.823 1.173,-6.836Z" style="fill:url(#_Linear5);"/><path d="M1240.554,1574.552c2.685,-9.766 5.819,-16.62 8.909,-25.406c10.63,-30.226 9.752,-30.526 11.087,-32.967c2.876,-5.258 2.796,-8.515 6.874,-18.526c2.342,-5.749 0.839,-6.285 3.965,-11.683c2.822,-4.873 2.236,-5.068 3.877,-10.429c0.501,-1.637 2.875,-7.381 3.138,-8.018c2.354,-5.695 1.681,-5.891 3.942,-11.619c1.129,-2.862 1.232,-2.778 2.367,-5.603c2.124,-5.284 0.745,-5.729 3.481,-10.722c3.706,-6.764 2.017,-10.545 8.274,-14.503c2.452,-1.551 6.096,-1.216 11.532,-1.236c42.182,-0.161 44.035,-1.117 46.95,4.87c1.946,3.998 1.765,4.032 2.911,8.322c1.149,4.299 4.765,11.854 7.127,19.506c3.512,11.383 14.983,42.897 16.335,46.61c15.554,42.731 15.326,42.806 16.686,46.519c1.848,5.047 2.179,4.856 2.449,5.588c1.506,4.085 1.295,4.114 2.821,8.168c0.628,1.669 10.633,31.287 12.317,35.075c4.915,11.06 3.575,11.552 8.243,21.907c3.049,6.764 2.639,6.877 5.119,13.902c2.333,6.609 6.566,13.394 -8.614,13.653c-38.552,0.658 -39.098,0.058 -41.123,-2.543c-3.177,-4.08 -4.281,-4.416 -5.247,-8.292c-1.973,-7.908 -9.429,-25.666 -10.464,-27.689c-2.337,-4.569 -2.624,-5.234 -8.926,-5.217c-58.047,0.154 -57.986,-0.197 -63.025,-0.035c-9.044,0.29 -7.939,9.284 -12.974,19.587c-3.156,6.458 -3.414,13.948 -7.691,19.732c-2.499,3.378 -3.703,4.328 -9.472,4.405c-36.578,0.494 -37.658,0.258 -40.851,-0.441c-0.475,-0.104 -3.511,-0.769 -3.775,-4.772c-0.074,-1.128 -0.152,-2.305 4.081,-13.534c4.138,-10.977 3.414,-11.208 7.993,-21.986c2.291,-5.392 7.757,-23.587 11.689,-32.624l94.839,-15.046c10.018,-0.822 10.496,-0.781 11.407,-0.703c1.594,0.136 2.085,0.605 2.51,-0.919c1.481,-5.312 -2.332,-7.109 -17.272,-54.77c-5.352,-17.073 -2.887,-20.205 -7.699,-19.852c-0.719,0.053 -2.746,0.201 -3.519,8.293c-0.145,1.517 0.194,1.866 -3.299,11.852c-2.958,8.457 -14.217,41.813 -14.713,43.431c-1.173,3.827 -4.011,7.602 -2.131,10.287c1.996,2.85 8.214,2.425 34.716,2.382l-94.839,15.046Z" style="fill:url(#_Linear6);"/><path d="M2332.773,1707.466c9.246,0.044 14.969,-1.228 17.982,4.324c0.775,1.428 1.178,3.035 1.92,4.481c0.193,0.376 0.711,0.537 0.857,0.933c0.579,1.575 0.817,3.256 1.277,4.87c0.19,0.667 0.632,0.507 2.836,8.186c0.191,0.666 0.731,0.467 2.966,8.141c0.625,2.146 8.399,23.74 8.697,24.413c0.162,0.366 0.724,0.437 0.897,0.798c0.285,0.595 1.632,6.98 1.761,7.59c1.452,6.886 3.071,6.254 4.453,11.242c2.896,10.456 4.823,13.445 5.838,16.324c0.282,0.799 0.44,1.646 0.806,2.41c0.158,0.33 0.618,0.469 0.736,0.816c0.551,1.625 0.784,3.341 1.235,4.996c0.221,0.811 0.422,1.638 0.78,2.398c0.158,0.335 0.614,0.479 0.74,0.827c0.582,1.607 0.878,3.305 1.352,4.947c0.232,0.806 0.413,1.636 0.764,2.398c0.154,0.334 0.598,0.486 0.725,0.831c0.588,1.602 0.896,3.294 1.39,4.928c0.884,2.925 1.502,2.663 2.231,5.663c0.21,0.866 0.341,1.751 0.531,2.622c1.399,6.424 3.683,6.577 4.804,11.117c1.112,4.504 1.049,4.473 1.292,4.976c0.166,0.343 0.695,0.43 0.83,0.786c0.605,1.6 0.866,3.31 1.339,4.954c0.229,0.797 0.404,1.621 0.767,2.367c0.171,0.352 0.637,0.503 0.801,0.858c0.035,0.076 2.152,9.449 4.216,12.999c0.916,1.575 1.051,1.488 1.555,3.245c1.233,4.298 1.184,4.304 1.464,4.915c0.765,1.671 0.897,1.553 1.459,3.277c0.261,0.799 0.431,1.639 0.818,2.385c0.183,0.352 0.68,0.474 0.852,0.832c0.163,0.34 3.807,12.052 4.133,13.101c0.92,2.956 1.608,2.639 2.28,5.597c0.395,1.74 0.685,3.503 1.043,5.251c1.098,5.352 4.144,8.533 -3.273,9.502c-7.069,0.923 -13.879,3.143 -27.331,0.523c-9.289,-1.809 -17.374,2.007 -21.018,-4.989c-2.166,-4.158 -3.828,-9.452 -4.094,-10.298c-0.508,-1.617 -7.505,-19.384 -7.547,-19.475c-2.961,-6.36 -4.503,-4.974 -11.467,-5.056c-4.813,-0.056 -55.945,-0.653 -60.165,0.324c-4.443,1.029 -4.305,3.483 -11.011,18.704c-2.73,6.197 -5.548,18.227 -10.849,19.729c-1.491,0.422 -1.46,0.223 -19.347,1.005c-1.314,0.057 -1.292,-0.602 -16.43,-0.509c-0.681,0.004 -7.701,0.047 -8.517,-0.161c-7.523,-1.915 -0.936,-10.707 17.961,-66.206c7.242,-21.269 7.504,-21.107 10.832,-30.167c2.116,-5.76 1.487,-5.933 3.931,-11.585c1.153,-2.668 8.379,-24.237 10.839,-30.189c3.31,-8.012 2.21,-8.365 5.604,-16.389c3.378,-7.988 2.329,-8.329 5.764,-16.321c0.739,-1.72 1.518,-3.532 7.922,-22.017c2.433,-7.022 2.396,-6.985 5.492,-13.735c1.889,-4.118 6.796,-3.422 8.512,-3.67c17.761,-2.564 17.8,0.099 35.767,0.18l-19.177,128.867c13.7,0.016 13.65,-0.591 27.339,-0.039c2.002,0.081 2.2,0.43 3.618,-1.004c2.896,-2.929 -0.595,-5.442 -3.289,-11.887c-1.692,-4.047 -1.903,-3.911 -2.975,-8.138c-2.186,-8.627 -7.659,-17.961 -14.297,-49.15c-0.067,-0.314 -0.714,-3.353 -1.826,-3.568c-3.606,-0.695 -3.809,0.177 -4.858,3.695c-1.547,5.189 -0.387,5.502 -6.129,21.765c-1.177,3.333 -1.588,3.158 -15.913,41.22c-1.578,4.192 -0.693,4.51 1.272,5.96c1.139,0.841 1.111,1.211 6.108,1.21c0.876,-0 0.811,-0.005 10.949,-0.065l19.177,-128.867Z" style="fill:url(#_Linear7);"/><path d="M1091.538,1707.468c39.957,-0.007 41.424,-0.719 43.581,3.87c1.297,2.759 1.768,2.495 2.528,5.421c1.114,4.291 1.015,4.28 1.374,4.98c0.179,0.349 0.719,0.418 0.889,0.772c0.186,0.387 1.667,7.093 1.844,7.467c0.165,0.348 0.711,0.406 0.876,0.754c0.682,1.437 0.649,6.243 5.989,18.983c1.816,4.334 1.503,4.405 1.679,4.769c0.16,0.333 0.635,0.458 0.761,0.806c0.582,1.616 0.856,3.327 1.324,4.98c0.836,2.95 1.412,2.707 2.24,5.664c0.241,0.861 1.552,5.537 3.661,10.565c0.144,0.343 0.627,0.471 0.757,0.819c0.798,2.138 0.374,2.275 9.171,27.006c2.914,8.192 3.51,7.938 5.932,16.288c0.233,0.805 0.413,1.635 0.766,2.395c0.156,0.334 0.609,0.48 0.734,0.827c2.342,6.495 1.743,6.659 4.188,13.133c0.243,0.644 2.349,6.22 3.138,8.014c0.152,0.345 0.66,0.457 0.789,0.812c0.586,1.611 0.844,3.322 1.313,4.971c0.229,0.805 0.411,1.635 0.779,2.388c0.165,0.338 0.63,0.469 0.784,0.812c0.643,1.43 0.588,5.152 4.1,13.129c2.48,5.632 2.121,5.725 4.316,11.44c0.496,1.293 0.088,1.41 5.654,16.361c0.387,1.039 0.231,1.087 4.398,13.147c0.623,1.801 5.412,9.367 -3.854,9.756c-1.849,0.078 -3.702,-0.021 -5.553,0.028c-3.756,0.099 -5.226,1.289 -11.001,1.393c-23.331,0.418 -28.7,-1.557 -30.28,-5.242c-2.942,-6.86 -7.876,-20.027 -8.532,-21.779c-1.089,-2.905 -1.453,-2.723 -2.292,-5.681c-2.806,-9.896 -7.261,-8.11 -19.174,-8.12c-54.706,-0.048 -55.597,-0.521 -57.663,2.53c-2.417,3.568 -1.646,3.922 -4.797,11.306c-0.543,1.272 -0.574,1.345 -5.89,16.249c-3.245,9.097 -5.77,8.936 -8.065,9.411c-4.776,0.99 -10.115,0.045 -11.194,0.069c-3.294,0.073 -3.226,0.425 -8.223,0.338c-2.508,-0.044 -5.972,-0.665 -8.145,-0.338c-1.026,0.155 -2.007,0.547 -3.033,0.704c-3.425,0.524 -14.253,-0.887 -15.514,-2.574c-2.887,-3.864 2.569,-10.019 4.867,-21.333c1.233,-6.073 2.978,-5.488 5.774,-16.363c1.08,-4.202 1.631,-3.963 2.744,-8.204c0.209,-0.797 0.333,-1.626 0.663,-2.381c0.15,-0.342 0.584,-0.5 0.744,-0.838c0.327,-0.691 2.084,-7.12 2.168,-7.307c0.605,-1.343 0.976,-1.157 1.528,-3.264c0.226,-0.863 0.341,-1.752 0.54,-2.621c0.658,-2.887 3.353,-7.576 4.445,-11.248c4.571,-15.371 6.511,-16.97 8.034,-21.992c1.263,-4.165 1.482,-4.021 2.881,-8.161c0.548,-1.622 0.761,-3.347 1.336,-4.96c0.124,-0.348 0.571,-0.501 0.728,-0.835c0.26,-0.552 -0.225,-0.695 2.119,-7.329c0.258,-0.729 0.816,-0.482 3.85,-8.865c0.295,-0.814 0.434,-1.676 0.672,-2.508c0.846,-2.952 1.368,-2.726 2.212,-5.661c0.241,-0.837 0.407,-1.693 0.629,-2.535c0.789,-2.996 1.382,-2.724 2.217,-5.647c0.469,-1.643 0.747,-3.346 1.331,-4.952c0.129,-0.356 0.607,-0.493 0.773,-0.833c0.695,-1.423 2.928,-7.351 3.171,-7.995c1.539,-4.085 1.159,-4.186 2.892,-8.198c2.29,-5.301 4.079,-13.057 4.113,-13.143c0.901,-2.305 1.202,-2.157 2.18,-5.741c0.804,-2.948 1.462,-2.641 2.324,-5.6c0.467,-1.604 0.717,-3.276 1.314,-4.836c0.177,-0.463 0.66,-0.213 2.735,-5.559c1.939,-4.995 1.604,-5.124 3.068,-6.92c2.987,-3.664 7.428,-2.77 17.594,-2.792l-1.157,96.417c-0.19,0.666 -2.336,8.204 -2.385,8.317c-0.149,0.341 -0.565,0.513 -0.723,0.85c-0.258,0.55 0.281,0.683 -2.264,7.252c-0.506,1.305 -0.929,1.041 -1.609,3.217c-0.918,2.943 -1.009,2.877 -2.556,5.551c-0.213,0.368 -2.127,3.678 -1.675,5.042c0.121,0.363 0.837,2.519 4.273,2.155c0.811,-0.086 1.55,-0.529 2.355,-0.664c3.061,-0.513 4.872,0.716 8.516,0.828c2.388,0.074 24.781,0.764 29.86,-0.369c0.364,-0.081 0.249,-0.872 0.617,-0.933c1.07,-0.176 2.171,0.492 3.238,0.3c2.616,-0.471 1.493,-3.321 1.38,-3.608c-0.712,-1.808 -1.633,-1.361 -2.615,-5.501c-1.947,-8.201 -3.738,-7.6 -5.643,-16.408c-1.37,-6.332 -3.637,-6.953 -4.58,-11.153c-3.071,-13.673 -4.38,-13.298 -6.986,-27.031c-0.125,-0.659 -1.426,-7.517 -2.087,-8.121c-0.551,-0.503 -4.014,-0.524 -4.559,-0.032c-0.359,0.323 -4.143,17.43 -4.413,18.313c-0.55,1.794 -1.211,1.546 -8.143,21.994l1.157,-96.417Z" style="fill:url(#_Linear8);"/><path d="M1505.281,1707.459c1.323,0.002 15.256,0.024 16.532,0.148c5.791,0.564 5.407,3.237 6.47,5.842c0.8,1.959 3.291,5.576 4.16,8.727c1.034,3.751 1.425,3.581 2.161,5.738c0.833,2.439 0.78,2.438 3.965,13.286c2.046,6.967 4.529,11.625 5.127,13.778c0.443,1.597 8.506,24.528 8.508,24.534c3.623,8.552 5.224,15.073 5.682,16.384c0.162,0.462 1.123,1.812 2.197,5.677c1.041,3.747 5.022,14.483 5.554,16.422c1.351,4.923 15.631,44.104 16.237,46.625c2.337,9.734 3.529,9.324 6.179,19.024c1.712,6.266 3.792,8.62 5.059,13.797c3.602,14.713 6.425,16.095 4.717,18.812c-0.978,1.557 -6.976,1.528 -7.596,1.525c-8.07,-0.04 -8.026,0.155 -13.851,0.962c-5.351,0.741 -5.278,-0.968 -13.565,-1.014c-1.831,-0.01 -3.662,0.012 -5.492,-0.005c-6.678,-0.064 -8.311,-0.233 -13.05,-12.268c-0.508,-1.289 -5.509,-13.99 -6.12,-16.197c-0.252,-0.912 -2.322,-8.388 -5.741,-10.337c-0.922,-0.525 -4.793,-0.55 -5.212,-0.553c-4.822,-0.031 -45.5,-0.293 -60.278,-0.02c-5.02,0.093 -4.89,1.305 -5.878,2.271c-1.43,1.397 -1.6,1.243 -2.487,3.07c-0.353,0.727 -0.623,1.493 -1.001,2.207c-3.747,7.075 -2.753,7.428 -5.714,14.898c-0.401,1.012 -4.299,10.842 -5.216,12.569c-2.593,4.881 -8.212,6.257 -29.025,5.852c-6.74,-0.131 -6.572,-1.295 -11.007,-1.416c-1.85,-0.05 -3.703,0.051 -5.552,-0.033c-0.682,-0.031 -7.165,0.204 -4.929,-6.452c0.22,-0.655 2.046,-6.091 2.824,-8.163c2.16,-5.746 1.605,-5.886 3.779,-11.638c3.734,-9.879 3.489,-9.935 6.999,-18.555c2.504,-6.15 1.86,-6.32 2.465,-8.35c0.172,-0.577 4.214,-9.968 5.051,-13.795c1.494,-6.837 4.268,-10.776 5.494,-16.434c0.192,-0.886 0.698,-3.221 3.341,-10.823c7.066,-20.326 7.163,-20.281 7.691,-22.075c0.448,-1.524 2.801,-9.517 6.547,-18.741c3.728,-9.179 3.872,-9.112 4.393,-11.375c1.735,-7.544 4.229,-10.576 5.698,-16.391c1.814,-7.182 2.98,-6.751 5.057,-13.855c2.85,-9.748 5.414,-15.595 5.651,-16.382c1.258,-4.165 1.287,-4.124 3.177,-8.045c1.356,-2.814 1.147,-2.834 2.385,-5.656c1.848,-4.212 3.248,-3.529 38.616,-3.576l9.353,104.646c-2.446,-6.529 -2.652,-6.411 -4.402,-13.156c-1.259,-4.851 -3.71,-10.212 -4.399,-13.986c-1.733,-9.497 -2.437,-9.292 -4.126,-18.817c-0.083,-0.468 -0.975,-5.494 -4.922,-3.336c-0.7,0.382 -2.369,6.803 -4.319,14.346c-4.988,19.29 -6.892,20.22 -13.549,38.495c-4.387,12.043 -3.712,12.267 -4.205,13.265c-0.527,1.067 -1.693,1.741 -2.179,2.827c-0.14,0.312 -1.375,3.077 0.697,4.22c0.367,0.203 12.553,0.506 15.612,0.518c22.864,0.085 22.769,-1.376 24.749,-1.283c2.712,0.128 2.545,0.867 5.241,1.097c5.073,0.432 3.225,-4.206 3.061,-4.618c-0.437,-1.098 -1.554,-1.808 -2.101,-2.855c-1.223,-2.337 -0.386,-2.599 -1.587,-5.004c-0.166,-0.332 -0.613,-0.469 -0.769,-0.806c-0.242,-0.523 -2.588,-10.031 -2.804,-10.906l-9.353,-104.646Z" style="fill:url(#_Linear9);"/><path d="M1791.942,1875.063c-8.833,17.511 -9.038,17.579 -23.564,30.691c-6.145,5.547 -6.797,4.465 -10.492,6.515c-0.353,0.196 -0.472,0.716 -0.847,0.866c-2.684,1.073 -14.377,4.517 -15.634,4.887c-5.543,1.632 -5.582,1.148 -11.358,1.922c-4.914,0.659 -4.702,1.839 -11.046,2.022c-19.937,0.575 -24.96,-0.524 -27.078,-0.988c-9.341,-2.044 -23.035,-0.95 -46.231,-16.377c-0.759,-0.505 -4.697,-3.124 -8.869,-7.149c-9.115,-8.793 -9.302,-8.678 -15.961,-19.452c-3.81,-6.166 -10.72,-25.539 -11.096,-27.162c-0.254,-1.093 0.415,-1.173 -2.433,-13.81c-1.151,-5.11 -2.233,-37.376 0.629,-48.723c2.145,-8.506 0.67,-8.869 4.022,-16.939c4.785,-11.522 13.988,-38.451 43.588,-55.521c18.413,-10.618 31.766,-10.818 33.044,-11.15c6.677,-1.731 6.721,-1.794 27.649,-1.651c9.935,0.068 10.152,1.367 13.806,1.99c4.807,0.82 4.947,0.196 16.158,3.849c0.928,0.302 0.861,0.441 11.234,4.742c4.717,1.956 10.791,6.742 11.66,7.427c3.141,2.475 2.881,2.674 5.832,5.369c0.958,0.875 2.113,1.52 3.057,2.41c0.48,0.453 0.717,1.12 1.182,1.589c0.693,0.699 2.831,1.925 5.999,7.903c3.116,5.879 3.542,5.637 5.309,11.109c1.921,5.951 5.938,15.851 6.164,24.707c0.215,8.41 -3.515,6.472 -11.898,6.476c-32.971,0.015 -34.022,0.349 -36.098,-3.405c-3.784,-6.841 -4.497,-17.604 -23.918,-25.566c-3.434,-1.408 -4.81,-2.843 -22.189,-2.245c-8.769,0.302 -9.849,1.734 -11.207,2.208c-4.134,1.442 -4.203,1.177 -7.966,3.391c-4.42,2.6 -14.405,13.308 -16.301,16.534c-4.348,7.399 -5.869,14.884 -6.146,16.246c-1.011,4.973 -2.172,4.741 -2.332,11.053c-0.147,5.792 -0.286,31.019 0.319,35.596c0.359,2.72 5.571,18.339 8.188,21.82c0.277,0.368 0.312,0.246 3.991,4.152c0.233,0.248 5.291,7.142 12.048,10.116c9.719,4.277 9.694,5.325 27.63,5.204c17.244,-0.116 18.538,-1.071 27.525,-8.262c6.342,-5.075 8.557,-17.78 13.665,-18.913c1.235,-0.274 36.901,-0.801 40.827,0.161c0.677,0.166 4.774,1.169 4.505,7.46c-0.116,2.72 -1.232,7.797 -1.379,8.468c-0.192,0.872 -0.744,3.384 -3.986,10.43Z" style="fill:url(#_Linear10);"/><path d="M2182.072,1707.459c29.425,-0.04 31.977,-0.722 32.812,3.707c0.432,2.287 0.14,100.821 0.114,109.588c-0.04,13.632 0.894,13.665 -1.071,27.166c-1.641,11.273 0.035,11.665 -4.381,22.186c-1.657,3.948 -3.897,14.952 -16.378,27.506c-0.655,0.659 -6.881,6.921 -8.485,7.935c-1.617,1.022 -1.399,1.25 -2.965,2.333c-2.735,1.893 -13.231,5.832 -15.53,7.186c-1.585,0.933 -1.491,1.092 -3.321,1.461c-0.883,0.178 -1.784,0.246 -2.671,0.402c-4.961,0.87 -4.663,2.23 -11.004,2.527c-9.534,0.447 -37.483,0.804 -43.675,-0.6c-29.108,-6.6 -39.586,-21.891 -41.443,-23.968c-5.377,-6.016 -4.8,-6.402 -8.973,-13.332c-3.204,-5.32 -2.097,-5.725 -4.111,-11.629c-4.281,-12.554 -3.365,-12.861 -3.385,-79.314c-0.01,-32.749 0.123,-32.717 0.058,-57.54c-0.056,-21.476 -1.361,-24.8 5.509,-25.527c1.351,-0.143 35.774,-0.05 35.816,-0.048c7.992,0.509 5.969,4.254 5.922,20.096c-0.02,18.266 -0.04,36.532 -0.06,54.799c-0.06,42.662 -0.535,51.967 0.829,57.21c1.439,5.533 0.69,5.621 1.612,11.265c0.68,4.16 3.444,7.217 5.478,10.884c4.714,8.495 17.259,10.918 18.993,11.253c4.774,0.922 12.61,4.426 27.598,-2.581c13.062,-6.107 15.324,-19.98 17.452,-30.158c1.34,-6.408 0.675,-6.482 0.743,-115.415c0.007,-11.777 -1.418,-17.108 6.224,-17.397c0.663,-0.025 0.614,0 8.291,0.006Z" style="fill:url(#_Linear11);"/><path d="M1922.805,1623.471c-0.031,15.502 0.891,22.72 -4.085,23.958c-4.106,1.022 -5.88,0.115 -87.375,0.636c-31.868,0.204 -31.815,-0.87 -32.651,-0.99c-7.569,-1.091 -7.594,-0.025 -8.225,-0.211c-0.413,-0.122 -2.834,-0.836 -3.487,-4.097c-0.433,-2.161 0.022,-16.929 -0.436,-21.909c-0.169,-1.832 -0.525,-3.652 -0.562,-5.491c-0.019,-0.956 0.361,-1.886 0.395,-2.842c0.057,-1.605 -1.875,-7.943 -0.738,-13.456c1.157,-5.612 1.133,-5.612 1.132,-19.438c-0.006,-71.579 0.123,-71.586 -0.507,-76.595c-0.528,-4.196 0.154,-4.152 0.469,-8.381c0.004,-0.056 0.141,-44.567 -0.03,-49.247c-0.517,-14.086 -0.205,-20.278 3.818,-21.399c3.577,-0.996 3.624,-0.364 35.343,-0.567c5.861,-0.038 6.122,-0.568 11.087,2.609c3.427,2.193 2.665,3.214 2.699,52.198c0.046,65.979 -0.121,66.016 -1.122,70.972c-0.568,2.814 -0.827,4.097 -0.562,35.879c0.042,5.049 0.658,5.499 1.107,8.344c0.277,1.757 0.135,3.606 0.712,5.288c0.197,0.575 1.024,0.665 1.469,1.078c1.592,1.477 1.598,1.607 3.793,1.685c5.476,0.196 5.457,-0.595 68.498,-0.02c1.476,0.013 6.824,-0.249 8.217,2.817c1.313,2.889 1.039,7.175 1.041,19.179Z" style="fill:url(#_Linear12);"/><path d="M1269.637,1707.468c10.221,0.018 10.156,-0.02 11.038,0.02c9.739,0.444 5.036,5.838 6.113,44.732c0.126,4.546 1.595,4.389 1.602,13.733c0.031,37.845 0.62,37.84 0.196,41.101c-0.129,0.993 -1.009,1.779 -1.169,2.768c-0.301,1.854 -0.081,3.756 -0.192,5.631c-0.075,1.263 -0.492,2.625 -0.565,8.048c-0.047,3.504 -0.427,31.511 0.031,43.802c0.115,3.078 -0.237,3.479 2.301,5.209c1.333,0.908 1.477,0.422 10.788,0.459c5.785,0.023 7.808,1.295 8.34,1.351c0.749,0.079 0.737,-0.019 5.514,-0.906c6.934,-1.288 9.063,1.037 13.588,1.174c20.806,0.629 21.281,-1.79 32.965,-0.186c3.252,0.446 12.698,-1.109 14.133,3.694c0.862,2.882 0.461,30.454 0.423,33.102c-0.119,8.215 -3.731,5.932 -11.899,6.608c-4.211,0.348 -4.084,0.876 -8.293,1.186c-2.598,0.191 -58.747,0.307 -90.393,0.272c-8.276,-0.009 -8.126,-1.253 -13.738,-1.473c-4.162,-0.163 -4.12,0.163 -8.284,-0.048c-6.634,-0.337 -5.981,-4.61 -5.981,-9.309c0.005,-130.983 -0.163,-195.446 0.348,-197.353c1.166,-4.35 3.501,-3.605 33.133,-3.614Z" style="fill:url(#_Linear13);"/><path d="M1744.512,1434.403c-0.242,58.553 0.096,206.338 -0.313,208.369c-0.898,4.462 -1.539,4.688 -6.04,5.154c-1.163,0.121 -36.408,0.196 -38.31,-0.008c-1.924,-0.206 -1.892,-0.268 -3.471,-1.328c-0.656,-0.441 -1.503,-0.614 -2.059,-1.175c-3.277,-3.306 -2.539,-6.929 -2.653,-35.645c-0.006,-1.388 -0.231,-179.891 -0.117,-180.852c0.315,-2.649 2.292,-5.194 5.518,-5.582c0.559,-0.067 36.666,0.153 38.36,0.315c10.519,1.008 8.897,6.955 9.086,10.752Z" style="fill:url(#_Linear14);"/><path d="M1315.138,2008.235c1.593,1.558 1.539,1.577 6.57,7.054c0.468,0.51 1.304,0.053 3.113,5.354c3.137,9.193 12.951,27.789 -3.948,51.66c-4.723,6.672 -6.919,6.947 -9.543,9.416c-1.457,1.371 -1.51,1.245 -3.134,2.428c-0.369,0.269 -0.485,0.861 -0.912,1.025c-0.452,0.173 -0.988,-0.276 -1.447,-0.122c-0.381,0.128 -0.455,0.719 -0.822,0.884c-2.347,1.054 -23.298,3.401 -32.09,-0.563c-0.683,-0.308 -8.494,-4.244 -11.521,-7.038c-0.474,-0.438 -0.739,-1.071 -1.21,-1.513c-0.917,-0.862 -2.125,-1.415 -2.932,-2.381c-1.827,-2.185 -9.38,-15.807 -9.963,-26.245c-0.11,-1.976 -0.692,-12.393 3.658,-24.472c2.251,-6.25 11.928,-18.843 24.107,-22.324c4.024,-1.15 8.009,-3.309 19.234,-2.515c10.18,0.72 19.373,8.342 20.84,9.353l-43.638,57.246c1.888,1.53 1.328,2.854 11.344,5.887c15.595,4.722 25.71,-8.605 28.116,-14.876c0.551,-1.437 2.936,-7.654 1.663,-19.16c-0.53,-4.789 -4.957,-14.918 -10.629,-18.419c-6.999,-4.32 -19.969,-5.151 -26.562,-0.45c-15.388,10.972 -12.16,35.207 -7.44,42.785c0.232,0.373 0.26,0.314 3.508,4.233l43.638,-57.246Z" style="fill:#00ff95;"/><path d="M1600.194,2042.698c-0.001,-8.221 -0.002,-16.442 -0.003,-24.663c-0.01,-14.141 -0.584,-14.24 0.552,-16.751c1.143,-2.524 1.932,-2.56 30.579,-2.356c11.451,0.082 20.599,4.269 24.81,7.97c8.476,7.451 7.839,8.03 11.8,16.197c4.996,10.3 3.116,32.6 0.639,38.275c-0.532,1.218 -5.042,9.557 -5.689,10.342c-0.541,0.657 -12.228,11.236 -17.842,12.197c-1.775,0.304 -3.585,0.366 -5.358,0.679c-4.843,0.856 -6.567,3.021 -19.267,1.569c-5.605,-0.641 -10.996,1.519 -16.29,-0.079c-4.635,-1.399 -3.918,-3.219 -3.933,-43.381l54.734,-0.004c-0.299,-2.587 -0.776,-21.213 -15.73,-26.364c-2.8,-0.965 -17.468,-0.927 -18.785,-0.716c-5.71,0.916 -4.404,9.555 -4.406,13.38c-0.01,32.055 -0.321,35.982 1.101,38.739c1.518,2.942 23.731,3.839 30.772,-5.748c2.02,-2.75 3.91,-5.02 4.266,-6.043c2.247,-6.448 2.007,-6.492 2.782,-13.248l-54.734,0.004Z" style="fill:#00ff95;"/><path d="M1404.847,2077.542c-2.097,-2.513 -5.514,-7.82 -5.625,-7.975c-6.519,-9.082 -6.196,-9.292 -6.782,-10.067c-0.635,-0.839 -7.631,-10.079 -12.206,-4.916c-1.528,1.724 -0.909,11.477 -0.884,23.732c0.002,1.211 1.021,9.093 -8.338,8.306c-6.487,-0.545 -7.742,-4.976 -8.106,-8.319c-0.153,-1.406 -0.144,-57.541 -0.116,-68.489c0.017,-6.801 -0.243,-10.971 8.227,-11.052c29.274,-0.28 30.192,-0.026 32.716,0.67c7.109,1.961 7.213,1.665 13.608,5.285c3.505,1.984 5.639,8.149 6.65,10.19c4.675,9.438 1.342,23.245 -4.657,29.565c-6.424,6.768 -16.058,5.567 -11.116,12.53c4.59,6.465 4.397,6.568 8.317,11.272c2.671,3.204 2.514,3.263 4.688,6.775c1.361,2.199 4.824,4.945 4.28,8.647c-0.128,0.871 -0.626,4.266 -10.639,2.802c-5.004,-0.732 -4.525,-1.822 -7.593,-5.883c-1.183,-1.566 -1.185,-1.502 -2.425,-3.074l0.221,-57.908c-0.337,-0.261 -1.866,-3.136 -6.726,-3.808c-2.541,-0.351 -10.009,-0.316 -10.88,-0.311c-3.446,0.017 -3.838,-0.796 -6.328,1.623c-0.418,0.406 -1.09,0.594 -1.344,1.119c-0.704,1.448 -0.379,13.082 -0.356,13.462c0.126,2.072 0.167,2.13 1.711,3.573c0.404,0.377 0.612,1.002 1.118,1.224c1.397,0.612 15.165,0.399 16.092,0.213c8.622,-1.725 12.162,-10.012 8.072,-15.804c-0.36,-0.51 -0.999,-0.781 -1.359,-1.291l-0.221,57.908Z" style="fill:#00ff95;"/><path d="M2072.952,2038.087c-0.182,0.161 -2.28,2.011 -2.28,2.011c-0.312,3.042 0.285,3.022 0.148,38.23c-0.024,6.227 0.054,9.009 -9.328,8.568c-7.718,-0.363 -6.584,-3.926 -6.591,-25.018c-0.004,-12.47 1.047,-12.528 -1.108,-24.787c-0.619,-3.522 -1.27,-30.871 0.855,-34.72c0.239,-0.433 0.754,-0.643 1.085,-1.01c1.538,-1.704 1.708,-2.718 8.516,-2.551c11.938,0.293 11.133,5.642 17.756,15.559c5.933,8.884 5.468,9.14 11.429,17.959c2.371,3.508 2.373,3.466 4.571,7.121c1.954,3.249 2.544,2.823 4.297,6.184c0.917,1.758 1.083,1.618 1.965,3.423c2.374,4.857 1.381,6.115 4.077,6.347c2.37,0.204 2.194,-4.149 2.178,-4.552c-0.141,-3.502 -0.964,-23.908 -0.537,-43.805c0.161,-7.506 1.543,-8.557 9.064,-8.209c6.35,0.294 6.511,1.881 6.566,8.208c0.051,5.93 0.55,64.063 -0.048,74.124c-0.359,6.032 -4.207,5.727 -9.26,5.603c-7.103,-0.174 -7.907,-1.431 -11.346,-5.392c-2.719,-3.132 -4.427,-6.767 -8.047,-11.109c-2.677,-3.21 -10.797,-15.991 -11.081,-16.364c-3.019,-3.957 -2.432,-4.309 -5.416,-8.271c-3.001,-3.985 -2.571,-4.219 -5.191,-8.443c-0.758,0.298 -1.517,0.597 -2.275,0.895Z" style="fill:#00ff95;"/><path d="M2021.803,2048.021c-0.78,4.326 0.775,4.855 -6.569,19.503c-13.365,26.658 -47.064,22.147 -58.119,13.919c-3.632,-2.704 -4.87,-2.027 -9.869,-9.132c-6.061,-8.616 -5.361,-9.006 -8.644,-21.499c-0.727,-2.769 -0.999,-9.409 -0.041,-13.503c3.692,-15.775 4.766,-15.417 9.694,-22.606c7.471,-10.899 13.241,-12.054 19.584,-14.432c1.284,-0.482 4.086,-2.613 19.696,-1.554c2.699,0.183 10.38,1.821 14.371,4.386c0.413,0.265 0.456,0.103 5.267,3.15c7.407,4.693 7.277,6.421 8.621,8.586c1.013,1.632 4.954,6.084 -6.411,11.292c-7.99,3.662 -7.124,-1.867 -13.574,-5.454c-1.916,-1.066 -15.172,-9.992 -28.237,-1.177c-6.552,4.421 -14.382,11.708 -11.999,31.277c0.269,2.208 3.641,14.994 12.747,19.368c1.385,0.665 8.405,4.037 19.086,2.109c5.924,-1.069 14.743,-9.939 13.535,-15.741c-0.675,-3.242 -1.907,-1.995 -5.238,-2.061c-17.607,-0.348 -18.739,-0.222 -19.807,-3.256c-0.016,-0.044 -2.318,-10.027 3.295,-11.627c2.752,-0.784 2.811,-0.546 35.767,-0.336c9.271,0.059 6.718,6.089 6.843,8.787Z" style="fill:#00ff95;"/><path d="M1172.37,2072.823c-0.324,10.743 1,15.674 -9.633,13.957c-6.486,-1.048 -5.883,-7.825 -5.902,-8.446c-0.237,-8.063 0.183,-25.529 0.045,-68.519c-0.041,-12.687 5.288,-10.993 27.816,-11.001c13.873,-0.005 20.575,0.195 30.252,10.902c12.682,14.032 4.739,42.828 -19.259,44.512c-4.141,0.291 -18.179,0.07 -18.952,0.418c-4.564,2.058 -2.499,3.567 -3.495,9.858c-0.661,4.178 -0.608,4.139 -0.874,8.318l30.339,-43.878c-1.706,-7.7 -1.084,-13.822 -23.449,-13.026c-6.737,0.24 -5.543,6.46 -5.578,10.339c-0.048,5.468 -2.037,10.919 0.835,12.385c1.334,0.68 9.362,0.669 10.178,0.668c16.846,-0.024 17.072,-8.054 18.014,-10.365l-30.339,43.878Z" style="fill:#00ff95;"/><path d="M1125.377,2061.9c-0.616,7.155 -0.435,7.272 -3.867,13.57c-0.852,1.563 -5.033,9.236 -18.872,11.788c-1.009,0.186 -14.842,1.383 -21.999,-0.894c-11.096,-3.53 -14.873,-9.929 -15.657,-11.258c-3.985,-6.751 1.893,-8.93 4.397,-10.831c6.655,-5.051 7.54,0.545 11.268,2.997c1.597,1.05 14.04,9.235 23.822,1.827c3.927,-2.975 3.876,-11.476 -2.469,-14.317c-8.499,-3.806 -19.72,-1.693 -30.717,-10.83c-2.352,-1.954 -2.717,-1.586 -4.165,-4.156c-2.998,-5.32 -9.132,-17.231 1.818,-30.496c0.715,-0.867 4.946,-5.992 11.567,-7.969c0.419,-0.125 8.943,-3.828 19.25,-2.445c0.892,0.12 2.07,0.278 10.828,3.071c4.094,1.306 10.299,5.867 10.883,7.958c1.248,4.466 -2.563,6.471 -4.657,8.74c-0.295,0.32 -3.554,3.852 -3.768,3.928c-2.129,0.759 -3.742,-3.368 -10.037,-5.727c-1.065,-0.399 -6.353,-2.382 -14.158,-1.24c-6.852,1.002 -14.708,11.526 2.209,17.342c7.429,2.554 27.557,3.096 33.352,20.704c1.314,3.992 0.778,4.042 0.972,8.239Z" style="fill:#00ff95;"/><path d="M1794.752,2026.279c0.231,-6.727 -0.193,-9.173 3.395,-13.947c4.232,-5.632 5.819,-8.646 17.195,-12.297c15.883,-5.096 32.676,3.843 35.146,7.079c3.32,4.348 4.964,5.343 0.961,9.042c-6.349,5.865 -6.084,6.2 -6.784,6.47c-1.588,0.611 -1.589,0.085 -2.788,-1.121c-6.331,-6.373 -7.012,-5.597 -15.942,-6.667c-10.877,-1.304 -14.598,6.916 -13.127,11.186c0.603,1.749 3.655,3.933 4.035,4.204c8.448,6.041 13.572,2.112 28.091,9.917c17.368,9.336 16.464,43.675 -10.75,47.087c-21.384,2.681 -31.329,-5.509 -32.837,-6.375c-2.96,-1.699 -7.73,-9.762 -7.762,-10.857c-0.103,-3.574 9.85,-9.265 12.632,-7.4c0.152,0.102 4.699,6.442 11.848,8.959c2.818,0.992 12.785,1.606 18.004,-2.42c3.85,-2.97 2.869,-8.866 2.539,-9.655c-0.724,-1.731 -2.714,-6.487 -21.147,-10.152c-22.85,-4.543 -22.252,-17.178 -22.708,-23.05Z" style="fill:#00ff95;"/><path d="M1707.082,2053.655c-0.006,-3.731 -0.073,-43.814 0.023,-46.64c0.311,-9.188 7.285,-8.224 11.9,-8.172c22.203,0.248 34.561,-0.445 38.121,0.582c5.534,1.596 4.244,13.472 2.327,15.179c-2.969,2.644 -31.851,-0.004 -34.563,1.43c-0.734,0.388 -2.992,1.582 -2.149,10.15c0.826,8.385 3.149,7.614 7.223,7.543c1.767,-0.031 20.286,-0.353 22.087,0.096c5.764,1.435 3.626,12.979 2.417,14.205c-2.914,2.957 -26.629,-0.453 -30,2.871c-2.171,2.141 -1.157,2.557 -1.107,5.619c0.087,5.298 -4.665,12.802 6.606,12.925c10.994,0.12 10.96,0.7 21.92,0.061c0.795,-0.046 7.869,-0.459 9.803,1.704c0.505,0.565 4.178,10.59 -2.137,14.247c-2.645,1.532 -9.404,0.281 -10.207,0.133c-6.358,-1.176 -9.156,0.506 -13.907,0.884c-1.613,0.128 -21.117,0.23 -21.924,0.144c-7.551,-0.807 -6.497,-3.963 -6.435,-32.96Z" style="fill:#00ff95;"/><path d="M1492.688,2045.438c-0.003,22.469 0.017,22.434 0.002,27.405c-0.002,0.66 -0.017,5.85 0.155,8.249c0.307,4.268 -0.315,6.039 -9.491,5.583c-6.282,-0.313 -6.187,-2.069 -6.211,-8.346c-0.228,-58.702 0.63,-59.167 -1.169,-61.07c-3.793,-4.013 -18.412,1.364 -20.459,-4.517c-0.035,-0.101 -2.315,-11.62 3.458,-13.265c4.013,-1.144 14.969,-0.467 46.31,-0.523c6.016,-0.011 11.271,-0.506 11.393,8.113c0.105,7.423 -1.261,8.322 -8.645,8.509c-4.282,0.109 -13.02,-0.549 -14.317,2.023c-1.257,2.494 -1.012,3.502 -1.027,27.84Z" style="fill:#00ff95;"/><path d="M1903.96,2048.187c0.268,5.865 0.26,9.988 0.258,10.856c-0.015,7.681 6.181,26.582 -7.109,27.535c-8.719,0.625 -8.344,-5.764 -8.391,-8.256c-0.045,-2.339 -0.064,-72.388 0.171,-73.986c1.274,-8.646 16.171,-6.846 16.364,2.742c0.034,1.66 -2.162,5.011 -1.294,41.108Z" style="fill:#00ff95;"/><path d="M1743.199,2064.205c0.141,-0.104 0.328,-2.355 3.205,-2.372c0.319,-0.002 4.969,-0.029 3.265,2.29c-1.171,1.594 -2.973,1.617 -3.265,1.621c-1.89,0.024 -1.352,-1.562 -3.206,-1.539Z" style="fill:none;"/></g><defs><linearGradient id="_Linear1" x1="0" y1="0" x2="1" y2="0" gradientUnits="userSpaceOnUse" gradientTransform="matrix(-698.709318,0,-0,-698.709318,813.422567,1764.582563)"><stop offset="0" style="stop-color:#14e086;stop-opacity:1"/><stop offset="0.44" style="stop-color:#1de7a9;stop-opacity:1"/><stop offset="1" style="stop-color:#32f7fb;stop-opacity:1"/></linearGradient><linearGradient id="_Linear2" x1="0" y1="0" x2="1" y2="0" gradientUnits="userSpaceOnUse" gradientTransform="matrix(-1379.171975,-2.466746,2.466746,-1379.171975,2422.757611,1650.672832)"><stop offset="0" style="stop-color:#19fd9e;stop-opacity:1"/><stop offset="1" style="stop-color:#0fffdf;stop-opacity:1"/></linearGradient><linearGradient id="_Linear3" x1="0" y1="0" x2="1" y2="0" gradientUnits="userSpaceOnUse" gradientTransform="matrix(-1379.171975,-2.466746,2.466746,-1379.171975,2422.757611,1650.672832)"><stop offset="0" style="stop-color:#19fd9e;stop-opacity:1"/><stop offset="1" style="stop-color:#0fffdf;stop-opacity:1"/></linearGradient><linearGradient id="_Linear4" x1="0" y1="0" x2="1" y2="0" gradientUnits="userSpaceOnUse" gradientTransform="matrix(-1379.171975,-2.466746,2.466746,-1379.171975,2422.757611,1650.672832)"><stop offset="0" style="stop-color:#19fd9e;stop-opacity:1"/><stop offset="1" style="stop-color:#0fffdf;stop-opacity:1"/></linearGradient><linearGradient id="_Linear5" x1="0" y1="0" x2="1" y2="0" gradientUnits="userSpaceOnUse" gradientTransform="matrix(-1379.171975,-2.466746,2.466746,-1379.171975,2422.757611,1650.672832)"><stop offset="0" style="stop-color:#19fd9e;stop-opacity:1"/><stop offset="1" style="stop-color:#0fffdf;stop-opacity:1"/></linearGradient><linearGradient id="_Linear6" x1="0" y1="0" x2="1" y2="0" gradientUnits="userSpaceOnUse" gradientTransform="matrix(-1379.171975,-2.466746,2.466746,-1379.171975,2422.757611,1650.672832)"><stop offset="0" style="stop-color:#19fd9e;stop-opacity:1"/><stop offset="1" style="stop-color:#0fffdf;stop-opacity:1"/></linearGradient><linearGradient id="_Linear7" x1="0" y1="0" x2="1" y2="0" gradientUnits="userSpaceOnUse" gradientTransform="matrix(-1379.171975,-2.466746,2.466746,-1379.171975,2422.757611,1650.672832)"><stop offset="0" style="stop-color:#19fd9e;stop-opacity:1"/><stop offset="1" style="stop-color:#0fffdf;stop-opacity:1"/></linearGradient><linearGradient id="_Linear8" x1="0" y1="0" x2="1" y2="0" gradientUnits="userSpaceOnUse" gradientTransform="matrix(-1379.171975,-2.466746,2.466746,-1379.171975,2422.757611,1650.672832)"><stop offset="0" style="stop-color:#19fd9e;stop-opacity:1"/><stop offset="1" style="stop-color:#0fffdf;stop-opacity:1"/></linearGradient><linearGradient id="_Linear9" x1="0" y1="0" x2="1" y2="0" gradientUnits="userSpaceOnUse" gradientTransform="matrix(-1379.171975,-2.466746,2.466746,-1379.171975,2422.757611,1650.672832)"><stop offset="0" style="stop-color:#19fd9e;stop-opacity:1"/><stop offset="1" style="stop-color:#0fffdf;stop-opacity:1"/></linearGradient><linearGradient id="_Linear10" x1="0" y1="0" x2="1" y2="0" gradientUnits="userSpaceOnUse" gradientTransform="matrix(-1379.171975,-2.466746,2.466746,-1379.171975,2422.757611,1650.672832)"><stop offset="0" style="stop-color:#19fd9e;stop-opacity:1"/><stop offset="1" style="stop-color:#0fffdf;stop-opacity:1"/></linearGradient><linearGradient id="_Linear11" x1="0" y1="0" x2="1" y2="0" gradientUnits="userSpaceOnUse" gradientTransform="matrix(-1379.171975,-2.466746,2.466746,-1379.171975,2422.757611,1650.672832)"><stop offset="0" style="stop-color:#19fd9e;stop-opacity:1"/><stop offset="1" style="stop-color:#0fffdf;stop-opacity:1"/></linearGradient><linearGradient id="_Linear12" x1="0" y1="0" x2="1" y2="0" gradientUnits="userSpaceOnUse" gradientTransform="matrix(-1379.171975,-2.466746,2.466746,-1379.171975,2422.757611,1650.672832)"><stop offset="0" style="stop-color:#19fd9e;stop-opacity:1"/><stop offset="1" style="stop-color:#0fffdf;stop-opacity:1"/></linearGradient><linearGradient id="_Linear13" x1="0" y1="0" x2="1" y2="0" gradientUnits="userSpaceOnUse" gradientTransform="matrix(-1379.171975,-2.466746,2.466746,-1379.171975,2422.757611,1650.672832)"><stop offset="0" style="stop-color:#19fd9e;stop-opacity:1"/><stop offset="1" style="stop-color:#0fffdf;stop-opacity:1"/></linearGradient><linearGradient id="_Linear14" x1="0" y1="0" x2="1" y2="0" gradientUnits="userSpaceOnUse" gradientTransform="matrix(-1379.171975,-2.466746,2.466746,-1379.171975,2422.757611,1650.672832)"><stop offset="0" style="stop-color:#19fd9e;stop-opacity:1"/><stop offset="1" style="stop-color:#0fffdf;stop-opacity:1"/></linearGradient></defs></svg>